<?xml version="1.0" standalone="no"?>
<!DOCTYPE svg PUBLIC "-//W3C//DTD SVG 1.1//EN" "http://www.w3.org/Graphics/SVG/1.1/DTD/svg11.dtd" >
<svg xmlns="http://www.w3.org/2000/svg" xmlns:xlink="http://www.w3.org/1999/xlink" version="1.1">
<metadata>
Created by FontForge 20170731 at Tue Jul  7 15:40:04 2020
 By Aleksey,,,
Copyright (c) 1990 Adobe Systems Incorporated.  Digitized data (c) 1993 The Monotype Corporation.  All rights reserved.
</metadata>
<defs>
<font id="CalistoMTStd-Bold" horiz-adv-x="1366" >
  <font-face 
    font-family="Calisto MT Std"
    font-weight="700"
    font-stretch="normal"
    units-per-em="2048"
    panose-1="2 5 8 2 4 4 5 3 2 4"
    ascent="1638"
    descent="-410"
    x-height="944"
    cap-height="1407"
    bbox="-360 -494 2206 1903"
    underline-thickness="102"
    underline-position="-307"
    unicode-range="U+0020-FB02"
  />
<missing-glyph horiz-adv-x="1024" 
d="M25 0v1362h972v-1362h-972zM180 1266l332 -498l330 498h-662zM123 1178v-992q0 -1 82.5 123t164.5 249l83 124zM901 1178l-332 -496l332 -498v994zM842 98l-330 496l-332 -496h662z" />
    <glyph glyph-name="fi" unicode="fi" horiz-adv-x="1193" 
d="M850 1114l-84 6q-2 32 -4 52t-11.5 56.5t-24 58t-43.5 39t-69 17.5q-37 0 -66 -13t-47.5 -31.5t-31.5 -49.5t-19 -56t-9.5 -63.5t-4 -59t-0.5 -54.5v-82h264q96 0 158.5 7.5t85.5 16t57 25.5l48 -31q-27 -208 -27 -579q0 -216 16 -252q6 -16 26 -26t81 -27q18 -9 33 -9
v-69q-46 3 -117 6q-98 4 -174 4q-135 0 -262 -10v69q95 24 112 43q25 33 25 318q0 329 -12 364q-8 25 -32.5 31t-92.5 6h-189v-516v-71.5t2.5 -53t4 -40t9 -27t12 -19t19 -11t25 -8.5t33.5 -7q27 -9 34 -9v-69q-41 2 -100 5t-61 3q-41 2 -84 2q-24 0 -156 -4q-99 -6 -151 -6
v69q2 0 15 4t19 5q63 16 83 30t24 52q10 88 10 264v407q-72 -2 -143 -10v72q76 28 143 69q-2 119 8.5 190.5t53.5 127.5q67 87 179 137.5t244 50.5q147 0 275 -69q-14 -32 -47 -142q-35 -123 -37 -133z" />
    <glyph glyph-name="fl" unicode="fl" horiz-adv-x="1193" 
d="M27 815v68q79 30 149 67q0 49 1.5 79t6.5 74t18.5 82t35.5 72q57 90 171.5 145.5t231.5 55.5q131 0 266 -78q50 38 86 78l51 -28q-24 -250 -24 -740q0 -508 4 -545q5 -31 24.5 -44.5t88.5 -32.5q4 -1 16.5 -5t15.5 -4v-69q-47 3 -114 6q-90 4 -150 4q-103 0 -278 -10v69
q86 20 102 41q35 37 35 389l2 549q0 121 -7 167.5t-38 86.5q-53 62 -127 62q-38 0 -64.5 -9t-43.5 -37.5t-26.5 -53t-14 -84.5t-5 -101.5t-0.5 -132.5q126 -2 165 -0.5t95 10.5l13 -22q-33 -58 -58 -117q-109 13 -215 18v-549q0 -101 1.5 -128t7.5 -39q16 -27 92 -43
q4 -1 11 -2.5t12 -3t7 -1.5v-69q-43 3 -122 6q-94 4 -148 4q-46 0 -281 -10v69q9 0 31 9q77 19 94 35t23 75q6 67 7 171t-1 476q-62 0 -147 -10z" />
    <glyph glyph-name=".notdef" horiz-adv-x="1024" 
d="M25 0v1362h972v-1362h-972zM180 1266l332 -498l330 498h-662zM123 1178v-992q0 -1 82.5 123t164.5 249l83 124zM901 1178l-332 -496l332 -498v994zM842 98l-330 496l-332 -496h662z" />
    <glyph glyph-name=".notdef" horiz-adv-x="1024" 
d="M25 0v1362h972v-1362h-972zM180 1266l332 -498l330 498h-662zM123 1178v-992q0 -1 82.5 123t164.5 249l83 124zM901 1178l-332 -496l332 -498v994zM842 98l-330 496l-332 -496h662z" />
    <glyph glyph-name=".null" horiz-adv-x="0" 
 />
    <glyph glyph-name="nonmarkingreturn" horiz-adv-x="682" 
 />
    <glyph glyph-name="space" unicode=" " horiz-adv-x="522" 
 />
    <glyph glyph-name="exclam" unicode="!" horiz-adv-x="704" 
d="M487 1438l50 -39q-61 -329 -134 -916q-1 -5 -5 -37.5t-5 -37.5h-92q-77 634 -127 919q181 57 313 111zM350 319q71 0 123.5 -51.5t52.5 -124.5t-52 -125.5t-124 -52.5q-74 0 -126 52.5t-52 125.5t52.5 124.5t125.5 51.5z" />
    <glyph glyph-name="quotedbl" unicode="&#x22;" horiz-adv-x="1130" 
d="M831 766h-49l-104 383q-19 78 -19 129q0 66 42 110t104 44q67 0 108 -44.5t41 -105.5q0 -37 -24 -133zM348 766h-49l-104 383q-19 78 -19 129q0 66 42 110t104 44q67 0 108 -44.5t41 -105.5q0 -33 -25 -133z" />
    <glyph glyph-name="numbersign" unicode="#" 
d="M82 1001h313l86 392h164l-84 -392h379l82 392h166l-84 -392h180v-165h-211l-69 -328h280v-164h-311l-84 -389h-166l84 389h-381l-80 -389h-166l80 389h-178v164h213l70 328h-283v165zM907 836h-379l-67 -326h379z" />
    <glyph glyph-name="dollar" unicode="$" horiz-adv-x="1024" 
d="M455 1497h108v-104q90 -4 167 -21t108 -30.5t77 -36.5q-53 -139 -69 -283l-90 12q-2 128 -45.5 186.5t-153.5 75.5v-442q30 -20 37 -27q58 -40 86 -60t70.5 -52.5t62 -51t47 -47.5t39 -51.5t24.5 -53t17 -62.5t4 -70q0 -46 -11.5 -92.5t-39.5 -97.5t-71 -93.5
t-111.5 -77.5t-153.5 -51v-166h-115v160q-182 3 -366 64q5 19 8.5 35t6.5 28.5t6 28.5t5 24t4.5 26t4 25t4.5 30t4 31.5t4.5 39t5.5 43.5h86q3 -28 5.5 -45t9.5 -47.5t16.5 -50.5t27.5 -45.5t41 -41.5t57.5 -28t76.5 -15v508q-9 6 -60 45q-68 51 -100.5 77t-77.5 68t-65 75
t-35 78.5t-15 97.5q0 72 33 143.5t92 124.5q39 35 85.5 57.5t74 29.5t74.5 15v115zM455 932v354q-123 -45 -123 -162q0 -60 31 -101.5t92 -90.5zM551 494v-418q145 56 145 196q0 65 -38.5 117t-106.5 105z" />
    <glyph glyph-name="percent" unicode="%" horiz-adv-x="1685" 
d="M266 1018q0 -61 3.5 -106.5t14 -90t32 -68.5t53.5 -24q58 0 80 83.5t22 256.5q0 31 -0.5 51t-3 58t-9 64t-17 53t-28.5 41t-42 14q-36 0 -58 -26t-34.5 -100t-12.5 -206zM70 1012q0 66 9.5 124.5t32.5 113.5t58 94.5t89.5 63.5t123.5 24t121 -23.5t82.5 -60t49.5 -88.5
t25.5 -101t6.5 -106q0 -180 -77.5 -291t-236.5 -111q-284 0 -284 361zM1174 1432h147l-805 -1512h-149zM1018 305q0 75 17.5 142.5t54 125.5t100 92.5t147.5 34.5q68 0 120 -24.5t81.5 -61.5t47.5 -88.5t24 -98t6 -97.5q0 -64 -9 -120.5t-31.5 -111t-57.5 -93.5t-90 -63
t-125 -24q-285 0 -285 387zM1217 301q0 -96 7 -158t22 -92t31 -40.5t40 -10.5q21 0 39 10.5t26 26.5q35 77 35 305q0 143 -22.5 209.5t-77.5 66.5q-100 0 -100 -317z" />
    <glyph glyph-name="ampersand" unicode="&#x26;" horiz-adv-x="1642" 
d="M1047 842v63q118 -10 225 -10q102 0 252 10v-69q-42 -6 -68 -13t-58.5 -21.5t-58.5 -41.5t-49 -68q-9 -16 -25 -44q-84 -147 -134 -220l-31 -45q87 -101 161.5 -140.5t129.5 -39.5q34 0 67 12.5t52.5 26t50.5 37.5l53 -70q-48 -47 -82 -77.5t-87.5 -72t-104 -63
t-95.5 -21.5q-90 0 -171.5 52t-166.5 139q-88 -72 -148.5 -109.5t-136.5 -59.5t-171 -22q-76 0 -138 16t-102.5 40t-71 58t-46.5 66t-25.5 67t-12 57.5t-2.5 42.5q0 43 9.5 83.5t23.5 73t40 65.5t47.5 56.5t58.5 51t60.5 43.5t66 39.5t62.5 33.5l62 31q-46 95 -68 158.5
t-22 134.5q0 79 27.5 141.5t69.5 100t97.5 62t106.5 33.5t101 9q34 0 66 -4t71 -18.5t67 -38t47 -66t19 -99.5q0 -42 -11 -81.5t-26.5 -69.5t-42.5 -61t-48.5 -50.5t-55.5 -43.5t-52 -35t-49 -29q15 -28 43 -77.5t87 -141.5t110 -152q39 53 65 103.5t36.5 87.5t14 58t3.5 36
q0 25 -14 42.5t-30 25t-48 18.5zM735 934q21 14 34.5 24t36.5 33.5t37 47t25 60.5t11 79q0 76 -35.5 122t-87.5 46q-103 0 -103 -142q0 -55 19 -112.5t63 -157.5zM526 711q-24 -13 -42.5 -24.5t-48.5 -37.5t-49.5 -54t-34.5 -72t-15 -93q0 -108 79 -186t177 -78
q52 0 101.5 15.5t75.5 31t60 39.5q-94 115 -143 190t-141 238q-17 26 -19 31z" />
    <glyph glyph-name="quotesingle" unicode="'" horiz-adv-x="575" 
d="M313 766h-49l-104 383q-19 78 -19 129q0 66 42 110t104 44q67 0 108 -44.5t41 -105.5q0 -37 -24 -133z" />
    <glyph glyph-name="parenleft" unicode="(" horiz-adv-x="681" 
d="M639 1460v-98q-37 -41 -59 -69.5t-56 -82.5t-62 -127t-50 -165q-50 -207 -50 -439q0 -308 97 -553q28 -72 62.5 -126.5t57 -78t60.5 -57.5v-94q-126 50 -226 129.5t-163.5 170t-105.5 197.5t-59 209.5t-17 210.5q0 148 32 283t86 241t127.5 195t155 151t170.5 103z" />
    <glyph glyph-name="parenright" unicode=")" horiz-adv-x="681" 
d="M43 -430v98q36 40 58.5 69t56.5 83t62 127.5t50 165.5q49 203 49 438q0 310 -96 553q-28 72 -62.5 126.5t-57 78t-60.5 57.5v94q126 -50 226 -129.5t163.5 -170t105.5 -197.5t59 -209.5t17 -210.5q0 -148 -32 -283t-86 -241t-127.5 -195t-155 -151t-170.5 -103z" />
    <glyph glyph-name="asterisk" unicode="*" horiz-adv-x="980" 
d="M373 1458h241l-86 -362l318 196l74 -231l-367 -29l276 -239l-194 -140l-143 344l-142 -344l-198 140l282 239l-366 35l75 225l316 -196z" />
    <glyph glyph-name="plus" unicode="+" 
d="M131 788h459v461h184v-461h461v-186h-461v-457h-184v457h-459v186z" />
    <glyph glyph-name="comma" unicode="," horiz-adv-x="704" 
d="M195 43l-43 53q3 5 11 16t9 13q6 6 39 46t39 46q29 36 65 90q6 12 17 23q100 -28 152.5 -102t52.5 -162q0 -130 -85.5 -267t-228.5 -264l-71 74l36 47q85 113 110.5 172.5t25.5 108.5q0 33 -11 57.5t-27.5 35t-29.5 15t-23 4.5q-26 0 -38 -6z" />
    <glyph glyph-name="hyphen" unicode="-" horiz-adv-x="724" 
d="M82 350l-25 29q39 106 62 207q88 -6 217 -6q209 0 309 6l23 -31q-42 -104 -66 -205q-163 6 -332 6q-112 0 -188 -6z" />
    <glyph glyph-name="hyphen" unicode="&#xad;" horiz-adv-x="724" 
d="M82 350l-25 29q39 106 62 207q88 -6 217 -6q209 0 309 6l23 -31q-42 -104 -66 -205q-163 6 -332 6q-112 0 -188 -6z" />
    <glyph glyph-name="period" unicode="." horiz-adv-x="704" 
d="M352 326q75 0 127.5 -53.5t52.5 -127.5t-52.5 -127t-127.5 -53t-127.5 53t-52.5 127t52.5 127.5t127.5 53.5z" />
    <glyph glyph-name="slash" unicode="/" horiz-adv-x="1153" 
d="M842 1397h198l-731 -1463h-196z" />
    <glyph glyph-name="zero" unicode="0" horiz-adv-x="1044" 
d="M59 731q0 45 4.5 105t29.5 170.5t67 189.5q125 236 385 236q88 0 158.5 -29t115.5 -72t78.5 -108.5t50 -123.5t26 -132t11.5 -118.5t2 -98.5q0 -130 -13 -239.5t-46.5 -212.5t-86.5 -175t-137 -115t-194 -43q-82 0 -148.5 23t-113 62t-81 98t-55 122.5t-33 144.5
t-16.5 154.5t-4 161.5zM362 727q0 -134 1 -203.5t8 -161t22 -147.5q6 -21 10.5 -34t16.5 -37.5t25 -38.5t35 -25.5t48 -11.5q38 0 67.5 23t43.5 63q45 129 45 561q0 325 -33 456q-38 156 -133 156q-90 0 -125 -133q-31 -109 -31 -467z" />
    <glyph glyph-name="one" unicode="1" horiz-adv-x="1044" 
d="M184 1190v65q180 60 269.5 94t189.5 83l53 -35q-26 -247 -26 -684q0 -543 10 -584q8 -24 33.5 -35t109.5 -26q7 -1 23.5 -5t19.5 -4v-69q-54 3 -137 6q-110 4 -192 4q-147 0 -332 -10v69q162 21 178 60q20 49 20 530q0 455 -8 502q-10 55 -65 55q-54 0 -146 -16z" />
    <glyph glyph-name="two" unicode="2" horiz-adv-x="1044" 
d="M201 1004h-99q54 158 58 303q36 24 61 39t74.5 38.5t108.5 35.5t124 12q90 0 164.5 -31t120.5 -82t71 -113t25 -127q0 -44 -7.5 -86t-17 -78.5t-33.5 -80t-43 -76t-58.5 -81t-67.5 -81.5t-84 -91.5t-93 -95.5l-108 -108q-5 -4 -69 -68h350q38 0 56 0.5t41.5 5.5t35 13
t27.5 25t28.5 40t30.5 60h96q-81 -191 -147 -387q-68 3 -180 6q-144 4 -246 4q-190 0 -400 -10v86q158 153 347 387q56 67 92.5 117t82.5 124t69.5 148.5t23.5 146.5q0 113 -59.5 170.5t-135.5 57.5q-45 0 -83 -17t-60.5 -37.5t-44.5 -57.5t-30 -56.5t-21 -54.5z" />
    <glyph glyph-name="three" unicode="3" horiz-adv-x="1044" 
d="M227 1071h-94q31 94 53 227q0 19 4 23q43 29 76 48t107 41t153 22q163 0 246.5 -80.5t83.5 -204.5q0 -46 -13 -88t-30 -71t-46.5 -60t-49 -47t-51.5 -41q63 -18 111.5 -49t76 -69.5t45 -73.5t24 -74.5t8 -56t1.5 -34.5q0 -64 -20 -132t-65.5 -138t-111.5 -124.5
t-167.5 -89t-223.5 -34.5q-147 0 -281 49q23 95 31 149t17 165h88q4 -32 9 -55t21 -63.5t38 -66.5t63.5 -46.5t95.5 -20.5q61 0 107 29t70.5 76t36 98t11.5 104q0 50 -8.5 92t-20.5 72t-33 54t-39 39t-45 26t-45 16.5t-45.5 8.5t-39 3.5t-33.5 1.5l2 86q65 17 114 44.5
t76 55.5t43.5 61.5t21.5 59.5t5 54q0 80 -48.5 127t-119.5 47q-41 0 -75.5 -13.5t-54.5 -29.5t-39 -43t-25 -40t-15 -34z" />
    <glyph glyph-name="four" unicode="4" horiz-adv-x="1044" 
d="M354 -10v65q3 1 9 2t15 2t13 2q99 18 127 29t37 33q11 30 18 201h-432q-15 0 -64.5 -2.5t-62.5 -2.5q-3 107 -10 175q83 113 274 388.5t295 436.5q119 49 222 127l51 -35q-25 -262 -25 -405q0 -17 0.5 -137t0.5 -220t-1 -131q92 2 195 21l28 -37q-34 -57 -50 -88t-42 -97
q-62 9 -131 9q5 -175 10 -195q5 -25 32 -38.5t108 -26.5q6 -2 17 -4t19 -4t11 -3v-65q-49 3 -137 6q-114 4 -197 4q-150 0 -330 -10zM172 512h403v590h-4z" />
    <glyph glyph-name="five" unicode="5" horiz-adv-x="1044" 
d="M954 1407l25 -33q-62 -89 -115 -213q-76 2 -493 2q-28 -102 -45 -178q111 5 202.5 -11.5t152.5 -46.5t107.5 -73t72.5 -86.5t42 -93t20.5 -86.5t4.5 -72q0 -76 -21 -151.5t-68 -148t-114.5 -128t-168 -89.5t-220.5 -34q-57 0 -109 7t-74.5 13t-72.5 21q26 118 39 264
q1 3 3 25.5t3 26.5l90 -5q10 -42 16 -65t23 -61t37 -59t55 -37.5t80 -16.5q52 0 95 20t71 52t47 74.5t27 85t8 85.5q0 90 -30.5 160t-81.5 111t-111.5 61.5t-126.5 20.5q-51 0 -144 -13l-47 47q100 256 164 615q231 -11 393 -11q136 0 264 21z" />
    <glyph glyph-name="six" unicode="6" horiz-adv-x="1044" 
d="M877 1438l34 -105q-223 -100 -336.5 -218t-191.5 -331l4 -4q61 52 95.5 78.5t84 50t92.5 23.5q62 0 122 -30.5t108.5 -84t78 -135t29.5 -176.5q0 -68 -17 -140t-55.5 -144.5t-93 -129t-138.5 -92t-183 -35.5q-96 0 -174.5 31t-130 82.5t-86.5 121.5t-50.5 144t-15.5 154
q0 109 26 215.5t87.5 216t154 202.5t235 174t321.5 132zM338 465q0 -165 58.5 -276t158.5 -111q39 0 69 15.5t48 43t30 56.5t17 66.5t6.5 62.5t1.5 53q0 101 -21.5 181t-69.5 130.5t-116 50.5q-19 0 -38.5 -4.5t-47 -21t-47.5 -44t-34.5 -80t-14.5 -122.5z" />
    <glyph glyph-name="seven" unicode="7" horiz-adv-x="1044" 
d="M176 1022h-96q91 212 147 385q190 -10 404 -10q166 0 356 10v-90q-126 -355 -127 -356q-195 -548 -317 -996q-20 2 -64 6q-23 2 -82 2q-65 0 -127 -8l-24 33q90 170 196 391t361 764h-432h-47t-34 -5t-28 -11t-24 -23.5t-28 -36t-34 -55.5z" />
    <glyph glyph-name="eight" unicode="8" horiz-adv-x="1044" 
d="M338 680q-58 47 -92 79t-70.5 78.5t-53 99.5t-16.5 116q0 114 61.5 201t164.5 132.5t229 45.5q77 0 143 -17.5t118 -51.5t82 -91t30 -131q0 -54 -14.5 -98t-48 -86t-75 -78.5t-108.5 -87.5q77 -56 123.5 -96.5t86 -90.5t56.5 -104t17 -121q0 -49 -12 -100t-46 -109
t-85 -102t-137 -73.5t-195 -29.5q-60 0 -115.5 9t-111.5 32.5t-97 60t-66.5 95.5t-25.5 135q0 54 14 101.5t34.5 83t57 73t69 63t83.5 62.5zM588 864q26 25 41 42t37.5 50t33.5 74.5t11 91.5q0 88 -47.5 144.5t-135.5 56.5q-87 0 -129.5 -51.5t-42.5 -116.5
q0 -40 15.5 -75.5t54 -75.5t68.5 -65t94 -75zM442 604q-22 -26 -33 -41t-33 -52.5t-33 -84.5t-11 -102q0 -110 56.5 -181t141.5 -71q81 0 126.5 60.5t45.5 135.5q0 42 -15.5 83t-37.5 72t-60.5 66.5t-69 58.5t-77.5 56z" />
    <glyph glyph-name="nine" unicode="9" horiz-adv-x="1044" 
d="M180 -51l-37 102q79 32 146 71.5t114.5 78t87.5 85t64.5 85t45.5 85t32 78.5t22 72q-24 -16 -41 -33q-93 -72 -132.5 -91t-90.5 -19q-102 0 -183 66.5t-122 166.5t-41 211q0 76 18.5 149.5t59 141.5t98 120t142 83t184.5 31q106 0 188.5 -34.5t131 -87t79.5 -124t42 -137
t11 -134.5q0 -115 -30 -235t-108.5 -253.5t-196.5 -233.5q-68 -57 -140 -101.5t-142 -73t-109 -41.5t-93 -28zM322 1034q0 -181 60.5 -273.5t149.5 -92.5q48 0 83 23t53 54.5t28.5 74.5t12.5 71t2 57q0 39 -4.5 81t-18.5 95t-36 94t-62 69t-92 28q-36 0 -65 -13.5t-47 -33
t-31 -49t-19 -53.5t-9.5 -55.5t-4 -45t-0.5 -31.5z" />
    <glyph glyph-name="colon" unicode=":" horiz-adv-x="704" 
d="M352 326q75 0 127.5 -53.5t52.5 -127.5t-52.5 -127t-127.5 -53t-127.5 53t-52.5 127t52.5 127.5t127.5 53.5zM352 979q75 0 127.5 -53t52.5 -127t-52.5 -127.5t-127.5 -53.5t-127.5 53.5t-52.5 127.5t52.5 127t127.5 53z" />
    <glyph glyph-name="semicolon" unicode=";" horiz-adv-x="704" 
d="M195 43l-43 53q3 5 11 16t9 13q6 6 39 46t39 46q29 36 65 90q6 12 17 23q100 -28 152.5 -102t52.5 -162q0 -130 -85.5 -267t-228.5 -264l-71 74l36 47q85 113 110.5 172.5t25.5 108.5q0 33 -11 57.5t-27.5 35t-29.5 15t-23 4.5q-26 0 -38 -6zM352 979q75 0 127.5 -53
t52.5 -127t-52.5 -127.5t-127.5 -53.5t-127.5 53.5t-52.5 127.5t52.5 127t127.5 53z" />
    <glyph glyph-name="semicolon" unicode="&#x37e;" horiz-adv-x="704" 
d="M195 43l-43 53q3 5 11 16t9 13q6 6 39 46t39 46q29 36 65 90q6 12 17 23q100 -28 152.5 -102t52.5 -162q0 -130 -85.5 -267t-228.5 -264l-71 74l36 47q85 113 110.5 172.5t25.5 108.5q0 33 -11 57.5t-27.5 35t-29.5 15t-23 4.5q-26 0 -38 -6zM352 979q75 0 127.5 -53
t52.5 -127t-52.5 -127.5t-127.5 -53.5t-127.5 53.5t-52.5 127.5t52.5 127t127.5 53z" />
    <glyph glyph-name="less" unicode="&#x3c;" 
d="M1233 127l-1102 461v168l1102 461v-199l-850 -346l850 -344v-201z" />
    <glyph glyph-name="equal" unicode="=" 
d="M131 1028h1104v-184h-1104v184zM131 553h1104v-184h-1104v184z" />
    <glyph glyph-name="greater" unicode="&#x3e;" 
d="M131 1217l1102 -461v-168l-1102 -461v199l852 346l-852 344v201z" />
    <glyph glyph-name="question" unicode="?" horiz-adv-x="831" 
d="M129 1053h-84q35 158 45 305q186 80 326 80q82 0 146 -22.5t100.5 -56t59.5 -77t30.5 -79t7.5 -68.5q0 -130 -125 -291l-150 -189q-63 -81 -86 -247h-102q3 128 27.5 222.5t99.5 256.5q57 123 57 188q0 74 -44 117t-109 43q-36 0 -66.5 -12t-48.5 -27t-36.5 -44.5
t-26 -47t-21.5 -51.5zM362 322q73 0 126 -52.5t53 -126.5t-53 -126t-126 -52q-72 0 -124 51.5t-52 126.5q0 74 52.5 126.5t123.5 52.5z" />
    <glyph glyph-name="at" unicode="@" horiz-adv-x="1898" 
d="M1153 926l244 10l-185 -629q-28 -105 -28 -153q0 -33 22.5 -57.5t59.5 -24.5q41 0 95 26t113 80t108.5 126t81.5 174t32 214q0 99 -25.5 191t-79 172.5t-128.5 140.5t-180 94.5t-228 34.5q-165 0 -309 -51.5t-248 -140.5t-179 -206.5t-112 -251.5t-37 -274
q0 -178 61.5 -327t167.5 -249.5t248.5 -156t304.5 -55.5q88 0 178.5 17.5t187 59.5t180 104t156.5 158t118 214h61q-39 -95 -89.5 -176t-103 -139t-114 -105t-116.5 -76.5t-117 -52t-108.5 -33.5t-97.5 -17t-78.5 -7.5t-56.5 -1.5q-187 0 -350 64t-281.5 178t-186.5 278.5
t-68 357.5q0 196 70 370t194 302.5t306 203t396 74.5q147 0 268.5 -38.5t203.5 -103.5t139 -152.5t82.5 -183t25.5 -197.5q0 -132 -41.5 -258t-115.5 -227.5t-189.5 -163.5t-251.5 -62q-100 0 -152.5 47t-52.5 131q0 55 25 133l-4 4q-30 -51 -50 -83t-57 -81.5t-69.5 -78
t-76.5 -50.5t-89 -22q-46 0 -80.5 21t-52.5 55.5t-26.5 71.5t-8.5 77q0 115 36 230t94 204t126.5 159t137 107.5t122.5 37.5q34 0 60 -12t40 -27t23.5 -40t12.5 -40t5 -37h4zM1004 891q-17 0 -43.5 -13.5t-45.5 -41.5q-90 -129 -144 -297.5t-54 -262.5q0 -43 17.5 -68.5
t41.5 -25.5q34 0 85 55t98 136t80.5 187t33.5 196q0 70 -21.5 102.5t-47.5 32.5z" />
    <glyph glyph-name="A" unicode="A" horiz-adv-x="1599" 
d="M893 -10v73q7 0 27 5q28 5 38.5 7t30.5 6.5t27.5 8.5t17.5 11t13.5 15.5t3.5 20.5q0 19 -88 234q-3 7 -11.5 27t-9.5 24q-19 0 -100 1t-135 1q-37 0 -122 -1t-136 -1q-7 -26 -19 -45q-92 -224 -92 -244q0 -29 24.5 -40t112.5 -25l21 -5v-73q-34 3 -93 6q-78 4 -147 4
q-134 0 -252 -10v73q88 19 121.5 41.5t62.5 83.5q150 303 433 947l7 17.5t14 32.5t15 36l97 217h80q109 -271 301 -693q189 -417 258 -555q30 -58 58 -78t95 -36l51 -13v-73q-49 3 -129 6q-106 4 -194 4q-179 0 -381 -10zM899 537l-199 471l-204 -471q197 -2 403 0z" />
    <glyph glyph-name="B" unicode="B" horiz-adv-x="1343" 
d="M8 1335v72q222 -10 412 -10q109 0 211 4q91 2 162 1.5t135 -11t110 -33.5q73 -37 113.5 -104.5t40.5 -153.5q0 -257 -309 -346v-4q28 -1 51.5 -3.5t63.5 -10.5t71.5 -20.5t67.5 -37t60 -56.5t40 -81.5t16 -110.5q0 -34 -5.5 -68.5t-22 -79t-43.5 -83.5t-74.5 -78
t-110 -66.5t-154.5 -45t-204 -17.5q-31 0 -82.5 2t-62.5 2q-129 6 -154 6q-22 0 -164 -5.5t-168 -6.5v73q7 0 39 9q53 10 76 15t49.5 14t33.5 14t15.5 19t9.5 26.5t2 38.5q3 83 3 247l2 265q0 468 -13 530q-6 28 -17.5 40t-33.5 19q-2 1 -30.5 7t-71 14.5t-64.5 13.5z
M532 1288v-502q29 1 62 -0.5t68 4.5t68 14.5t62.5 29.5t52 49.5t35.5 74t13 103.5q0 115 -59.5 176t-180.5 61q-63 0 -121 -10zM532 682v-565q72 -13 123 -13q277 0 277 302q0 59 -11.5 104t-32.5 74t-50 49.5t-64 29.5t-74.5 14.5t-82 4.5t-85.5 0z" />
    <glyph glyph-name="C" unicode="C" horiz-adv-x="1556" 
d="M1391 264l51 -96q-160 -106 -306 -157.5t-321 -51.5q-151 0 -274.5 39.5t-206 106.5t-138.5 158.5t-81 193t-25 213.5t25.5 217t87 206.5t153 177t234.5 121.5t321 46q143 0 260.5 -23t262.5 -69q-7 -58 -7 -132q0 -94 15 -299h-109l-12 48q-29 112 -47.5 158t-50.5 83
q-107 115 -308 115q-88 0 -160.5 -23t-121.5 -59.5t-86 -88t-58 -103t-34 -110.5t-17 -104.5t-4 -91.5q0 -133 33 -241.5t97 -189t166.5 -125t234.5 -44.5q217 0 426 125z" />
    <glyph glyph-name="D" unicode="D" horiz-adv-x="1685" 
d="M16 1335v72q54 -3 164 -6q132 -4 215 -4q185 0 326 6q78 4 250 4q153 0 269.5 -36.5t213.5 -143.5q77 -84 108 -198.5t31 -225.5q0 -317 -188 -535q-242 -280 -657 -280q-15 0 -82.5 2.5t-104.5 3.5q-117 6 -182 6q-38 0 -363 -10v73q9 0 41 9q47 8 73.5 13t49.5 14
t32.5 16t17 22.5t8.5 30.5t2 43q2 152 2 569q0 136 -4 394v39.5t-4.5 29.5t-6 22.5t-15 16t-20 13t-33 9.5t-43 10t-59.5 11q-29 4 -41 10zM553 123q124 -21 205 -21q222 0 336 127q157 174 157 514q0 551 -467 551q-105 0 -231 -20q-10 -156 -10 -578q0 -294 10 -573z" />
    <glyph glyph-name="E" unicode="E" 
d="M16 1335v72q215 -10 549 -10q308 0 652 10q2 -208 24 -365h-84l-18 50q-18 53 -27 77.5t-23 51t-23.5 35t-30.5 16.5t-41 9t-58 1h-383q-5 -144 -8 -491q64 -2 156.5 -1.5t121.5 3.5q24 2 35.5 5.5t28.5 18t30.5 48t26.5 89.5q0 15 8 39h84q-12 -126 -12 -258
q0 -128 12 -268h-84q-6 18 -6 41q-6 35 -10.5 56.5t-12.5 41.5t-12.5 30.5t-19 20t-23 13t-33 6t-40.5 2.5h-54h-196v-559h399q25 0 37.5 0.5t34 5t35 13t34.5 25t39.5 41.5t43.5 62t53 86l18 33h88q-53 -149 -108 -334q-1 -6 -8.5 -32.5t-8.5 -28.5q-105 3 -457 8
q-139 2 -256 2q-110 0 -473 -10v73q3 0 10 1.5t16 3l15 2.5q49 9 71 14t48.5 14t34.5 17t17 24.5t10.5 36t1.5 51.5v897q2 131 -27 158t-197 53z" />
    <glyph glyph-name="F" unicode="F" horiz-adv-x="1280" 
d="M16 1335v72q35 -1 131.5 -3.5t192.5 -4.5t170 -2q344 0 719 10q4 -220 26 -393h-81q-8 17 -11 30q-14 45 -24.5 76t-23 56.5t-20.5 41t-23.5 27.5t-25 17t-31.5 8t-36.5 3.5t-46.5 0.5h-383v-483h174h54t41 3.5t33 7t23.5 15.5t20.5 24.5l15 37.5t16 51t16 69h82
q-12 -177 -12 -288q0 -114 12 -250h-82l-12 49q-9 39 -12.5 55.5t-12 40.5t-12 31t-17 19t-21.5 13.5t-31 5t-40.5 3.5h-54.5h-180v-449v-42t3.5 -32t7.5 -25.5t15 -18t23.5 -14.5t37 -9.5t50.5 -9.5t68 -8q5 -1 16 -2.5t19 -3t12 -1.5v-73q-62 3 -183 6q-140 4 -233 4
q-109 0 -369 -10v73q3 0 10.5 1.5t17.5 3t15 2.5q90 15 125 29.5t45 37t11 78.5q0 42 1 291.5t1 449t-2 252.5q-1 62 -28 78.5t-155 40.5q-30 4 -41 8z" />
    <glyph glyph-name="G" unicode="G" horiz-adv-x="1748" 
d="M1716 727v-74q-139 -27 -174 -43q-22 -11 -29.5 -44.5t-7.5 -137.5q0 -207 8 -371q-104 -18 -151 -28q-201 -42 -294.5 -56t-211.5 -14q-163 0 -261 22t-171 60q-84 43 -147.5 107.5t-98 128.5t-55.5 139t-27 130t-6 111q0 122 29 232.5t95.5 212t164.5 175t245.5 117.5
t329.5 44q235 0 531 -68q-4 -144 8 -428h-102q-16 64 -26 96.5t-32.5 84.5t-51 79.5t-72.5 57.5t-108 42.5t-147 12.5q-152 0 -247.5 -50.5t-161.5 -144.5q-58 -83 -84.5 -198t-26.5 -222q0 -153 39.5 -271.5t109.5 -191t162 -109t203 -36.5q17 0 34 1t31 2.5t30.5 4t27 4.5
t26 6t23.5 6t23 7t20 7t20 7t17 6v308q0 100 -10 129q-8 24 -34.5 34t-123.5 31q-32 6 -35 8v74q204 -12 353 -12q96 0 366 12z" />
    <glyph glyph-name="H" unicode="H" horiz-adv-x="1642" 
d="M14 1335v72q180 -10 377 -10q82 0 377 10v-72q-3 -1 -17 -3t-18 -3q-43 -7 -63 -10t-46 -11.5t-35 -11.5t-21.5 -18t-15 -23.5t-6 -35t-3.5 -44.5v-61v-326q110 -4 303 -4q148 0 254 4q0 385 -2 412q-2 48 -14 68t-47.5 33t-123.5 26q-30 5 -39 8v72q180 -10 357 -10
q79 0 397 10v-72q-6 -3 -37 -8q-90 -18 -119.5 -27t-42 -21t-16.5 -42q-6 -47 -6 -94q-2 -71 -4 -422q0 -42 3 -258t3 -252q0 -30 0.5 -43t6.5 -30.5t15.5 -23.5t31 -15.5t50 -15t76.5 -13.5l15 -2.5t15.5 -3t8.5 -1.5v-73q-58 3 -153 6q-122 4 -222 4q-187 0 -379 -10v73
q12 0 44 9q121 22 145 36q29 15 33 56q2 16 2 57l2 441q-25 0 -149 2t-126 2l-282 -4q0 -406 6 -490q1 -34 11.5 -49.5t46.5 -27.5t118 -25q5 -1 15 -2.5t17.5 -3t10.5 -1.5v-73q-59 3 -162 6q-132 4 -237 4q-185 0 -355 -10v73q2 0 8.5 1.5t15.5 3l15 2.5q49 9 77 14.5
t51 16t32 17.5t15.5 26t7 34t0.5 49l2 389q0 564 -9 621q-6 41 -36.5 56t-141.5 34q-32 5 -37 8z" />
    <glyph glyph-name="I" unicode="I" horiz-adv-x="788" 
d="M772 1407v-72q-3 -1 -9.5 -2t-16 -2t-13.5 -2q-67 -8 -101 -15.5t-54.5 -23t-25.5 -35.5t-5 -59v-958v-41.5t3 -31.5t7 -26t13.5 -19t22 -16.5t33.5 -11.5t45.5 -11.5t61.5 -10.5q4 -1 13.5 -2.5t16 -3t9.5 -1.5v-73q-60 3 -149 6q-122 4 -213 4q-100 0 -392 -10v73l29 5
h1h1l1 1q125 22 152 36q31 17 36 61q2 14 2 39q0 162 2 225l-2 748q0 31 -1 47t-8 32.5t-16 24t-32.5 16.5t-49 14t-72.5 13q-23 3 -43 10v72q245 -10 383 -10q84 0 371 10z" />
    <glyph glyph-name="J" unicode="J" horiz-adv-x="960" 
d="M213 1335v72q250 -10 391 -10q104 0 359 10v-72q-16 -5 -48 -10q-79 -15 -109 -25t-40.5 -21.5t-13.5 -39.5q-9 -66 -9 -438q0 -358 -5.5 -447t-35.5 -157q-48 -108 -157.5 -173t-255.5 -65q-100 0 -234 41q24 127 31 377h102q5 -71 13 -120t23.5 -94t43 -67t66.5 -22
q25 0 42.5 9t27 25t13.5 27t7 27q12 55 12 618q0 424 -4 463q-4 24 -16.5 38t-50.5 22q-35 8 -91 19.5t-61 12.5z" />
    <glyph glyph-name="K" unicode="K" horiz-adv-x="1599" 
d="M16 1335v72q7 0 75.5 -3t143 -5t158.5 -2q204 0 379 10v-72q-2 -1 -6.5 -2t-11 -2t-9.5 -2q-120 -24 -144 -31.5t-36 -25.5q-14 -21 -14 -92l-2 -457q53 52 119 119t159 164.5t154 173.5t61 100q0 18 -22 27q-3 2 -61.5 14t-63.5 14v72q13 0 73 -3t121 -5t115 -2
q86 0 291 10v-72q-99 -15 -145 -30t-82.5 -41t-104.5 -93q-33 -32 -184.5 -187t-165.5 -169q97 -121 231 -278q103 -118 205 -246q63 -80 104 -116t99.5 -61.5t167.5 -50.5v-73q-46 3 -141 6q-132 4 -248 4q-215 0 -385 -10v73q81 8 107 21.5t26 36.5q0 10 -6 20.5t-33 44.5
q-43 55 -192 252t-195 260h-4q0 -477 2 -516q2 -24 3 -33.5t8 -23t15.5 -18t32 -12.5t49 -12.5t74.5 -12.5l15 -2.5t15.5 -3t8.5 -1.5v-73q-51 3 -139 6q-114 4 -205 4q-145 0 -412 -10v73q3 0 10.5 1.5t17.5 3t17 2.5q34 6 50.5 9.5t48 12t49 20t22.5 25.5q11 34 11 334
q0 726 -6 770q-2 12 -4 18.5t-8.5 15t-18.5 14.5t-31 11q-29 8 -158 35z" />
    <glyph glyph-name="L" unicode="L" 
d="M16 1335v72q235 -10 402 -10q104 0 387 10v-72l-47 -8q-30 -3 -92 -14t-78 -17q-13 -4 -21 -13t-11.5 -23.5t-4 -24.5t-0.5 -29l-2 -256v-831h362q45 0 68 1.5t52 12t45.5 24t45.5 49t54 76t69 113.5h90q-70 -190 -131 -405q-114 3 -407 8q-125 2 -299 2q-217 0 -482 -10
v73q14 0 41 9h1h1l1 1h1q124 23 147 36q24 14 28 51l2 22l2 252q0 748 -4 791q-6 50 -30.5 65t-133.5 35q-29 3 -56 10z" />
    <glyph glyph-name="M" unicode="M" horiz-adv-x="2004" 
d="M12 1335v72q170 -10 295 -10q128 0 271 10q44 -120 158 -375t180 -396t100 -212q43 96 164 358q114 243 161 352.5t107 272.5q11 0 117.5 -5t158.5 -5q77 0 269 10v-72q-3 -1 -20 -4.5t-25 -5.5q-113 -19 -140.5 -33.5t-33.5 -60.5q-7 -77 -7 -512q0 -362 1.5 -455
t7.5 -119q5 -17 14.5 -27t47 -22t110.5 -24q7 -1 24.5 -5t20.5 -4v-73q-60 3 -205 8q-59 2 -164 2q-157 0 -387 -10v73l29 5q40 7 63 10.5t47 10.5t35 11t22.5 14t15.5 17.5t7.5 24.5t3.5 30.5v40.5v199q2 516 2 686h-4q-6 -13 -39 -88t-67 -152q-8 -18 -55.5 -123.5
t-55.5 -123.5q-4 -9 -15.5 -34t-28 -62t-28.5 -62l-79 -178q-109 -239 -132 -289h-77q-37 86 -124 278t-189 415t-126 276q-44 93 -67 149h-4q-1 -222 2 -518t6 -364q7 -95 12 -105l2 -4q18 -34 162 -55q31 -9 41 -9v-73q-39 3 -104 6q-90 4 -170 4q-132 0 -302 -10v73
q7 0 27 5q48 8 73.5 13t50 14t34 16.5t17.5 23.5t9.5 33t1.5 47q0 39 5 162q10 300 10 723q0 101 -6.5 140.5t-32.5 55.5q-24 15 -150 31q-37 5 -47 8z" />
    <glyph glyph-name="N" unicode="N" horiz-adv-x="1642" 
d="M10 1335v72q127 -10 254 -10q81 0 281 10q93 -125 348 -436l332 -404q30 -40 55 -65q-4 687 -16 749q-7 38 -42.5 52t-123.5 26q-29 0 -41 6v72q152 -10 280 -10q80 0 295 10v-72q-3 -1 -20 -4.5t-25 -5.5q-99 -14 -129.5 -31t-36.5 -65q-12 -98 -12 -606q0 -286 10 -641
q-35 -11 -92 -33q-13 17 -67 84t-125 157q-148 191 -306 383q-78 93 -246.5 298.5t-207.5 258.5l-4 -4l2 -417q0 -114 4 -330t10 -244q7 -25 38 -36t128 -27q31 -9 41 -9v-73q-39 2 -121 6q-94 4 -154 4q-31 0 -303 -10v73q4 0 21.5 4t25.5 5q48 8 67 11t43.5 11.5
t30.5 14.5t14 23.5t9 34t2 50.5q14 604 15 639q0 221 2 258v56.5t-4 43t-7 33t-14.5 23t-21.5 18.5t-34 13t-45 12t-61 12q-30 4 -49 10z" />
    <glyph glyph-name="O" unicode="O" horiz-adv-x="1665" 
d="M88 676q0 158 50 295.5t145 242t244 164.5t335 60q152 0 274.5 -39.5t203.5 -105.5t135.5 -156.5t78 -188t23.5 -203.5q0 -102 -21.5 -204t-77 -209t-140 -188t-222.5 -133t-311 -52q-179 0 -317 52t-225 147.5t-131 226t-44 291.5zM434 731q0 -103 10 -191.5t38.5 -178
t73 -152t119 -102t171.5 -39.5q385 0 385 606q0 89 -8 167.5t-26 153.5t-49 134t-74 104.5t-105 69.5t-138 24q-74 0 -135 -24t-101.5 -62t-71 -92.5t-47 -107t-26.5 -114t-13 -106.5t-3 -90z" />
    <glyph glyph-name="P" unicode="P" horiz-adv-x="1280" 
d="M16 1335v72q325 -10 433 -10q45 0 126 2t91 2q148 3 226.5 -2.5t137.5 -32.5q59 -26 99.5 -69t57.5 -91.5t23.5 -85.5t6.5 -73q0 -87 -30 -165t-88.5 -141.5t-155 -101t-218.5 -37.5q-80 0 -178 16q0 -387 4 -450q1 -30 10.5 -44t52.5 -28t136 -26q7 -1 19.5 -2.5
t21.5 -3t12 -1.5v-73q-51 2 -195 6q-148 4 -209 4q-85 0 -383 -10v73q3 0 20.5 3.5t20.5 3.5q83 15 118 27t46.5 27t14.5 48q6 47 6 317q0 6 0.5 107t0.5 207.5v221t-1 161.5q-1 28 -2.5 43t-9.5 30.5t-17.5 22.5t-33 15.5t-48.5 13.5t-72 14q-8 2 -24 5.5t-19 4.5z
M547 1276v-545q40 -4 106 -4q72 0 122.5 25.5t76 70t36.5 92t11 103.5q0 266 -248 266q-42 0 -104 -8z" />
    <glyph glyph-name="Q" unicode="Q" horiz-adv-x="1665" 
d="M1683 -154l35 -71q-151 -98 -256 -151.5t-178 -53.5q-51 0 -115.5 19.5t-116.5 43t-132 71t-121.5 75t-126.5 84.5q-134 91 -231 127.5t-263 58.5v101q59 -6 103 -15l4 4q-197 202 -197 537q0 114 26.5 221t86.5 206.5t148 173t221 117.5t296 44q145 0 264.5 -37
t201.5 -101t138 -153t81.5 -190t25.5 -214q0 -221 -88.5 -397t-249.5 -275.5t-367 -99.5q-93 0 -204 29l-4 -4q252 -101 432 -156t295 -55q56 0 114 10.5t89.5 20.5t88.5 30zM434 748q0 -342 104.5 -512t319.5 -170q89 0 156 32.5t117 104t76 193.5t26 292q0 78 -7 149
t-23 145.5t-45.5 134.5t-71.5 108.5t-105.5 75t-142.5 26.5q-73 0 -133.5 -22t-101.5 -57.5t-72.5 -86t-49.5 -101.5t-29 -110.5t-14.5 -106.5t-3.5 -95z" />
    <glyph glyph-name="R" unicode="R" horiz-adv-x="1492" 
d="M16 1335v72q342 -10 400 -10q132 0 182 4l186 4q162 0 254 -49q72 -41 117 -120t45 -177q0 -136 -84 -250q-25 -34 -55 -59.5t-51.5 -38t-65.5 -35.5q167 -286 270 -447q54 -87 108 -115.5t200 -50.5v-73q-42 3 -123 6q-94 4 -156 4q-111 0 -276 -10q-129 292 -291 598
q-7 21 -23 45q-45 0 -118 8q2 -418 4 -451q2 -22 3.5 -32t6 -24t13.5 -21.5t24 -12.5q29 -12 174 -37v-73q-52 3 -162 6q-132 4 -211 4q-116 0 -371 -10v73q2 0 8 1.5t14 3t13 2.5q77 13 112 23t49 22.5t19 36.5q4 21 9 272q0 653 -4 766q-1 28 -2.5 43.5t-10 30.5t-16.5 21
t-32 14.5t-45.5 12.5t-68.5 13q-26 4 -45 10zM535 1276l2 -522q31 -1 47.5 -1.5t49.5 0.5t52.5 4.5t49 12t47.5 21t39.5 33.5t33 47.5t19.5 64.5t8 84q0 24 -2.5 49.5t-16.5 66.5t-37 71.5t-69.5 53.5t-108.5 23q-49 0 -114 -8z" />
    <glyph glyph-name="S" unicode="S" horiz-adv-x="1130" 
d="M983 1001h-98l-9 48t-11 48t-14.5 49.5t-19.5 45.5t-27 44t-34.5 35t-44 29.5t-55 17.5t-68.5 7q-97 0 -158 -50t-61 -140q0 -37 9.5 -65t38.5 -62.5t89 -71.5t154 -80q66 -29 110.5 -53t99 -64t86.5 -83t54.5 -106.5t22.5 -139.5q0 -28 -4 -58t-18 -76.5t-37.5 -87.5
t-67.5 -84t-102 -74t-147 -51t-198 -20q-88 0 -167.5 11t-120.5 21.5t-97 28.5q18 206 16 414h99q9 -46 14.5 -71t18.5 -68.5t26 -68.5t36 -57t50.5 -49t67.5 -29.5t88 -12.5q112 0 173.5 65.5t61.5 157.5q0 45 -15 83t-37.5 65.5t-64.5 56t-80 48t-100 48.5
q-199 94 -277.5 186.5t-78.5 223.5q0 61 16.5 119t56 114.5t98.5 98.5t151 68t206 26q178 0 369 -66q-6 -167 -6 -217q0 -75 6 -154z" />
    <glyph glyph-name="T" unicode="T" horiz-adv-x="1386" 
d="M1341 987h-92q-2 4 -9 27t-11 33q-52 172 -82 202q-19 17 -52.5 22t-152.5 5h-96v-934q0 -196 18 -221q7 -10 16 -15.5t44.5 -14.5t103.5 -21l15 -2.5t16 -3t10 -1.5v-73q-66 3 -233 8q-63 2 -156 2q-77 0 -365 -10v73q165 29 194.5 48t29.5 98l2 145v922h-168
q-30 0 -43 -0.5t-34 -3t-30 -8t-23.5 -16.5t-22 -26t-19.5 -39.5t-21.5 -54.5t-21.5 -73q-3 -11 -10.5 -37t-8.5 -31h-92q18 146 22 203t9 217q340 -8 604 -8q394 0 629 8q2 -173 30 -420z" />
    <glyph glyph-name="U" unicode="U" horiz-adv-x="1622" 
d="M8 1335v72q228 -10 383 -10q130 0 365 10v-72q-55 -10 -75.5 -13.5t-56 -11.5t-52.5 -15.5t-25 -16.5q-19 -24 -19 -145v-512q0 -212 29 -289q69 -189 328 -189q61 0 110.5 10t86.5 24t65 45t46.5 55.5t31 73.5t19 81t9.5 97t3.5 102.5t0.5 113.5v3q0 101 -6 294.5
t-16 223.5q-7 23 -33.5 33t-118.5 28q-30 5 -39 8v72q215 -10 297 -10q75 0 275 10v-72q-3 -1 -21.5 -4.5t-27.5 -5.5q-42 -7 -67 -12.5t-44 -16t-28 -18t-14.5 -28.5t-6.5 -35.5t-2 -51.5q-6 -212 -8 -600q-1 -129 -22 -222.5t-46 -136.5t-63 -83q-158 -162 -455 -162
q-121 0 -216 21.5t-155.5 51.5t-104 81.5t-64 92.5t-32 104.5t-13 97.5t-1.5 90v618q0 117 -12 148q-10 24 -40 35.5t-116 25.5q-9 2 -27.5 5.5t-21.5 4.5z" />
    <glyph glyph-name="V" unicode="V" horiz-adv-x="1472" 
d="M8 1335v72q317 -10 365 -10q78 0 338 10v-72q-1 -1 -16 -5t-17 -5q-77 -18 -101 -31.5t-24 -40.5q0 -12 2 -22q6 -25 102 -293l27 -72q97 -273 156 -438h4q0 11 22 70q10 29 70.5 190t67.5 182q1 3 9 26.5t17 50.5t17 52q16 44 40.5 116.5t28.5 84.5q14 28 14 55
q0 23 -23 34.5t-120 39.5q-2 1 -6.5 2t-7.5 2t-4 2v72q235 -10 254 -10q41 0 241 10v-72q-12 -6 -24 -6q-47 -11 -74 -21.5t-46.5 -33t-28 -40t-27.5 -65.5q-6 -15 -53.5 -132.5t-55.5 -139.5q-151 -376 -338 -877l-22 -61h-90q-143 381 -271 705q-86 219 -144.5 364.5
t-64.5 159.5q-27 64 -56 88t-112 45q-28 7 -49 14z" />
    <glyph glyph-name="W" unicode="W" horiz-adv-x="2174" 
d="M12 1335v72q147 -10 305 -10q48 0 383 10v-72q-20 -5 -29 -7t-30.5 -8.5t-33 -12.5t-25.5 -14t-20.5 -19t-6.5 -23q0 -18 10 -49l117 -354q101 -312 133 -402q2 2 19 43q0 4 194 504q0 3 5.5 18t8.5 19l-12 29q-23 64 -33.5 92.5t-28 62.5t-27 45t-32 26.5t-43 22
t-59.5 17.5q-5 2 -16 5.5t-13 4.5v72q235 -10 350 -10q62 0 340 10v-72q-6 -6 -24 -6q-86 -21 -110.5 -35t-24.5 -41q0 -29 10 -49l108 -334q37 -117 136 -411h4l22 69q48 132 119 349q5 19 98 317q13 46 13 61q0 27 -27.5 41.5t-97.5 30.5q-28 6 -33 8v72q148 -10 242 -10
q55 0 262 10v-72q-109 -22 -145 -50t-66 -118q-34 -94 -86 -233q-108 -284 -348 -975h-95q-94 312 -290 821l-27 70q-216 -545 -340 -891h-92l-121 342q-128 371 -213 588q-7 20 -49.5 132t-50.5 134q-31 86 -64 116.5t-123 51.5z" />
    <glyph glyph-name="X" unicode="X" horiz-adv-x="1579" 
d="M57 1335v72q220 -10 379 -10q141 0 361 10v-72q-110 -21 -136 -36q-24 -13 -24 -33q0 -31 35 -80l67 -111q69 -107 95 -147q1 -4 26 -41l29 37q84 104 227 301q0 1 5 7.5t9.5 14t8.5 17t4 16.5q0 20 -33 27q-28 7 -129 28v72q225 -10 276 -10q23 0 267 10v-72
q-106 -19 -155.5 -47.5t-119.5 -113.5q-22 -31 -137 -168q-141 -170 -182 -228q18 -27 26 -43q69 -115 152 -241l170 -256q41 -63 67.5 -89t68 -44t134.5 -42v-73q-60 3 -149 6q-122 4 -223 4q-180 0 -345 -10v73q82 16 116 30.5t34 37.5q0 15 -44 87.5t-75 119.5l-127 203
q-141 -169 -282 -361q-29 -39 -29 -55q0 -25 35 -35q70 -19 135 -27v-73q-45 3 -125 6q-94 4 -162 4q-126 0 -278 -10v73q105 15 148 33t102 84q40 45 102.5 119.5t112 135t97 119t52.5 64.5q6 12 23 29q-163 264 -330 516q-53 81 -99 108.5t-180 63.5z" />
    <glyph glyph-name="Y" unicode="Y" horiz-adv-x="1536" 
d="M2 1335v72q28 0 179.5 -5t176.5 -5q43 0 113.5 2t146.5 4.5t99 3.5v-72q-7 -3 -35 -8q-28 -7 -41 -10.5t-34 -11t-30.5 -17.5t-9.5 -22q0 -16 17 -41q22 -33 69.5 -118.5t57.5 -102.5q95 -169 127 -222q4 -12 26 -45l162 295q129 226 129 246q0 18 -23 27.5t-96 23.5
q-27 5 -28 6v72q254 -10 272 -10q10 0 260 10v-72q-125 -25 -169 -51t-97 -108q-32 -48 -320 -527q-9 -9 -28 -47v-319q0 -95 4 -127q6 -38 37 -51t149 -35q4 -1 12 -2.5t13.5 -3t7.5 -1.5v-73q-176 5 -197 6q-126 4 -174 4q-42 0 -205.5 -5t-179.5 -5v73q3 0 21.5 4t25.5 5
q39 6 59 9t43.5 11t32.5 11t20.5 18.5t13.5 24t5.5 35.5t3.5 45.5v62.5v295q-4 4 -46 71t-91 146t-59 94q-86 138 -174 276q-54 83 -97.5 112t-148.5 52z" />
    <glyph glyph-name="Z" unicode="Z" horiz-adv-x="1323" 
d="M209 1010h-82q20 178 29 397q272 -10 536 -10q131 0 561 10v-84q-141 -191 -610 -879q-174 -256 -215 -325h442q53 0 80 1t61.5 9.5t51.5 24.5q74 68 127 241h90q-21 -102 -41 -192q-22 -113 -27 -172q-6 -12 -6 -41q-42 2 -282 6q-238 4 -267 4h-36q-138 0 -578 -10v80
q17 26 51 74.5t76 109.5q64 93 182 264q281 403 455 672q6 7 27 41t26 43h-405q-30 0 -43.5 -0.5t-36 -2.5t-32.5 -7t-26 -14.5t-24.5 -23.5t-20.5 -34.5t-21.5 -48t-19.5 -64.5q-11 -40 -22 -69z" />
    <glyph glyph-name="bracketleft" unicode="[" horiz-adv-x="747" 
d="M655 1444v-109h-190v-1640h190v-109q-172 6 -237 6q-40 0 -77 -1t-79 -2.5t-69 -2.5q2 67 3 145t1.5 175t1.5 149q2 464 0 731q-3 585 -6 658q153 -6 237 -6q61 0 225 6z" />
    <glyph glyph-name="backslash" unicode="\" horiz-adv-x="1153" 
d="M113 1397h198l729 -1463h-196z" />
    <glyph glyph-name="bracketright" unicode="]" horiz-adv-x="747" 
d="M92 -414v109h191v1640h-191v109q173 -6 238 -6q40 0 77 1t79 2.5t69 2.5q-2 -67 -3 -145t-1.5 -175t-1.5 -149q-2 -464 0 -731q3 -585 6 -658q-153 6 -238 6q-61 0 -225 -6z" />
    <glyph glyph-name="asciicircum" unicode="^" horiz-adv-x="1193" 
d="M150 678l411 719h82l404 -719h-160l-287 512l-297 -512h-153z" />
    <glyph glyph-name="underscore" unicode="_" horiz-adv-x="1024" 
d="M-12 -154h1048v-102h-1048v102z" />
    <glyph glyph-name="grave" unicode="`" horiz-adv-x="681" 
d="M483 1081h-88q-60 68 -155.5 170t-147.5 152l14 24q49 -2 123 -2q70 0 133 2q19 -57 58 -163q44 -131 63 -183z" />
    <glyph glyph-name="a" unicode="a" horiz-adv-x="1024" 
d="M221 621l-88 8q14 71 18.5 97.5t9.5 64.5t9 92q184 88 379 88q87 0 148 -23t91 -52t46 -83t18 -87t2 -93q0 -27 -2 -171.5t-2 -168.5t0.5 -36t2 -33t5 -32t10 -23.5t17 -18t24.5 -5.5q33 0 97 35l36 -57q-2 -2 -16.5 -13.5t-21.5 -15.5q-54 -38 -84 -57.5t-79.5 -40.5
t-88.5 -21q-122 0 -154 123q-2 -1 -10 -6.5t-13 -7.5q-97 -70 -148 -89.5t-114 -19.5q-52 0 -93.5 17t-67 44t-42.5 61.5t-23.5 67t-6.5 64.5q0 49 14.5 91t33.5 68t52.5 51t54.5 36.5t56 28.5q59 27 178 82.5t129 60.5q-1 26 -1.5 39.5t-3.5 38.5t-8.5 39t-16 32t-25 28
t-37 17t-51.5 7q-46 0 -83 -17.5t-65 -53.5t-46 -70t-40 -86zM598 539q-50 -23 -75.5 -35.5t-60.5 -32.5t-51.5 -36t-34 -39t-24 -50t-6.5 -61q0 -14 1.5 -29t8 -39.5t18 -43t34 -32.5t53.5 -14q37 0 75.5 25.5t49.5 76.5q5 19 7.5 48.5t3.5 70t1.5 67.5t0 72t-0.5 52z" />
    <glyph glyph-name="b" unicode="b" horiz-adv-x="1067" 
d="M-31 1247v70q191 42 396 141l49 -31q-19 -123 -24.5 -318.5t-2.5 -320.5q2 2 12.5 13t19.5 20.5t13 12.5q65 63 117.5 95.5t78 38t60.5 5.5q131 0 218 -106.5t87 -307.5q0 -119 -35.5 -219.5t-94.5 -168.5t-137 -115.5t-162 -69t-171 -21.5q-60 0 -117 10.5t-86 20.5
t-73 27q5 204 6 366q0 4 1 137.5t1.5 264.5t-0.5 256.5t-4 148.5q-5 57 -66 57q-37 0 -86 -6zM387 530v-397q28 -14 39 -19t37.5 -11.5t52.5 -6.5q203 0 203 336q0 41 -3.5 81.5t-15 90.5t-29.5 86.5t-51.5 62t-76.5 25.5q-156 0 -156 -248z" />
    <glyph glyph-name="c" unicode="c" horiz-adv-x="917" 
d="M834 616l-91 7q-2 25 -3.5 38t-6.5 43.5t-12.5 49t-21 44t-31.5 40.5t-45.5 25.5t-61.5 10.5q-64 0 -109.5 -34.5t-68 -90t-32 -109t-9.5 -108.5q0 -173 76.5 -270.5t193.5 -97.5q43 0 89 13t74 26.5t69 36.5l47 -76q-152 -119 -233 -159t-177 -40q-189 0 -300 130
t-111 333q0 111 35 210t99 175t163.5 121t220.5 45q145 0 303 -74q-28 -125 -29 -133q-10 -37 -20 -113z" />
    <glyph glyph-name="d" unicode="d" horiz-adv-x="1110" 
d="M535 1245v72q67 15 105.5 25t127 42.5t164.5 73.5l49 -35q-29 -254 -29 -659q0 -528 6 -567q6 -38 32.5 -45.5t117.5 -4.5v-71q-97 -14 -178.5 -32.5t-120.5 -32t-100 -36.5l-50 23q15 105 17 131q-111 -92 -175.5 -123t-125.5 -31q-132 0 -219.5 123t-87.5 314
q0 104 24.5 191.5t66.5 146.5t93 103t108 68.5t108 36t97 11.5t121 -21q0 21 1 76t1 80q0 39 -0.5 56t-4 40t-11 32t-21.5 16t-35 7q-25 0 -81 -10zM688 512v60t-1.5 55.5t-4 54t-7.5 46.5t-12.5 43t-19 32.5t-26.5 27t-35 15t-45 6.5q-41 0 -72.5 -18.5t-51 -50.5
t-32.5 -67t-19 -77.5t-8 -72t-2 -58.5q0 -155 47.5 -248.5t137.5 -93.5q25 0 45.5 7t35 17t26 30t19 35.5t12.5 45t7.5 48t4 54t1.5 53.5v56z" />
    <glyph glyph-name="e" unicode="e" horiz-adv-x="960" 
d="M858 260l53 -76q-114 -96 -225 -159q-59 -34 -100 -47t-111 -13q-80 0 -145.5 22.5t-106.5 56.5t-72 82.5t-46 91.5t-24 92.5t-11 77.5t-2 54q0 110 34.5 207.5t96.5 171t156 116t206 42.5q67 0 121 -14t89 -35.5t61 -53t40 -62t22.5 -66.5t11.5 -62.5t5 -54.5v-4
q-56 -36 -94 -74q-57 2 -213 2q-174 0 -266 -2q-1 -57 5.5 -110t25 -105.5t47 -91t75 -62.5t105.5 -24q54 0 107 17.5t81 34t74 48.5zM342 655q121 -4 301 7q-1 29 -2.5 45.5t-6.5 45.5t-14.5 46.5t-24 36t-39 27.5t-56.5 9q-142 0 -158 -217z" />
    <glyph glyph-name="f" unicode="f" horiz-adv-x="704" 
d="M838 1135l-86 6q-6 29 -8.5 41t-9.5 40t-13.5 41.5t-18.5 33.5t-25.5 30t-33.5 17.5t-43 7.5q-31 0 -54.5 -11.5t-39 -28t-26 -46.5t-16 -53.5t-8 -63.5t-3 -62.5t-0.5 -64.5v-86q89 -4 140 -2.5t122 12.5l16 -24q-29 -44 -63 -117q-105 14 -215 16q2 -160 2 -633
q2 -62 25.5 -83.5t115.5 -38.5q5 -1 13.5 -2.5t15 -3t8.5 -1.5v-69q-28 1 -85 3t-85 3q-114 4 -158 4q-123 0 -270 -10v69q95 25 118 42t27 69q8 121 8 651q-64 0 -145 -8v70q90 37 145 71q2 147 12 202.5t58 117.5q60 74 162 129t223 55q127 0 254 -45q-18 -68 -59 -278z
" />
    <glyph glyph-name="g" unicode="g" horiz-adv-x="1044" 
d="M1028 946l10 -18q-23 -35 -59 -115q-64 12 -129 12q16 -30 24 -47t16.5 -53t8.5 -76q0 -88 -37.5 -157t-97.5 -109t-126 -60t-132 -20q-42 0 -129 10q-62 -56 -62 -88q0 -49 201 -49q215 0 270 -2.5t101 -17.5q125 -41 125 -193q0 -97 -48.5 -174t-132.5 -123.5
t-189.5 -71t-225.5 -24.5q-192 0 -288.5 59.5t-96.5 141.5q0 32 13 52t52 44q89 54 146 100q-18 6 -31.5 11.5t-35.5 19t-36.5 29.5t-25.5 43t-11 59q0 33 9 49t36 39q100 77 150 123q-18 9 -26.5 13.5t-30.5 18.5t-35 26.5t-31.5 35.5t-28.5 48t-18 60.5t-8 75.5
q0 69 23.5 130.5t70.5 112.5t126.5 80.5t182.5 29.5q18 0 34.5 -1t28.5 -2t27.5 -4t22.5 -4.5t23 -6.5t19 -5.5t21 -7t19 -6.5q128 -3 185.5 -1t125.5 13zM383 664q0 -21 1 -44.5t9 -68.5t21.5 -78.5t41.5 -59.5t66 -26q115 0 115 227q0 33 -2 63t-10 70.5t-22 69t-40 48.5
t-61 20q-119 0 -119 -221zM344 -49q-94 -70 -94 -139q0 -18 11 -39t34.5 -42.5t70 -35.5t109.5 -14q125 0 223.5 48.5t98.5 129.5q0 54 -56 73q-29 9 -68.5 11t-191.5 2q-44 0 -137 6z" />
    <glyph glyph-name="h" unicode="h" horiz-adv-x="1150" 
d="M16 1249v72q145 34 222 60t172 77l49 -31q-27 -249 -27 -647q118 119 176 154t142 35q232 0 243 -238q4 -74 4 -432v-55t1.5 -43t1.5 -35t4.5 -26t6 -20.5t10.5 -14t13.5 -12t19.5 -7.5t23.5 -8t30.5 -8q5 -1 15 -4t16 -4.5t8 -2.5v-69q-47 3 -121 6q-94 4 -147 4
q-113 0 -265 -10v69q33 9 45.5 12.5t30.5 11t23.5 14t12.5 19.5t8 29t1 41q0 445 -6 478q-17 114 -125 114q-25 0 -52 -8.5t-59.5 -38.5t-46.5 -78q-14 -43 -14 -258q0 -247 8 -272q5 -16 13.5 -27t25.5 -18t30 -10t42 -9v-69q-37 3 -111 6q-82 4 -135 4q-74 0 -289 -10v69
l25 7q76 20 93 32.5t24 61.5q10 63 10 583l-2 453q-1 29 -17.5 45t-44.5 16q-52 0 -88 -8z" />
    <glyph glyph-name="i" unicode="i" horiz-adv-x="641" 
d="M39 774v72q232 41 391 139l51 -29q-13 -118 -16 -192.5t-8 -374.5q-2 -144 1.5 -204t16.5 -76q12 -12 37.5 -21.5t95.5 -28.5v-69q-72 4 -104 6q-82 4 -150 4q-86 0 -321 -10v69q2 0 6.5 1.5t10.5 3t9 2.5q82 19 102 33.5t23 60.5q9 190 9 383q0 162 -10 199.5t-56 37.5
q-34 0 -88 -6zM328 1444q67 0 114 -47t47 -115q0 -67 -47.5 -114.5t-113.5 -47.5t-114 48t-48 114q0 67 48 114.5t114 47.5z" />
    <glyph glyph-name="j" unicode="j" horiz-adv-x="598" 
d="M23 774v68q145 36 228.5 67t168.5 76l47 -31q-14 -129 -18.5 -276t-6.5 -490q0 -144 -14.5 -241t-34 -141t-51.5 -85q-60 -72 -150 -111.5t-184 -39.5q-78 0 -166 37q26 109 31 274h88l3 -37.5t5 -41.5t11 -46t18 -36.5t28.5 -29t39.5 -9.5q64 0 88 81q15 45 19.5 158
t4.5 416q0 344 -4 391q-3 57 -65 57q-4 0 -86 -10zM315 1444q67 0 115.5 -47.5t48.5 -116.5t-48 -116.5t-116 -47.5q-67 0 -115 48t-48 116q0 70 48 117t115 47z" />
    <glyph glyph-name="k" unicode="k" horiz-adv-x="1110" 
d="M16 1251v66q139 33 226 65t172 76l47 -33q-18 -146 -21.5 -290t-5.5 -619l31 31q176 190 225 246q12 15 12 32q0 43 -94 49v72q167 -10 248 -10q83 0 240 10v-72q-52 -9 -76.5 -15.5t-63 -22.5t-75.5 -44.5t-91 -76t-133 -123.5q5 -6 13.5 -18t14.5 -21t9 -12
q22 -32 79.5 -112t72.5 -101q50 -69 70.5 -98t50 -65t40 -45.5t35 -25t40.5 -20.5t51 -15v-69l-132 6q-94 4 -133 4q-116 0 -198 -8l-62 -2v69q7 0 19 4q43 9 43 37q0 14 -15 39q-21 40 -92 148l-106 174q-10 10 -19 33h-4v-218q0 -143 12 -170.5t84 -42.5q16 -4 23 -4v-69
q-47 3 -117 6q-90 4 -149 4q-109 0 -219 -8l-52 -2v69q103 22 127 50q27 31 27 325v705q-1 34 -1.5 47t-4.5 31.5t-11.5 24.5t-20.5 10.5t-34 4.5q-35 0 -82 -6z" />
    <glyph glyph-name="l" unicode="l" horiz-adv-x="618" 
d="M23 1249v72q133 31 213.5 58t181.5 79l49 -35q-29 -256 -29 -696q0 -565 8 -598q6 -22 36.5 -37.5t103.5 -32.5v-69q-42 3 -115 6q-94 4 -168 4q-135 0 -287 -10v69q103 24 127 44.5t27 97.5q6 119 6 561q0 411 -6 448q-7 47 -68 47q-27 0 -79 -8z" />
    <glyph glyph-name="m" unicode="m" horiz-adv-x="1705" 
d="M12 768v68q218 41 398 137l47 -25q-14 -83 -19 -168l4 -4q3 13 33 43q72 81 126 116.5t136 35.5q46 0 83.5 -9t62.5 -27.5t42 -35.5t29.5 -44t17.5 -41t11 -38q31 36 46 53t50.5 49.5t63.5 48.5t70.5 30t86.5 14q18 0 39.5 -3.5t54.5 -13t63.5 -33t49.5 -57.5
q18 -30 26.5 -80t10 -88.5t2.5 -134.5q0 -282 4 -401q0 -40 17.5 -56.5t85.5 -33.5l41 -11v-69q-52 3 -119 6q-90 4 -150 4q-67 0 -262 -10v69l17 4q53 15 71 26.5t25.5 36.5t9.5 91q0 416 -4 447q-14 57 -33 80q-30 36 -86 36q-17 0 -34.5 -4t-44 -16t-49.5 -41.5
t-36 -73.5q-12 -45 -12 -313q0 -203 14 -223q10 -17 31.5 -26.5t73.5 -23.5v-69q-33 3 -94 6q-78 4 -144 4q-62 0 -262 -10v69q2 0 12 3t15 4q42 10 59 21t25 32q10 25 10 323q0 195 -12 249q-15 70 -67 84q-19 5 -44 5q-36 0 -65 -12.5t-47 -29.5t-31 -47.5t-19 -54.5
t-9.5 -63t-4 -60t-0.5 -58q0 -318 8 -338q6 -17 26.5 -29.5t36.5 -17t48 -11.5v-69q-35 2 -119 6q-94 4 -147 4q-118 0 -220 -8l-49 -2v69q73 16 103 27.5t37 32.5q8 25 12 164t4 221q0 198 -4 221q-12 51 -74 51q-20 0 -48.5 -4t-29.5 -4z" />
    <glyph glyph-name="n" unicode="n" horiz-adv-x="1150" 
d="M14 764v74q146 30 231 62t163 75l53 -31q-16 -85 -21 -162l4 -4q50 58 74.5 84t62.5 56.5t74.5 41.5t83.5 11q24 0 49.5 -4.5t59.5 -16t64.5 -38t48.5 -64.5q15 -29 21.5 -76t7.5 -90t1 -160q0 -358 4 -389q3 -27 22.5 -39.5t84.5 -25.5q28 -5 37 -9v-69q-41 2 -127 6
t-131 4q-70 0 -275 -10v69q55 12 77.5 23t31.5 31q12 31 12 362q0 67 -0.5 97t-4 74t-11 62t-21 38.5t-34.5 27t-52 6.5q-94 0 -147 -102q-17 -31 -22 -97t-5 -214q0 -213 10 -250q5 -15 20.5 -25.5t59.5 -23.5q5 -1 17 -5t14 -4v-69q-47 3 -111 6q-82 4 -143 4
q-38 0 -283 -10v69q116 30 127 43q27 29 27 338q0 256 -4 283q-11 51 -62 51q-35 0 -88 -10z" />
    <glyph glyph-name="o" unicode="o" horiz-adv-x="1130" 
d="M74 485q0 74 17.5 143.5t57 134t97 112t143 76t189.5 28.5q223 0 351 -124t128 -349q0 -76 -14 -147.5t-49.5 -144.5t-90 -127t-144 -88t-202.5 -34q-247 0 -367 141q-116 138 -116 379zM373 539q0 -54 3 -103.5t11 -106.5t23 -102.5t37 -84t56 -60t77 -21.5
q55 0 92.5 30.5t55.5 86.5t25 113.5t7 132.5q0 461 -205 461q-182 0 -182 -346z" />
    <glyph glyph-name="p" unicode="p" horiz-adv-x="1110" 
d="M8 762v69q2 1 15.5 4.5t15.5 4.5q127 31 195.5 55.5t168.5 77.5l50 -25q-13 -78 -17 -155l4 -5q0 6 27 33l23 23l23.5 23.5t21.5 20.5t24 20.5t23 17t26 16.5t26.5 11.5t30.5 10t31.5 5t36.5 2.5q144 0 227.5 -123t83.5 -307q0 -130 -43.5 -239.5t-113 -179.5
t-153 -108.5t-167.5 -38.5q-77 0 -143 35q0 -218 6 -286q2 -23 21 -39t40 -23t57.5 -16.5t55.5 -16.5v-69q-180 10 -293 10q-127 0 -307 -10v69q139 28 152 86q10 41 10 525q0 458 -10 491q-12 39 -64 39q-37 0 -84 -8zM424 496v-353q27 -20 40 -29t45 -21.5t64 -12.5
q193 0 193 348q0 165 -49 255.5t-131 90.5q-162 0 -162 -278z" />
    <glyph glyph-name="q" unicode="q" horiz-adv-x="1067" 
d="M922 979l61 -33q-23 -95 -30 -188.5t-7 -380.5q0 -599 10 -656q5 -25 25 -41.5t40.5 -23.5t80.5 -23q9 -3 14 -4v-69q-180 10 -315 10q-113 0 -293 -10v69q48 11 73 17.5t48.5 16.5t32 17.5t15.5 25t8 33.5t1 48v344q-110 -96 -174.5 -126t-120.5 -30q-71 0 -128 26.5
t-93 69.5t-60 101t-34 118t-10 124q0 119 34.5 216.5t88.5 159t124 104t137.5 60t131.5 17.5q57 0 109.5 -16t75.5 -29.5t60 -38.5q27 22 36.5 30.5t24.5 23.5t34 38zM684 535v3q0 48 -0.5 71.5t-3 63.5t-8 60t-16.5 46.5t-26.5 39t-39.5 22t-55 9.5q-47 0 -83 -26.5
t-55 -64t-31 -87t-15 -86t-3 -70.5t2.5 -70t14 -90t30 -94.5t55 -70t85.5 -29.5q34 0 59 11.5t41.5 37t26.5 54.5t14.5 76t6 88.5t1.5 105.5z" />
    <glyph glyph-name="r" unicode="r" horiz-adv-x="788" 
d="M16 766v70q114 25 201 53.5t120 44.5t75 39l47 -27q-17 -108 -19 -227l4 -4q35 57 54 85.5t45.5 62.5t48 49t50.5 25.5t63 10.5q42 0 100 -24q-30 -117 -49 -258h-68q-1 9 -4 18.5t-10.5 24.5t-23.5 24.5t-38 9.5q-84 0 -147 -143q-21 -47 -26 -88t-5 -127
q0 -162 1.5 -199.5t8.5 -56.5q6 -20 29 -31t98 -28q7 -2 22 -6t17 -5v-69q-51 3 -137 6q-102 4 -170 4q-129 0 -287 -10v69q116 25 134 52q24 37 24 415q0 169 -10 208.5t-58 39.5q-19 0 -90 -8z" />
    <glyph glyph-name="s" unicode="s" horiz-adv-x="831" 
d="M84 319h90q48 -253 227 -253q62 0 96.5 33t34.5 77q0 25 -11 47.5t-25 39t-48 40t-57.5 38t-75.5 44.5q-125 72 -181 140.5t-56 160.5q0 123 99 208t284 85q135 0 274 -59q-10 -39 -13.5 -71t-14.5 -179l-89 2q-19 102 -63 159.5t-125 57.5q-50 0 -83.5 -27t-33.5 -76
q0 -26 9 -45.5t53.5 -56t130.5 -84.5q94 -53 146 -94t82 -94.5t30 -122.5q0 -16 -1.5 -32.5t-10 -51t-23 -63.5t-45.5 -63t-72.5 -58t-107.5 -40t-148 -16q-24 0 -47.5 1.5t-41.5 3t-40 5t-34.5 5.5t-34 7t-29.5 7t-30.5 8t-28.5 8l2 47q9 114 12 262z" />
    <glyph glyph-name="t" unicode="t" horiz-adv-x="704" 
d="M694 936l13 -14q-26 -44 -58 -115q-90 8 -231 16q-8 -252 -8 -393v-55t1.5 -50.5t4.5 -50t8 -41.5t13.5 -38t20 -27t28.5 -19.5t38 -5.5q35 0 125 37l35 -71q-27 -18 -41 -25q-89 -55 -152.5 -82t-134.5 -27q-96 0 -150 59.5t-54 174.5q0 29 3 185.5t3 183.5q6 244 6 245
q-81 2 -144 0v74q30 11 51.5 20.5t59.5 35t71 58.5t75.5 91t82.5 133h89q-27 -188 -31 -299q98 -2 276 0z" />
    <glyph glyph-name="u" unicode="u" horiz-adv-x="1130" 
d="M1130 143v-73q-153 -20 -236 -43t-163 -58l-47 31q11 65 16 143q-111 -103 -164 -135.5t-126 -32.5q-125 0 -193 70q-41 46 -50 106t-9 234q0 245 -2 308t-11 89q-7 28 -38.5 40t-108.5 18v67q105 7 192 21t115 21.5t86 23.5l47 -29q-22 -143 -22 -459q0 -63 1 -101
t5.5 -80t13 -65.5t23 -44t36 -28.5t52.5 -8q72 0 117 51q32 34 39 89.5t10 276.5q2 107 -2 159t-11 65.5t-24 19.5q-30 12 -119 21v67q170 16 245.5 29.5t149.5 36.5l47 -29q-10 -59 -14.5 -103t-8 -163t-3.5 -320q0 -154 10.5 -185.5t63.5 -31.5z" />
    <glyph glyph-name="v" unicode="v" horiz-adv-x="1087" 
d="M35 874v70q185 -10 280 -10q113 0 271 10v-70q-6 -3 -35 -8q-25 -5 -37.5 -9t-25.5 -15.5t-13 -28.5q0 -22 68 -211q11 -29 88 -244q10 26 23 64l26 76l39 108q65 172 65 205q0 22 -15.5 33t-54.5 25q-9 3 -14 5v70q29 -3 80 -6q62 -4 101 -4q37 0 174 14v-69
q-55 -19 -82 -35.5t-45 -46.5q-21 -37 -166 -406q-164 -416 -168 -426h-84l-27 70l-145 356q-100 240 -105 254q-33 91 -53.5 128.5t-42.5 53.5t-76 37q-20 4 -26 10z" />
    <glyph glyph-name="w" unicode="w" horiz-adv-x="1685" 
d="M41 874v70q147 -10 272 -10q115 0 267 10v-70q-1 -1 -21 -6q-37 -9 -56.5 -21.5t-19.5 -35.5q0 -17 21 -78l145 -397l156 350q-6 9 -21 49q-29 77 -52 98.5t-95 40.5v70q114 -5 154 -8q24 -2 120 -2q65 0 265 10v-70q-19 -4 -28 -5.5t-25.5 -5.5t-24.5 -8t-17.5 -10
t-13.5 -14t-4 -18q0 -21 18 -70l138 -381h4l127 367l4 14q4 10 6 13q12 36 12 55q0 11 -1.5 16.5t-13 15.5t-34.5 19q-18 4 -33 12v70q95 -10 180 -10q48 0 175 10v-70l-35 -10q-52 -14 -72 -38t-49 -97l-303 -764h-86q-82 211 -236 576l-258 -576h-86l-291 711q-1 1 -3.5 7
t-4.5 9q-1 3 -2.5 7t-2.5 6.5t-1 3.5q-18 44 -28.5 65t-34 40.5t-40.5 27.5t-71 32z" />
    <glyph glyph-name="x" unicode="x" horiz-adv-x="1087" 
d="M59 874v70q21 -1 72.5 -4t75.5 -4q28 0 68.5 -1t48.5 -1q120 0 208 6l60 4v-70q-1 0 -11.5 -1.5t-16 -3t-16.5 -4t-17 -5.5t-13 -7.5t-10.5 -10.5t-3.5 -13q0 -6 8 -24t21.5 -42.5t25 -45t26 -44.5t17.5 -30q141 148 141 193q0 3 -0.5 6t-2.5 5t-3.5 4t-5.5 4t-7 3
t-9.5 3.5t-11 3.5t-13.5 4t-16 5v70q75 -10 182 -10q110 0 182 10v-70q-74 -14 -107 -29.5t-75 -68.5q-11 -15 -72 -90t-65 -80q-24 -32 -37 -45l29 -51q142 -253 191 -323t99 -99q23 -15 72 -29v-69q-44 3 -100 6q-82 4 -152 4q-126 0 -291 -10v69q95 18 95 56q0 9 -7.5 27
t-21 43t-24.5 44t-27 45.5t-19 32.5l-34 62q-2 -3 -7 -9t-13 -15t-11 -13q-164 -194 -164 -221q0 -35 106 -52v-69q-19 1 -106 6q-66 4 -92 4q-73 0 -193 -10v69q20 1 32 3t31.5 9t40 24t44.5 44q33 38 105.5 127.5t109.5 132.5l41 47l-31 56q-48 89 -118.5 197.5
t-104.5 136.5q-12 9 -27 16t-23.5 9.5t-28 7t-24.5 5.5z" />
    <glyph glyph-name="y" unicode="y" horiz-adv-x="1024" 
d="M2 874v70q165 -10 281 -10q97 0 272 10v-70q-8 -4 -25 -4q-54 -9 -72 -20t-18 -31q0 -13 23 -65l149 -375l119 352q19 55 19 86q0 23 -18 34t-62 23v70q112 -10 186 -10q99 0 164 10v-70q-5 -2 -20 -7t-19 -6.5t-15.5 -6t-15 -6.5t-12 -6t-12 -7.5t-9.5 -8.5t-10 -10.5
t-8 -12.5q-10 -17 -35 -79.5t-48 -123t-53.5 -143t-37.5 -101.5q-134 -359 -176.5 -462t-87.5 -175q-43 -69 -113 -109t-141 -40q-36 0 -90 12q-21 76 -36 114.5t-48 104.5l57 37q29 -27 47.5 -41t48.5 -26.5t62 -12.5q34 0 62.5 10.5t51 33t38.5 43.5t32.5 58.5t25 59.5
t23.5 64l-88 200q-30 66 -59 138q-18 45 -87 199.5t-77 168.5q-17 37 -30 58t-35.5 36.5t-40 23t-62.5 23.5z" />
    <glyph glyph-name="z" unicode="z" horiz-adv-x="980" 
d="M209 631h-84q13 105 16 315q200 -10 389 -10q195 0 385 10v-82q-2 -2 -206 -303q-9 -15 -18.5 -29t-18 -25.5t-10.5 -14.5l-256 -379q191 2 235.5 3.5t71.5 8.5q39 11 54.5 50t37.5 149h92q-12 -129 -12 -334q-62 3 -168 6q-136 4 -240 4q-206 0 -414 -10v76q3 4 10 14.5
t17.5 25t15.5 21.5q16 22 420 618l49 72q-169 -2 -209 -3.5t-65 -8.5q-29 -10 -49 -45t-43 -129z" />
    <glyph glyph-name="braceleft" unicode="{" horiz-adv-x="811" 
d="M719 1386v-45q-96 -18 -145.5 -67.5t-49.5 -120.5q0 -22 3 -49.5t6.5 -46t8 -40.5t5.5 -26q26 -98 26 -174q0 -115 -90 -205q-48 -50 -99.5 -74.5t-137.5 -45.5v-5q90 -27 143 -54t98 -75q36 -37 57.5 -82.5t26 -70.5t4.5 -47q0 -62 -24 -158q-25 -100 -25 -170
q0 -45 16 -80t36.5 -54.5t51.5 -34t48.5 -19t40.5 -9.5v-47q-86 -2 -157.5 19t-117.5 55.5t-78 78.5t-45.5 86.5t-13.5 82.5q0 41 11.5 99t19.5 85q22 91 22 156q0 174 -194 209v61q54 9 93 31.5t57.5 46.5t29.5 56t12.5 48.5t1.5 34.5q0 71 -20 150q-31 105 -31 178
q0 9 1.5 22t10 45t23 62t45.5 65t72.5 61.5t108.5 45.5t149 22z" />
    <glyph glyph-name="bar" unicode="|" horiz-adv-x="1153" 
d="M483 1397h187v-1702h-187v1702z" />
    <glyph glyph-name="braceright" unicode="}" horiz-adv-x="811" 
d="M92 -414v45q96 18 145.5 68t49.5 121q0 22 -3 49.5t-6.5 46t-8 40.5t-5.5 26q-26 98 -26 174q0 114 90 204q48 51 99.5 75.5t137.5 45.5v4q-90 27 -143 54t-98 75q-36 37 -57.5 82.5t-26 71t-4.5 47.5q0 62 24 158q25 100 25 170q0 45 -16 80t-36 54.5t-52 34t-48.5 18.5
t-40.5 9v47q86 2 157.5 -19t117.5 -55t78 -78t45.5 -86.5t13.5 -82.5q0 -41 -11.5 -99t-19.5 -85q-22 -91 -22 -156q0 -174 194 -209v-61q-54 -9 -93 -31.5t-57.5 -46.5t-29.5 -56t-12.5 -48.5t-1.5 -34.5q0 -71 20 -150q31 -105 31 -178q0 -9 -1.5 -22t-10 -45.5t-23 -62
t-45.5 -65t-72.5 -62t-108.5 -45.5t-149 -22z" />
    <glyph glyph-name="asciitilde" unicode="~" 
d="M1169 844h64q-3 -84 -25.5 -148.5t-53 -100t-69.5 -57.5t-70.5 -29t-62.5 -7q-64 0 -133 21t-244 95q-144 62 -206 62q-143 0 -172 -178h-64q6 141 51 215q40 67 100.5 97t118.5 30q35 0 63 -4t112.5 -31.5t209.5 -81.5q94 -41 134.5 -52t72.5 -11q38 0 71.5 13.5
t64.5 56t38 110.5z" />
    <glyph glyph-name="uni00A0" unicode="&#xa0;" horiz-adv-x="522" 
 />
    <glyph glyph-name="exclamdown" unicode="&#xa1;" horiz-adv-x="704" 
d="M217 -494l-49 39q58 313 133 916q1 5 5 38t5 38h92q78 -637 127 -920q-181 -57 -313 -111zM354 625q-71 0 -123.5 51.5t-52.5 124.5t52 125.5t124 52.5q74 0 126 -52.5t52 -125.5t-52.5 -124.5t-125.5 -51.5z" />
    <glyph glyph-name="cent" unicode="&#xa2;" horiz-adv-x="960" 
d="M494 1430h116v-234q88 1 162 -14.5t166 -55.5q-26 -97 -35.5 -145t-21.5 -143l-95 6q-3 48 -11 86t-17 63t-24.5 43.5t-28 28.5t-32 16.5t-31 8.5t-32.5 4v-707q48 -6 60 -6q39 0 83 14.5t69.5 28t66.5 37.5l49 -74q-65 -53 -104.5 -83t-103.5 -66t-120 -50v-227h-116
v227q-41 4 -69.5 9.5t-79 28t-91.5 59.5q-57 52 -90.5 128t-42 130.5t-8.5 107.5q0 113 39 216t110 180q40 42 87 73t76 42.5t69 23.5v244zM494 442v625q-25 -21 -39.5 -38t-37.5 -54t-34.5 -93t-11.5 -130q0 -208 123 -310z" />
    <glyph glyph-name="sterling" unicode="&#xa3;" horiz-adv-x="1110" 
d="M934 1092l-76 16v32.5t-3 38t-8 43.5t-16 39t-26.5 36t-40.5 22.5t-57 9.5q-75 0 -120.5 -57t-45.5 -158q0 -23 6.5 -90t14.5 -141t9 -86q152 -5 275 10l12 -21q-11 -18 -61 -116q-118 12 -211 12q4 -40 4 -115q0 -73 -15 -128.5t-50.5 -102.5t-72 -80.5t-100.5 -81.5
l4 -4q146 86 234 86q52 0 125 -29q77 -29 96.5 -35t40.5 -6q69 0 172 101l66 -60q-104 -140 -175 -201t-141 -61q-65 0 -205 51q-127 47 -182 47q-43 0 -98 -18.5t-87.5 -35t-80.5 -44.5l-58 94q46 32 70.5 50.5t60 49.5t54.5 59t38.5 67.5t27.5 87.5t8 106q0 70 -13 203
q-85 2 -198 -12l-15 20q32 53 58 111q66 -4 141 -4q-23 131 -23 202q0 80 21.5 147t58.5 113t83.5 80.5t99.5 54t102.5 29t97.5 9.5q62 0 114.5 -11t94.5 -32.5t61.5 -34t49.5 -35.5q-69 -107 -121 -227z" />
    <glyph glyph-name="currency" unicode="&#xa4;" horiz-adv-x="1409" 
d="M965 1053l129 131l120 -123l-129 -131q23 -36 36.5 -61.5t28.5 -81t15 -117.5q0 -139 -80 -258l129 -129l-120 -121l-129 127q-82 -49 -146 -65q-57 -15 -119 -15q-61 0 -117 16t-80.5 29t-58.5 35l-129 -127l-122 121l129 129q-22 34 -36 59.5t-29 81.5t-15 119
q0 139 80 258l-129 131l120 123l131 -131q119 80 261 80q136 0 260 -80zM991 672q0 118 -83.5 202t-202.5 84q-120 0 -204.5 -83.5t-84.5 -202.5q0 -120 84.5 -204.5t204.5 -84.5q119 0 202.5 84.5t83.5 204.5z" />
    <glyph glyph-name="yen" unicode="&#xa5;" horiz-adv-x="1536" 
d="M582 1225l280 -488l258 467q16 23 35 72q0 18 -24.5 28.5t-96.5 24.5q-27 5 -28 6v72q254 -10 272 -10q10 0 260 10v-72q-91 -14 -139 -36t-78.5 -58t-85.5 -125q-21 -34 -55.5 -90.5t-57 -93.5t-47.5 -79t-40 -71t-21 -45h434v-112h-512l-12 -21v-170h524v-112h-524v-89
v-42.5t4 -31.5t5 -23.5t11.5 -17t15.5 -12.5t25.5 -9t31.5 -8t43.5 -8.5t53.5 -10.5q4 -1 12 -2.5t13.5 -3t7.5 -1.5v-73q-176 5 -197 6q-126 4 -174 4q-42 0 -205.5 -5t-179.5 -5v73q3 0 21.5 4t25.5 5h1h1h1l1 1h1h1h1h1h2q98 14 124 29q37 21 43 87q1 17 1 38v95h-530
v112h530v152l-28 39h-502v112h432q-25 39 -139 221t-158 250q-26 41 -64.5 68t-73 38.5t-83.5 20.5v72q28 0 179.5 -5t176.5 -5q43 0 113.5 2t146.5 4.5t99 3.5v-72q-7 -3 -35 -8q-28 -7 -41 -10.5t-34 -11t-30.5 -17.5t-9.5 -22q0 -7 17 -41z" />
    <glyph glyph-name="brokenbar" unicode="&#xa6;" horiz-adv-x="1153" 
d="M483 422h187v-727h-187v727zM483 1397h187v-727h-187v727z" />
    <glyph glyph-name="section" unicode="&#xa7;" horiz-adv-x="960" 
d="M739 1096l-84 26q7 82 7 86q0 45 -17 78t-43 48t-49.5 21.5t-44.5 6.5q-62 0 -104 -37t-42 -90q0 -47 43 -95.5t197 -174.5q93 -76 151.5 -133.5t88.5 -106t40.5 -86t10.5 -84.5q0 -64 -19.5 -120.5t-59.5 -104.5t-77 -81.5t-94 -76.5q98 -79 143 -139.5t45 -143.5
q0 -61 -24 -117t-69 -101.5t-118.5 -73t-164.5 -27.5q-197 0 -351 129q59 97 66 113q49 96 66 125l73 -31q-10 -62 -10 -82q0 -41 16 -73t41.5 -48.5t51.5 -24.5t51 -8q59 0 97 34.5t38 86.5q0 57 -44 105.5t-210 185.5q-142 117 -206 208.5t-64 196.5q0 207 252 371
q-38 32 -62.5 54.5t-58 61.5t-51 81.5t-17.5 87.5q0 37 11.5 77.5t39 83.5t68.5 77t105.5 55.5t142.5 21.5q196 0 352 -121q-77 -143 -113 -241zM569 233q29 29 45 47.5t35 61.5t19 90q0 32 -7 58.5t-31.5 70t-83 102.5t-149.5 132q-104 -92 -104 -199q0 -40 13 -76.5
t44 -74.5t62 -68t86 -78q25 -20 71 -66z" />
    <glyph glyph-name="dieresis" unicode="&#xa8;" horiz-adv-x="681" 
d="M522 1378q55 0 93 -38t38 -91q0 -55 -38.5 -93t-92.5 -38t-92.5 38t-38.5 93q0 53 38 91t93 38zM162 1378q55 0 93 -38t38 -91q0 -55 -38.5 -93t-92.5 -38t-92.5 38t-38.5 93q0 53 38 91t93 38z" />
    <glyph glyph-name="copyright" unicode="&#xa9;" horiz-adv-x="1536" 
d="M1104 1106v-264h-39q-10 55 -34.5 96.5t-52 63t-60.5 35t-55.5 17t-43.5 3.5q-64 0 -112.5 -26t-75 -64t-43.5 -90t-22 -95t-5 -88q0 -93 12.5 -160t53.5 -120q33 -43 83 -69t105 -26q149 0 260 140v-72q-121 -127 -317 -127q-81 0 -155.5 26t-134.5 75t-96 128.5
t-36 178.5q0 197 128 318.5t312 121.5q85 0 197 -41q32 -12 47 -12q38 0 45 51h39zM768 1386q192 0 355.5 -94t259.5 -257t96 -357q0 -144 -56.5 -275.5t-151.5 -226.5t-226.5 -151t-276.5 -56q-115 0 -223.5 36t-195.5 101.5t-152.5 152.5t-101.5 195.5t-36 223.5
q0 194 96 357t259 257t354 94zM768 1298q-125 0 -239 -48.5t-197 -131t-132.5 -198t-49.5 -242.5q0 -168 82.5 -311t225 -226.5t310.5 -83.5t311 83.5t226.5 226.5t83.5 311q0 170 -84 313t-226.5 225t-310.5 82z" />
    <glyph glyph-name="ordfeminine" unicode="&#xaa;" horiz-adv-x="724" 
d="M186 1219l-80 6q22 107 25 157q125 56 254 56q43 0 77 -7.5t56 -18t37 -29.5t22.5 -34t11.5 -40t4.5 -39t0.5 -39q0 -16 -2 -100.5t-2 -98.5q0 -43 5.5 -62.5t22.5 -19.5q15 0 64 27l33 -47q-11 -6 -33 -23q-109 -69 -166 -69q-35 0 -64.5 17t-41.5 48q-50 -35 -85.5 -50
t-82.5 -15q-53 0 -89.5 18.5t-52 47t-21 50.5t-5.5 41q0 91 96 148q16 9 65.5 30t107 44t63.5 26q-1 19 -1.5 26t-2.5 24t-7 24.5t-13 18t-22 14.5t-32 4q-50 0 -80.5 -32.5t-61.5 -102.5zM406 1163q-78 -34 -108 -59.5t-30 -75.5q0 -9 1.5 -20t7 -27.5t19.5 -27.5t34 -11
q29 0 46 14t23 42t7 69.5t0 95.5z" />
    <glyph glyph-name="guillemotleft" unicode="&#xab;" horiz-adv-x="960" 
d="M803 834h102l-178 -373l178 -373h-102q-21 26 -27 29q-15 19 -73.5 84t-75.5 82q-57 65 -135 143q-29 29 -33 35q71 72 184 194q4 4 34 37.5t57 63.5t34 39q27 27 35 39zM401 834h103l-178 -373l178 -373h-103q-21 27 -26 29q-15 18 -73.5 83t-76.5 83q-57 65 -135 143
q-29 29 -33 35q84 84 185 194q4 4 34 37.5t57 63.5t34 39q24 24 34 39z" />
    <glyph glyph-name="logicalnot" unicode="&#xac;" 
d="M131 1028h1104v-661h-184v477h-920v184z" />
    <glyph glyph-name="registered" unicode="&#xae;" horiz-adv-x="1536" 
d="M389 1090h363q84 0 140.5 -8t78.5 -17t45 -25q90 -67 90 -170q0 -14 -1 -27t-10.5 -41.5t-26.5 -51.5t-53.5 -47.5t-86.5 -38.5l137 -250q48 -89 104 -99v-34h-241l-205 368h-47v-198q0 -83 21.5 -108t99.5 -28v-34h-424v34q29 -1 45 2t31 16t21.5 41.5t6.5 76.5v473
q0 79 -15.5 103t-72.5 28v35zM676 1047v-347q20 -4 57 -4q58 0 108 44.5t50 133.5q0 173 -176 173h-39zM768 1386q192 0 355.5 -94t259.5 -257t96 -357q0 -144 -56.5 -275.5t-151.5 -226.5t-226.5 -151t-276.5 -56q-115 0 -223.5 36t-195.5 101.5t-152.5 152.5t-101.5 195.5
t-36 223.5q0 194 96 357t259 257t354 94zM768 1298q-125 0 -239 -48.5t-197 -131t-132.5 -198t-49.5 -242.5q0 -168 82.5 -311t225 -226.5t310.5 -83.5t311 83.5t226.5 226.5t83.5 311q0 170 -84 313t-226.5 225t-310.5 82z" />
    <glyph glyph-name="macron" unicode="&#xaf;" horiz-adv-x="681" 
d="M-23 1286h730v-145h-730v145z" />
    <glyph glyph-name="macron" unicode="&#x2c9;" horiz-adv-x="681" 
d="M-23 1286h730v-145h-730v145z" />
    <glyph glyph-name="degree" unicode="&#xb0;" horiz-adv-x="811" 
d="M406 1432q143 0 244.5 -101.5t101.5 -245.5q0 -143 -102 -244.5t-244 -101.5q-143 0 -245 102t-102 244q0 144 102 245.5t245 101.5zM406 1300q-89 0 -152.5 -62.5t-63.5 -152.5q0 -89 63 -151t153 -62q89 0 152 62.5t63 150.5q0 90 -62.5 152.5t-152.5 62.5z" />
    <glyph glyph-name="plusminus" unicode="&#xb1;" 
d="M131 963h459v460h184v-460h461v-185h-461v-459h-184v459h-459v185zM131 156h1104v-185h-1104v185z" />
    <glyph glyph-name="twosuperior" unicode="&#xb2;" horiz-adv-x="704" 
d="M154 1171h-66q34 97 45 193q28 22 46 33.5t62.5 26t96.5 14.5q101 0 171.5 -51t70.5 -142q0 -42 -16 -84t-37 -75t-69.5 -83t-83.5 -82t-110 -98h139q61 0 86 4t38 14.5t30 39.5l12 20h62q-41 -102 -49 -127l-29 -82q0 -2 -10 -22q-153 6 -242 6q-119 0 -260 -6v55l37 35
q47 46 68 66.5t63 63.5t62 67t49.5 61.5t43.5 64t24.5 57t10.5 56.5q0 38 -26.5 70t-75.5 32q-94 0 -143 -127z" />
    <glyph glyph-name="threesuperior" unicode="&#xb3;" horiz-adv-x="704" 
d="M193 1221h-66q24 103 35 163q107 50 194 50q89 0 142 -41t53 -107q0 -52 -33 -94.5t-84 -63.5v-4q22 -2 44.5 -9.5t54 -25.5t51.5 -57.5t20 -95.5q0 -119 -94.5 -201t-255.5 -82q-81 0 -178 33q23 105 33 195h59q2 -22 3.5 -32.5t9 -35.5t18.5 -38.5t34 -25.5t54 -12
q55 0 85.5 42t30.5 106q0 76 -43 111.5t-96 35.5q-8 0 -25 -2t-20 -2v62q24 5 47 13.5t54 24.5t50 42.5t19 60.5q0 40 -25.5 62t-60.5 22q-24 0 -43 -8.5t-32.5 -26.5t-19.5 -28.5t-15 -30.5z" />
    <glyph glyph-name="acute" unicode="&#xb4;" horiz-adv-x="681" 
d="M575 1423l15 -24q-52 -50 -147.5 -152t-155.5 -170h-88q19 52 63 183q24 66 57 163q63 -2 134 -2q73 0 122 2z" />
    <glyph glyph-name="mu" unicode="&#xb5;" horiz-adv-x="1130" 
d="M127 936h258v-614q0 -113 25.5 -163t85.5 -50q40 0 72 19t67.5 56.5t46.5 46.5v705h262v-627q0 -13 -0.5 -34t-0.5 -32.5t0.5 -28.5t2 -26.5t4 -21.5t6.5 -18.5t10 -13t15 -9t20 -2.5q62 0 76 143h43q-2 -81 -28.5 -141t-58 -88t-73 -44.5t-62 -19t-36.5 -2.5
q-152 0 -198 158q-20 -23 -35.5 -38.5t-45.5 -40.5t-58.5 -40t-69 -27t-82.5 -12q-75 0 -144 58q0 -66 27 -168l29 -103q8 -27 8 -67q0 -57 -31 -94t-88 -37q-30 0 -51.5 11.5t-31.5 25t-16 33.5t-6.5 29t-0.5 19q0 31 6 62t32 131q12 47 17.5 98t6 84.5t-1 102t-1.5 104.5
v676z" />
    <glyph glyph-name="mu" unicode="&#x3bc;" horiz-adv-x="1130" 
d="M127 936h258v-614q0 -113 25.5 -163t85.5 -50q40 0 72 19t67.5 56.5t46.5 46.5v705h262v-627q0 -13 -0.5 -34t-0.5 -32.5t0.5 -28.5t2 -26.5t4 -21.5t6.5 -18.5t10 -13t15 -9t20 -2.5q62 0 76 143h43q-2 -81 -28.5 -141t-58 -88t-73 -44.5t-62 -19t-36.5 -2.5
q-152 0 -198 158q-20 -23 -35.5 -38.5t-45.5 -40.5t-58.5 -40t-69 -27t-82.5 -12q-75 0 -144 58q0 -66 27 -168l29 -103q8 -27 8 -67q0 -57 -31 -94t-88 -37q-30 0 -51.5 11.5t-31.5 25t-16 33.5t-6.5 29t-0.5 19q0 31 6 62t32 131q12 47 17.5 98t6 84.5t-1 102t-1.5 104.5
v676z" />
    <glyph glyph-name="paragraph" unicode="&#xb6;" horiz-adv-x="1110" 
d="M680 1280v-1722h-100v872q-53 2 -89 6t-100 16.5t-121 41.5t-102 73q-70 70 -98.5 161.5t-28.5 174.5q0 110 39.5 200.5t146.5 168.5q64 47 158 65.5t326 18.5h438v-43h-43q-31 0 -54 -5.5t-38.5 -13t-25.5 -24t-15.5 -29.5t-8 -39.5t-3 -43t-0.5 -50.5v-1550h-99v1722
h-182z" />
    <glyph glyph-name="periodcentered" unicode="&#xb7;" horiz-adv-x="704" 
d="M352 879q75 0 127.5 -53.5t52.5 -127.5t-52.5 -127t-127.5 -53t-127.5 53t-52.5 127t52.5 127.5t127.5 53.5z" />
    <glyph glyph-name="periodcentered" unicode="&#x2219;" horiz-adv-x="704" 
d="M352 879q75 0 127.5 -53.5t52.5 -127.5t-52.5 -127t-127.5 -53t-127.5 53t-52.5 127t52.5 127.5t127.5 53.5z" />
    <glyph glyph-name="cedilla" unicode="&#xb8;" horiz-adv-x="681" 
d="M303 10h82q-39 -62 -70 -102q54 -3 77.5 -36.5t23.5 -74.5q0 -195 -366 -184h-9v74q197 0 197 84q0 14 -8.5 26.5t-26.5 12.5l-35 -5l-14 45q13 9 23 17.5t17.5 15t17 16t14.5 15t16 19t16.5 20t20.5 26.5t24 31z" />
    <glyph glyph-name="onesuperior" unicode="&#xb9;" horiz-adv-x="704" 
d="M145 1274v47q170 52 285 113l33 -19q-14 -119 -14 -409q0 -209 4 -234q5 -18 23 -27.5t63 -15.5q16 -4 26 -4v-55q-160 8 -205 8q-18 0 -44.5 -1t-74.5 -3.5t-87 -3.5v55q28 5 41.5 7.5t32 8t27 12t11.5 15.5q8 24 8 373q0 69 -5 99.5t-12.5 36t-27.5 5.5q-18 0 -84 -8z
" />
    <glyph glyph-name="ordmasculine" unicode="&#xba;" horiz-adv-x="768" 
d="M55 1139q0 132 91.5 215.5t246.5 83.5q159 0 239.5 -83t80.5 -210q0 -61 -19 -116t-57.5 -102t-107 -74.5t-158.5 -27.5q-143 0 -229.5 80.5t-86.5 233.5zM272 1169q0 -35 3.5 -69.5t13.5 -85.5t37 -83t67 -32q103 0 103 207q0 135 -39 207q-24 53 -82 53
q-103 0 -103 -197z" />
    <glyph glyph-name="guillemotright" unicode="&#xbb;" horiz-adv-x="960" 
d="M158 88h-103l178 373l-178 373h103q21 -27 26 -29q15 -18 73.5 -83t76.5 -83q57 -65 135 -143q29 -29 33 -35q-72 -72 -185 -195q-4 -4 -34 -37.5t-56.5 -63t-33.5 -38.5q-27 -27 -35 -39zM559 88h-102l178 373l-178 373h102q21 -26 27 -29q15 -19 73.5 -84t75.5 -82
q57 -65 135 -143q29 -29 33 -35q-60 -60 -184 -195q-5 -5 -34.5 -37.5t-56.5 -62.5t-34 -39q-27 -27 -35 -39z" />
    <glyph glyph-name="onequarter" unicode="&#xbc;" horiz-adv-x="1685" 
d="M1178 -70v56q4 1 31 6t48.5 9.5t26.5 8.5q30 15 25 107q-185 0 -326 -6q2 71 0 135q113 130 170 198q92 104 156 191q50 15 75.5 27t71.5 43l31 -21q-14 -172 -14 -455q58 2 116 17l17 -23q-34 -64 -50 -108q-35 2 -83 2q-3 -40 0 -63t16.5 -36t29 -18t48.5 -10
q16 -4 22 -4v-56q-164 7 -207 7q-78 0 -204 -7zM1087 229h222v271h-4zM1169 1432h150l-803 -1512h-151zM164 1274v47q170 52 285 113l32 -19q-14 -119 -14 -409q0 -209 4 -234q5 -18 23 -27.5t63 -15.5q16 -4 27 -4v-55q-160 8 -205 8q-18 0 -45 -1t-75 -3.5t-87 -3.5v55
q29 5 42 7.5t31.5 8t27.5 12t12 15.5q8 24 8 373q0 69 -5 99.5t-12.5 36t-27.5 5.5q-18 0 -84 -8z" />
    <glyph glyph-name="onehalf" unicode="&#xbd;" horiz-adv-x="1685" 
d="M1169 1432h150l-803 -1512h-151zM164 1274v47q170 52 285 113l32 -19q-14 -119 -14 -409q0 -209 4 -234q5 -18 23 -27.5t63 -15.5q16 -4 27 -4v-55q-160 8 -205 8q-18 0 -45 -1t-75 -3.5t-87 -3.5v55q29 5 42 7.5t31.5 8t27.5 12t12 15.5q8 24 8 373q0 69 -5 99.5
t-12.5 36t-27.5 5.5q-18 0 -84 -8zM1118 436h-65q34 97 45 193q27 21 45.5 33t63 26t96.5 14q101 0 171 -50.5t70 -141.5q0 -35 -8.5 -67.5t-31 -68t-43.5 -63t-65 -70.5t-74.5 -71t-92.5 -82h139q86 0 108.5 8.5t45.5 48.5l12 21h61q-41 -102 -49 -127l-28 -82
q0 -1 -11 -23q-179 7 -241 7q-96 0 -260 -7v56l36 35q44 43 59.5 58.5l55.5 55.5t56.5 59t47 54t44 57.5t30 51t23 53t6.5 47.5q0 38 -26.5 70t-75.5 32q-95 0 -144 -127z" />
    <glyph glyph-name="threequarters" unicode="&#xbe;" horiz-adv-x="1685" 
d="M1178 -70v56q4 1 31 6t48.5 9.5t26.5 8.5q30 15 25 107q-185 0 -326 -6q2 71 0 135q113 130 170 198q92 104 156 191q50 15 75.5 27t71.5 43l31 -21q-14 -172 -14 -455q58 2 116 17l17 -23q-34 -64 -50 -108q-35 2 -83 2q-3 -40 0 -63t16.5 -36t29 -18t48.5 -10
q16 -4 22 -4v-56q-164 7 -207 7q-78 0 -204 -7zM1087 229h222v271h-4zM1169 1432h150l-803 -1512h-151zM211 1221h-66q24 103 35 163q107 50 195 50q89 0 141.5 -40.5t52.5 -107.5q0 -52 -32.5 -94.5t-83.5 -63.5v-4q22 -2 44.5 -9.5t54 -25.5t51.5 -57.5t20 -95.5
q0 -119 -95 -201t-256 -82q-81 0 -178 33q23 105 33 195h59q2 -22 3.5 -32.5t9 -35.5t18.5 -38.5t34 -25.5t54 -12q55 0 86 42t31 106q0 76 -43 111.5t-96 35.5q-8 0 -25 -2t-20 -2v62q24 5 47 13.5t54 24.5t50 42.5t19 60.5q0 40 -25.5 62t-60.5 22q-24 0 -43 -9t-32.5 -26
t-20 -28.5t-15.5 -30.5z" />
    <glyph glyph-name="questiondown" unicode="&#xbf;" horiz-adv-x="831" 
d="M702 -109h84q-35 -158 -45 -305q-186 -80 -325 -80q-82 0 -146 23t-100.5 56t-59.5 76.5t-30.5 79.5t-7.5 69q0 129 125 290l149 189q63 81 86 248h103q-3 -128 -27.5 -223t-99.5 -257q-58 -125 -58 -188q0 -74 44 -117t110 -43q36 0 66.5 12.5t48.5 27t36 44.5
t25.5 46.5t21.5 51.5zM469 623q-73 0 -125.5 52t-52.5 126t52.5 126t125.5 52t124.5 -51.5t51.5 -126.5q0 -74 -52.5 -126t-123.5 -52z" />
    <glyph glyph-name="Agrave" unicode="&#xc0;" horiz-adv-x="1599" 
d="M893 -10v73q7 0 27 5q28 5 38.5 7t30.5 6.5t27.5 8.5t17.5 11t13.5 15.5t3.5 20.5q0 19 -88 234q-3 7 -11.5 27t-9.5 24q-19 0 -100 1t-135 1q-37 0 -122 -1t-136 -1q-7 -26 -19 -45q-92 -224 -92 -244q0 -29 24.5 -40t112.5 -25l21 -5v-73q-34 3 -93 6q-78 4 -147 4
q-134 0 -252 -10v73q88 19 121.5 41.5t62.5 83.5q150 303 433 947l7 17.5t14 32.5t15 36l97 217h80q109 -271 301 -693q189 -417 258 -555q30 -58 58 -78t95 -36l51 -13v-73q-49 3 -129 6q-106 4 -194 4q-179 0 -381 -10zM899 537l-199 471l-204 -471q197 -2 403 0z
M942 1505h-88q-60 68 -155.5 170t-147.5 152l14 24q49 -2 123 -2q70 0 133 2q19 -57 58 -163q44 -131 63 -183z" />
    <glyph glyph-name="Aacute" unicode="&#xc1;" horiz-adv-x="1599" 
d="M893 -10v73q7 0 27 5q28 5 38.5 7t30.5 6.5t27.5 8.5t17.5 11t13.5 15.5t3.5 20.5q0 19 -88 234q-3 7 -11.5 27t-9.5 24q-19 0 -100 1t-135 1q-37 0 -122 -1t-136 -1q-7 -26 -19 -45q-92 -224 -92 -244q0 -29 24.5 -40t112.5 -25l21 -5v-73q-34 3 -93 6q-78 4 -147 4
q-134 0 -252 -10v73q88 19 121.5 41.5t62.5 83.5q150 303 433 947l7 17.5t14 32.5t15 36l97 217h80q109 -271 301 -693q189 -417 258 -555q30 -58 58 -78t95 -36l51 -13v-73q-49 3 -129 6q-106 4 -194 4q-179 0 -381 -10zM899 537l-199 471l-204 -471q197 -2 403 0z
M1034 1847l15 -24q-52 -50 -147.5 -152t-155.5 -170h-88q19 52 63 183q24 66 57 163q63 -2 134 -2q73 0 122 2z" />
    <glyph glyph-name="Acircumflex" unicode="&#xc2;" horiz-adv-x="1599" 
d="M893 -10v73q7 0 27 5q28 5 38.5 7t30.5 6.5t27.5 8.5t17.5 11t13.5 15.5t3.5 20.5q0 19 -88 234q-3 7 -11.5 27t-9.5 24q-19 0 -100 1t-135 1q-37 0 -122 -1t-136 -1q-7 -26 -19 -45q-92 -224 -92 -244q0 -29 24.5 -40t112.5 -25l21 -5v-73q-34 3 -93 6q-78 4 -147 4
q-134 0 -252 -10v73q88 19 121.5 41.5t62.5 83.5q150 303 433 947l7 17.5t14 32.5t15 36l97 217h80q109 -271 301 -693q189 -417 258 -555q30 -58 58 -78t95 -36l51 -13v-73q-49 3 -129 6q-106 4 -194 4q-179 0 -381 -10zM899 537l-199 471l-204 -471q197 -2 403 0z
M1116 1516h-104q-18 15 -94 71.5t-105 79.5q-1 0 -4.5 2.5t-9 6t-8.5 5.5q-10 -7 -39 -30t-61 -49.5t-37 -30.5q-16 -13 -35.5 -27.5t-34.5 -27.5h-100q2 2 10 13t10 13q85 127 188 293q111 -2 226 0q58 -112 198 -319z" />
    <glyph glyph-name="Atilde" unicode="&#xc3;" horiz-adv-x="1599" 
d="M893 -10v73q7 0 27 5q28 5 38.5 7t30.5 6.5t27.5 8.5t17.5 11t13.5 15.5t3.5 20.5q0 19 -88 234q-3 7 -11.5 27t-9.5 24q-19 0 -100 1t-135 1q-37 0 -122 -1t-136 -1q-7 -26 -19 -45q-92 -224 -92 -244q0 -29 24.5 -40t112.5 -25l21 -5v-73q-34 3 -93 6q-78 4 -147 4
q-134 0 -252 -10v73q88 19 121.5 41.5t62.5 83.5q150 303 433 947l7 17.5t14 32.5t15 36l97 217h80q109 -271 301 -693q189 -417 258 -555q30 -58 58 -78t95 -36l51 -13v-73q-49 3 -129 6q-106 4 -194 4q-179 0 -381 -10zM899 537l-199 471l-204 -471q197 -2 403 0z
M1061 1802h88q-56 -262 -198 -262q-50 0 -158 43q-131 51 -166 51q-23 0 -42 -18t-27.5 -34.5t-18.5 -41.5h-88q15 66 36 115.5t41.5 76.5t44 44t40.5 21.5t34 4.5q31 0 66.5 -10.5t120.5 -44.5q110 -43 145 -43q33 0 49.5 23t32.5 75z" />
    <glyph glyph-name="Adieresis" unicode="&#xc4;" horiz-adv-x="1599" 
d="M893 -10v73q7 0 27 5q28 5 38.5 7t30.5 6.5t27.5 8.5t17.5 11t13.5 15.5t3.5 20.5q0 19 -88 234q-3 7 -11.5 27t-9.5 24q-19 0 -100 1t-135 1q-37 0 -122 -1t-136 -1q-7 -26 -19 -45q-92 -224 -92 -244q0 -29 24.5 -40t112.5 -25l21 -5v-73q-34 3 -93 6q-78 4 -147 4
q-134 0 -252 -10v73q88 19 121.5 41.5t62.5 83.5q150 303 433 947l7 17.5t14 32.5t15 36l97 217h80q109 -271 301 -693q189 -417 258 -555q30 -58 58 -78t95 -36l51 -13v-73q-49 3 -129 6q-106 4 -194 4q-179 0 -381 -10zM899 537l-199 471l-204 -471q197 -2 403 0z
M981 1802q55 0 93 -38t38 -91q0 -55 -38.5 -93t-92.5 -38t-92.5 38t-38.5 93q0 53 38 91t93 38zM621 1802q55 0 93 -38t38 -91q0 -55 -38.5 -93t-92.5 -38t-92.5 38t-38.5 93q0 53 38 91t93 38z" />
    <glyph glyph-name="Aring" unicode="&#xc5;" horiz-adv-x="1599" 
d="M893 -10v73q7 0 27 5q28 5 38.5 7t30.5 6.5t27.5 8.5t17.5 11t13.5 15.5t3.5 20.5q0 19 -88 234q-3 7 -11.5 27t-9.5 24q-19 0 -100 1t-135 1q-37 0 -122 -1t-136 -1q-7 -26 -19 -45q-92 -224 -92 -244q0 -29 24.5 -40t112.5 -25l21 -5v-73q-34 3 -93 6q-78 4 -147 4
q-134 0 -252 -10v73q88 19 121.5 41.5t62.5 83.5q150 303 433 947l7 17.5t14 32.5t15 36l97 217h80q109 -271 301 -693q189 -417 258 -555q30 -58 58 -78t95 -36l51 -13v-73q-49 3 -129 6q-106 4 -194 4q-179 0 -381 -10zM899 537l-199 471l-204 -471q197 -2 403 0z
M801 1903q88 0 151.5 -63.5t63.5 -153.5q0 -88 -62.5 -151.5t-152.5 -63.5q-89 0 -153 63t-64 152q0 91 64 154t153 63zM801 1788q-43 0 -73.5 -29.5t-30.5 -72.5q0 -42 30 -72.5t74 -30.5q43 0 72.5 30.5t29.5 72.5t-30 72t-72 30z" />
    <glyph glyph-name="AE" unicode="&#xc6;" horiz-adv-x="2217" 
d="M721 1335v72q34 -1 138.5 -3.5t211.5 -4.5t201 -2q376 0 796 10q-2 -140 23 -360h-82l-12 32q-18 53 -30.5 87t-27.5 58.5t-25 36t-30.5 17.5t-34 7t-45.5 1h-395q-10 -202 -10 -498h225q38 0 56.5 2t40.5 12t34 32t24.5 59.5t24.5 97.5h82q-1 -23 -5.5 -147t-4.5 -131
q0 -77 10 -242h-82q-6 19 -10 51q-18 103 -47.5 127.5t-126.5 24.5h-221v-557h383q39 0 56 0.5t42.5 8t39 19t38 38.5t47.5 62.5t59 94.5l27 43h92q-3 -5 -14 -37q-69 -205 -103 -315q0 -13 -14 -41q-2 0 -305 6l-356 4q-46 0 -521 -10v73q101 15 148 27.5t63 34.5
q19 24 19 180v170h-527q-23 -29 -51 -76q-31 -42 -151 -223q-19 -27 -19 -45q0 -22 28 -35.5t126 -32.5v-73q-38 2 -121 6q-90 4 -135 4q-30 0 -145.5 -5t-124.5 -5v73q89 11 131 38t104 116q8 10 182 254q60 86 371 537q101 148 154 227q10 17 10 31q0 15 -12 20
q-27 14 -156 39zM641 588h459v690h-4q-2 -4 -11 -19t-19.5 -31.5t-12.5 -19.5q-223 -345 -412 -620z" />
    <glyph glyph-name="Ccedilla" unicode="&#xc7;" horiz-adv-x="1556" 
d="M1432 915h-109l-12 48q-30 114 -48 159.5t-51 81.5q-107 115 -307 115q-88 0 -160 -23t-121 -59.5t-86 -88t-58 -103t-34.5 -110.5t-17.5 -105t-4 -91q0 -133 33 -242t97.5 -189t166.5 -124.5t233 -44.5q217 0 426 125l52 -96q-279 -190 -553 -207q-31 -40 -45 -55
q15 -2 29.5 -4.5t36.5 -12t38 -22.5t27.5 -37t11.5 -55q0 -85 -97 -143t-294 -58q-58 0 -140 8v80q17 -3 64 -0.5t96.5 7t88 25.5t38.5 54q0 18 -14 30.5t-33 12.5q-17 0 -57 -10l-21 51q53 40 144 119q8 8 10 8v4q-152 6 -272.5 52.5t-195.5 116.5t-124 163t-68.5 185
t-19.5 190q0 113 25.5 218t87 206.5t153 176.5t234.5 121t321 46q141 0 258 -23t262 -69q-6 -49 -6 -132q0 -94 15 -299z" />
    <glyph glyph-name="Egrave" unicode="&#xc8;" 
d="M16 1335v72q215 -10 549 -10q308 0 652 10q2 -208 24 -365h-84l-18 50q-18 53 -27 77.5t-23 51t-23.5 35t-30.5 16.5t-41 9t-58 1h-383q-5 -144 -8 -491q64 -2 156.5 -1.5t121.5 3.5q24 2 35.5 5.5t28.5 18t30.5 48t26.5 89.5q0 15 8 39h84q-12 -126 -12 -258
q0 -128 12 -268h-84q-6 18 -6 41q-6 35 -10.5 56.5t-12.5 41.5t-12.5 30.5t-19 20t-23 13t-33 6t-40.5 2.5h-54h-196v-559h399q25 0 37.5 0.5t34 5t35 13t34.5 25t39.5 41.5t43.5 62t53 86l18 33h88q-53 -149 -108 -334q-1 -6 -8.5 -32.5t-8.5 -28.5q-105 3 -457 8
q-139 2 -256 2q-110 0 -473 -10v73q3 0 10 1.5t16 3l15 2.5q49 9 71 14t48.5 14t34.5 17t17 24.5t10.5 36t1.5 51.5v897q2 131 -27 158t-197 53zM825 1505h-88q-60 68 -155.5 170t-147.5 152l14 24q49 -2 123 -2q70 0 133 2q19 -57 58 -163q44 -131 63 -183z" />
    <glyph glyph-name="Eacute" unicode="&#xc9;" 
d="M16 1335v72q215 -10 549 -10q308 0 652 10q2 -208 24 -365h-84l-18 50q-18 53 -27 77.5t-23 51t-23.5 35t-30.5 16.5t-41 9t-58 1h-383q-5 -144 -8 -491q64 -2 156.5 -1.5t121.5 3.5q24 2 35.5 5.5t28.5 18t30.5 48t26.5 89.5q0 15 8 39h84q-12 -126 -12 -258
q0 -128 12 -268h-84q-6 18 -6 41q-6 35 -10.5 56.5t-12.5 41.5t-12.5 30.5t-19 20t-23 13t-33 6t-40.5 2.5h-54h-196v-559h399q25 0 37.5 0.5t34 5t35 13t34.5 25t39.5 41.5t43.5 62t53 86l18 33h88q-53 -149 -108 -334q-1 -6 -8.5 -32.5t-8.5 -28.5q-105 3 -457 8
q-139 2 -256 2q-110 0 -473 -10v73q3 0 10 1.5t16 3l15 2.5q49 9 71 14t48.5 14t34.5 17t17 24.5t10.5 36t1.5 51.5v897q2 131 -27 158t-197 53zM917 1847l15 -24q-52 -50 -147.5 -152t-155.5 -170h-88q19 52 63 183q24 66 57 163q63 -2 134 -2q73 0 122 2z" />
    <glyph glyph-name="Ecircumflex" unicode="&#xca;" 
d="M16 1335v72q215 -10 549 -10q308 0 652 10q2 -208 24 -365h-84l-18 50q-18 53 -27 77.5t-23 51t-23.5 35t-30.5 16.5t-41 9t-58 1h-383q-5 -144 -8 -491q64 -2 156.5 -1.5t121.5 3.5q24 2 35.5 5.5t28.5 18t30.5 48t26.5 89.5q0 15 8 39h84q-12 -126 -12 -258
q0 -128 12 -268h-84q-6 18 -6 41q-6 35 -10.5 56.5t-12.5 41.5t-12.5 30.5t-19 20t-23 13t-33 6t-40.5 2.5h-54h-196v-559h399q25 0 37.5 0.5t34 5t35 13t34.5 25t39.5 41.5t43.5 62t53 86l18 33h88q-53 -149 -108 -334q-1 -6 -8.5 -32.5t-8.5 -28.5q-105 3 -457 8
q-139 2 -256 2q-110 0 -473 -10v73q3 0 10 1.5t16 3l15 2.5q49 9 71 14t48.5 14t34.5 17t17 24.5t10.5 36t1.5 51.5v897q2 131 -27 158t-197 53zM999 1516h-104q-18 15 -94 71.5t-105 79.5q-1 0 -4.5 2.5t-9 6t-8.5 5.5q-10 -7 -39 -30t-61 -49.5t-37 -30.5
q-16 -13 -35.5 -27.5t-34.5 -27.5h-100q2 2 10 13t10 13q85 127 188 293q111 -2 226 0q58 -112 198 -319z" />
    <glyph glyph-name="Edieresis" unicode="&#xcb;" 
d="M16 1335v72q215 -10 549 -10q308 0 652 10q2 -208 24 -365h-84l-18 50q-18 53 -27 77.5t-23 51t-23.5 35t-30.5 16.5t-41 9t-58 1h-383q-5 -144 -8 -491q64 -2 156.5 -1.5t121.5 3.5q24 2 35.5 5.5t28.5 18t30.5 48t26.5 89.5q0 15 8 39h84q-12 -126 -12 -258
q0 -128 12 -268h-84q-6 18 -6 41q-6 35 -10.5 56.5t-12.5 41.5t-12.5 30.5t-19 20t-23 13t-33 6t-40.5 2.5h-54h-196v-559h399q25 0 37.5 0.5t34 5t35 13t34.5 25t39.5 41.5t43.5 62t53 86l18 33h88q-53 -149 -108 -334q-1 -6 -8.5 -32.5t-8.5 -28.5q-105 3 -457 8
q-139 2 -256 2q-110 0 -473 -10v73q3 0 10 1.5t16 3l15 2.5q49 9 71 14t48.5 14t34.5 17t17 24.5t10.5 36t1.5 51.5v897q2 131 -27 158t-197 53zM864 1802q55 0 93 -38t38 -91q0 -55 -38.5 -93t-92.5 -38t-92.5 38t-38.5 93q0 53 38 91t93 38zM504 1802q55 0 93 -38t38 -91
q0 -55 -38.5 -93t-92.5 -38t-92.5 38t-38.5 93q0 53 38 91t93 38z" />
    <glyph glyph-name="Igrave" unicode="&#xcc;" horiz-adv-x="788" 
d="M772 1407v-72q-3 -1 -9.5 -2t-16 -2t-13.5 -2q-67 -8 -101 -15.5t-54.5 -23t-25.5 -35.5t-5 -59v-958v-41.5t3 -31.5t7 -26t13.5 -19t22 -16.5t33.5 -11.5t45.5 -11.5t61.5 -10.5q4 -1 13.5 -2.5t16 -3t9.5 -1.5v-73q-60 3 -149 6q-122 4 -213 4q-100 0 -392 -10v73l29 5
h1h1l1 1q125 22 152 36q31 17 36 61q2 14 2 39q0 162 2 225l-2 748q0 31 -1 47t-8 32.5t-16 24t-32.5 16.5t-49 14t-72.5 13q-23 3 -43 10v72q245 -10 383 -10q84 0 371 10zM536 1505h-88q-60 68 -155.5 170t-147.5 152l14 24q49 -2 123 -2q70 0 133 2q19 -57 58 -163
q44 -131 63 -183z" />
    <glyph glyph-name="Iacute" unicode="&#xcd;" horiz-adv-x="788" 
d="M772 1407v-72q-3 -1 -9.5 -2t-16 -2t-13.5 -2q-67 -8 -101 -15.5t-54.5 -23t-25.5 -35.5t-5 -59v-958v-41.5t3 -31.5t7 -26t13.5 -19t22 -16.5t33.5 -11.5t45.5 -11.5t61.5 -10.5q4 -1 13.5 -2.5t16 -3t9.5 -1.5v-73q-60 3 -149 6q-122 4 -213 4q-100 0 -392 -10v73l29 5
h1h1l1 1q125 22 152 36q31 17 36 61q2 14 2 39q0 162 2 225l-2 748q0 31 -1 47t-8 32.5t-16 24t-32.5 16.5t-49 14t-72.5 13q-23 3 -43 10v72q245 -10 383 -10q84 0 371 10zM628 1847l15 -24q-52 -50 -147.5 -152t-155.5 -170h-88q19 52 63 183q24 66 57 163q63 -2 134 -2
q73 0 122 2z" />
    <glyph glyph-name="Icircumflex" unicode="&#xce;" horiz-adv-x="788" 
d="M772 1407v-72q-3 -1 -9.5 -2t-16 -2t-13.5 -2q-67 -8 -101 -15.5t-54.5 -23t-25.5 -35.5t-5 -59v-958v-41.5t3 -31.5t7 -26t13.5 -19t22 -16.5t33.5 -11.5t45.5 -11.5t61.5 -10.5q4 -1 13.5 -2.5t16 -3t9.5 -1.5v-73q-60 3 -149 6q-122 4 -213 4q-100 0 -392 -10v73l29 5
h1h1l1 1q125 22 152 36q31 17 36 61q2 14 2 39q0 162 2 225l-2 748q0 31 -1 47t-8 32.5t-16 24t-32.5 16.5t-49 14t-72.5 13q-23 3 -43 10v72q245 -10 383 -10q84 0 371 10zM710 1516h-104q-18 15 -94 71.5t-105 79.5q-1 0 -4.5 2.5t-9 6t-8.5 5.5q-10 -7 -39 -30t-61 -49.5
t-37 -30.5q-16 -13 -35.5 -27.5t-34.5 -27.5h-100q2 2 10 13t10 13q85 127 188 293q111 -2 226 0q58 -112 198 -319z" />
    <glyph glyph-name="Idieresis" unicode="&#xcf;" horiz-adv-x="788" 
d="M772 1407v-72q-3 -1 -9.5 -2t-16 -2t-13.5 -2q-67 -8 -101 -15.5t-54.5 -23t-25.5 -35.5t-5 -59v-958v-41.5t3 -31.5t7 -26t13.5 -19t22 -16.5t33.5 -11.5t45.5 -11.5t61.5 -10.5q4 -1 13.5 -2.5t16 -3t9.5 -1.5v-73q-60 3 -149 6q-122 4 -213 4q-100 0 -392 -10v73l29 5
h1h1l1 1q125 22 152 36q31 17 36 61q2 14 2 39q0 162 2 225l-2 748q0 31 -1 47t-8 32.5t-16 24t-32.5 16.5t-49 14t-72.5 13q-23 3 -43 10v72q245 -10 383 -10q84 0 371 10zM575 1802q55 0 93 -38t38 -91q0 -55 -38.5 -93t-92.5 -38t-92.5 38t-38.5 93q0 53 38 91t93 38z
M215 1802q55 0 93 -38t38 -91q0 -55 -38.5 -93t-92.5 -38t-92.5 38t-38.5 93q0 53 38 91t93 38z" />
    <glyph glyph-name="Eth" unicode="&#xd0;" horiz-adv-x="1685" 
d="M250 678h-225v113h225l-4 383v32.5t-3 25.5t-3 21t-7.5 16t-10 13t-17.5 9.5t-21.5 9t-31 7.5t-38 8t-48.5 9q-29 4 -41 10v72q56 -3 163 -6q132 -4 215 -4q185 0 326 6q78 4 250 4q153 0 269.5 -36.5t213.5 -143.5q54 -58 87 -140t43 -149t10 -135q0 -316 -189 -535
q-242 -280 -657 -280q-15 0 -82.5 2.5t-104.5 3.5q-117 6 -182 6q-37 0 -362 -10v73q10 0 41 9q47 8 73.5 13t49.5 14t32.5 16t16.5 22.5t8 30t2 43.5q2 88 2 467zM993 678h-442l1 -25q0 -25 0.5 -78t0.5 -122q1 -61 8 -330q124 -21 205 -21q222 0 336 127q50 55 84 127.5
t48.5 146.5t20 129.5t5.5 110.5q0 551 -467 551q-106 0 -232 -20q-8 -107 -10 -483h442v-113z" />
    <glyph glyph-name="Ntilde" unicode="&#xd1;" horiz-adv-x="1642" 
d="M10 1335v72q127 -10 254 -10q81 0 281 10q93 -125 348 -436l332 -404q30 -40 55 -65q-4 687 -16 749q-7 38 -42.5 52t-123.5 26q-29 0 -41 6v72q152 -10 280 -10q80 0 295 10v-72q-3 -1 -20 -4.5t-25 -5.5q-99 -14 -129.5 -31t-36.5 -65q-12 -98 -12 -606q0 -286 10 -641
q-35 -11 -92 -33q-13 17 -67 84t-125 157q-148 191 -306 383q-78 93 -246.5 298.5t-207.5 258.5l-4 -4l2 -417q0 -114 4 -330t10 -244q7 -25 38 -36t128 -27q31 -9 41 -9v-73q-39 2 -121 6q-94 4 -154 4q-31 0 -303 -10v73q4 0 21.5 4t25.5 5q48 8 67 11t43.5 11.5
t30.5 14.5t14 23.5t9 34t2 50.5q14 604 15 639q0 221 2 258v56.5t-4 43t-7 33t-14.5 23t-21.5 18.5t-34 13t-45 12t-61 12q-30 4 -49 10zM1083 1802h88q-56 -262 -198 -262q-50 0 -158 43q-131 51 -166 51q-23 0 -42 -18t-27.5 -34.5t-18.5 -41.5h-88q15 66 36 115.5
t41.5 76.5t44 44t40.5 21.5t34 4.5q31 0 66.5 -10.5t120.5 -44.5q110 -43 145 -43q33 0 49.5 23t32.5 75z" />
    <glyph glyph-name="Ograve" unicode="&#xd2;" horiz-adv-x="1665" 
d="M88 676q0 158 50 295.5t145 242t244 164.5t335 60q152 0 274.5 -39.5t203.5 -105.5t135.5 -156.5t78 -188t23.5 -203.5q0 -102 -21.5 -204t-77 -209t-140 -188t-222.5 -133t-311 -52q-179 0 -317 52t-225 147.5t-131 226t-44 291.5zM434 731q0 -103 10 -191.5t38.5 -178
t73 -152t119 -102t171.5 -39.5q385 0 385 606q0 89 -8 167.5t-26 153.5t-49 134t-74 104.5t-105 69.5t-138 24q-74 0 -135 -24t-101.5 -62t-71 -92.5t-47 -107t-26.5 -114t-13 -106.5t-3 -90zM975 1505h-88q-60 68 -155.5 170t-147.5 152l14 24q49 -2 123 -2q70 0 133 2
q19 -57 58 -163q44 -131 63 -183z" />
    <glyph glyph-name="Oacute" unicode="&#xd3;" horiz-adv-x="1665" 
d="M88 676q0 158 50 295.5t145 242t244 164.5t335 60q152 0 274.5 -39.5t203.5 -105.5t135.5 -156.5t78 -188t23.5 -203.5q0 -102 -21.5 -204t-77 -209t-140 -188t-222.5 -133t-311 -52q-179 0 -317 52t-225 147.5t-131 226t-44 291.5zM434 731q0 -103 10 -191.5t38.5 -178
t73 -152t119 -102t171.5 -39.5q385 0 385 606q0 89 -8 167.5t-26 153.5t-49 134t-74 104.5t-105 69.5t-138 24q-74 0 -135 -24t-101.5 -62t-71 -92.5t-47 -107t-26.5 -114t-13 -106.5t-3 -90zM1067 1847l15 -24q-52 -50 -147.5 -152t-155.5 -170h-88q19 52 63 183
q24 66 57 163q63 -2 134 -2q73 0 122 2z" />
    <glyph glyph-name="Ocircumflex" unicode="&#xd4;" horiz-adv-x="1665" 
d="M88 676q0 158 50 295.5t145 242t244 164.5t335 60q152 0 274.5 -39.5t203.5 -105.5t135.5 -156.5t78 -188t23.5 -203.5q0 -102 -21.5 -204t-77 -209t-140 -188t-222.5 -133t-311 -52q-179 0 -317 52t-225 147.5t-131 226t-44 291.5zM434 731q0 -103 10 -191.5t38.5 -178
t73 -152t119 -102t171.5 -39.5q385 0 385 606q0 89 -8 167.5t-26 153.5t-49 134t-74 104.5t-105 69.5t-138 24q-74 0 -135 -24t-101.5 -62t-71 -92.5t-47 -107t-26.5 -114t-13 -106.5t-3 -90zM1149 1516h-104q-18 15 -94 71.5t-105 79.5q-1 0 -4.5 2.5t-9 6t-8.5 5.5
q-10 -7 -39 -30t-61 -49.5t-37 -30.5q-16 -13 -35.5 -27.5t-34.5 -27.5h-100q2 2 10 13t10 13q85 127 188 293q111 -2 226 0q58 -112 198 -319z" />
    <glyph glyph-name="Otilde" unicode="&#xd5;" horiz-adv-x="1665" 
d="M88 676q0 158 50 295.5t145 242t244 164.5t335 60q152 0 274.5 -39.5t203.5 -105.5t135.5 -156.5t78 -188t23.5 -203.5q0 -102 -21.5 -204t-77 -209t-140 -188t-222.5 -133t-311 -52q-179 0 -317 52t-225 147.5t-131 226t-44 291.5zM434 731q0 -103 10 -191.5t38.5 -178
t73 -152t119 -102t171.5 -39.5q385 0 385 606q0 89 -8 167.5t-26 153.5t-49 134t-74 104.5t-105 69.5t-138 24q-74 0 -135 -24t-101.5 -62t-71 -92.5t-47 -107t-26.5 -114t-13 -106.5t-3 -90zM1094 1802h88q-56 -262 -198 -262q-50 0 -158 43q-131 51 -166 51q-23 0 -42 -18
t-27.5 -34.5t-18.5 -41.5h-88q15 66 36 115.5t41.5 76.5t44 44t40.5 21.5t34 4.5q31 0 66.5 -10.5t120.5 -44.5q110 -43 145 -43q33 0 49.5 23t32.5 75z" />
    <glyph glyph-name="Odieresis" unicode="&#xd6;" horiz-adv-x="1665" 
d="M88 676q0 158 50 295.5t145 242t244 164.5t335 60q152 0 274.5 -39.5t203.5 -105.5t135.5 -156.5t78 -188t23.5 -203.5q0 -102 -21.5 -204t-77 -209t-140 -188t-222.5 -133t-311 -52q-179 0 -317 52t-225 147.5t-131 226t-44 291.5zM434 731q0 -103 10 -191.5t38.5 -178
t73 -152t119 -102t171.5 -39.5q385 0 385 606q0 89 -8 167.5t-26 153.5t-49 134t-74 104.5t-105 69.5t-138 24q-74 0 -135 -24t-101.5 -62t-71 -92.5t-47 -107t-26.5 -114t-13 -106.5t-3 -90zM1014 1802q55 0 93 -38t38 -91q0 -55 -38.5 -93t-92.5 -38t-92.5 38t-38.5 93
q0 53 38 91t93 38zM654 1802q55 0 93 -38t38 -91q0 -55 -38.5 -93t-92.5 -38t-92.5 38t-38.5 93q0 53 38 91t93 38z" />
    <glyph glyph-name="multiply" unicode="&#xd7;" 
d="M168 1083l131 129l385 -385l387 385l129 -129l-385 -387l385 -383l-131 -131l-385 383l-383 -383l-131 131l383 383z" />
    <glyph glyph-name="Oslash" unicode="&#xd8;" horiz-adv-x="1665" 
d="M350 82l-153 -166l-88 82l153 166q-30 32 -52 63t-54 93.5t-50 155t-18 206.5q0 117 28 225t89.5 205.5t151 169.5t220 114t287.5 42q282 0 455 -129l147 159l93 -84l-150 -159q168 -187 168 -480q0 -88 -17 -176t-52.5 -178t-96.5 -166.5t-143 -136.5t-199.5 -94.5
t-257.5 -34.5q-289 0 -461 123zM1196 993l-674 -727q13 -26 24.5 -45t40 -50.5t60.5 -51.5t85 -35.5t116 -15.5q87 0 154.5 33t110 88t69.5 134.5t38 164.5t11 186q0 168 -35 319zM473 391l678 735q-99 201 -320 201q-76 0 -137.5 -24.5t-102 -63t-71 -94t-47 -109.5
t-26.5 -118.5t-12.5 -110.5t-2.5 -96q0 -187 41 -320z" />
    <glyph glyph-name="Ugrave" unicode="&#xd9;" horiz-adv-x="1622" 
d="M8 1335v72q228 -10 383 -10q130 0 365 10v-72q-55 -10 -75.5 -13.5t-56 -11.5t-52.5 -15.5t-25 -16.5q-19 -24 -19 -145v-512q0 -212 29 -289q69 -189 328 -189q61 0 110.5 10t86.5 24t65 45t46.5 55.5t31 73.5t19 81t9.5 97t3.5 102.5t0.5 113.5v3q0 101 -6 294.5
t-16 223.5q-7 23 -33.5 33t-118.5 28q-30 5 -39 8v72q215 -10 297 -10q75 0 275 10v-72q-3 -1 -21.5 -4.5t-27.5 -5.5q-42 -7 -67 -12.5t-44 -16t-28 -18t-14.5 -28.5t-6.5 -35.5t-2 -51.5q-6 -212 -8 -600q-1 -129 -22 -222.5t-46 -136.5t-63 -83q-158 -162 -455 -162
q-121 0 -216 21.5t-155.5 51.5t-104 81.5t-64 92.5t-32 104.5t-13 97.5t-1.5 90v618q0 117 -12 148q-10 24 -40 35.5t-116 25.5q-9 2 -27.5 5.5t-21.5 4.5zM954 1505h-88q-60 68 -155.5 170t-147.5 152l14 24q49 -2 123 -2q70 0 133 2q19 -57 58 -163q44 -131 63 -183z" />
    <glyph glyph-name="Uacute" unicode="&#xda;" horiz-adv-x="1622" 
d="M8 1335v72q228 -10 383 -10q130 0 365 10v-72q-55 -10 -75.5 -13.5t-56 -11.5t-52.5 -15.5t-25 -16.5q-19 -24 -19 -145v-512q0 -212 29 -289q69 -189 328 -189q61 0 110.5 10t86.5 24t65 45t46.5 55.5t31 73.5t19 81t9.5 97t3.5 102.5t0.5 113.5v3q0 101 -6 294.5
t-16 223.5q-7 23 -33.5 33t-118.5 28q-30 5 -39 8v72q215 -10 297 -10q75 0 275 10v-72q-3 -1 -21.5 -4.5t-27.5 -5.5q-42 -7 -67 -12.5t-44 -16t-28 -18t-14.5 -28.5t-6.5 -35.5t-2 -51.5q-6 -212 -8 -600q-1 -129 -22 -222.5t-46 -136.5t-63 -83q-158 -162 -455 -162
q-121 0 -216 21.5t-155.5 51.5t-104 81.5t-64 92.5t-32 104.5t-13 97.5t-1.5 90v618q0 117 -12 148q-10 24 -40 35.5t-116 25.5q-9 2 -27.5 5.5t-21.5 4.5zM1056 1847l15 -24q-52 -50 -147.5 -152t-155.5 -170h-88q19 52 63 183q24 66 57 163q63 -2 134 -2q73 0 122 2z" />
    <glyph glyph-name="Ucircumflex" unicode="&#xdb;" horiz-adv-x="1622" 
d="M8 1335v72q228 -10 383 -10q130 0 365 10v-72q-55 -10 -75.5 -13.5t-56 -11.5t-52.5 -15.5t-25 -16.5q-19 -24 -19 -145v-512q0 -212 29 -289q69 -189 328 -189q61 0 110.5 10t86.5 24t65 45t46.5 55.5t31 73.5t19 81t9.5 97t3.5 102.5t0.5 113.5v3q0 101 -6 294.5
t-16 223.5q-7 23 -33.5 33t-118.5 28q-30 5 -39 8v72q215 -10 297 -10q75 0 275 10v-72q-3 -1 -21.5 -4.5t-27.5 -5.5q-42 -7 -67 -12.5t-44 -16t-28 -18t-14.5 -28.5t-6.5 -35.5t-2 -51.5q-6 -212 -8 -600q-1 -129 -22 -222.5t-46 -136.5t-63 -83q-158 -162 -455 -162
q-121 0 -216 21.5t-155.5 51.5t-104 81.5t-64 92.5t-32 104.5t-13 97.5t-1.5 90v618q0 117 -12 148q-10 24 -40 35.5t-116 25.5q-9 2 -27.5 5.5t-21.5 4.5zM1138 1516h-104q-18 15 -94 71.5t-105 79.5q-1 0 -4.5 2.5t-9 6t-8.5 5.5q-10 -7 -39 -30t-61 -49.5t-37 -30.5
q-16 -13 -35.5 -27.5t-34.5 -27.5h-100q2 2 10 13t10 13q85 127 188 293q111 -2 226 0q58 -112 198 -319z" />
    <glyph glyph-name="Udieresis" unicode="&#xdc;" horiz-adv-x="1622" 
d="M8 1335v72q228 -10 383 -10q130 0 365 10v-72q-55 -10 -75.5 -13.5t-56 -11.5t-52.5 -15.5t-25 -16.5q-19 -24 -19 -145v-512q0 -212 29 -289q69 -189 328 -189q61 0 110.5 10t86.5 24t65 45t46.5 55.5t31 73.5t19 81t9.5 97t3.5 102.5t0.5 113.5v3q0 101 -6 294.5
t-16 223.5q-7 23 -33.5 33t-118.5 28q-30 5 -39 8v72q215 -10 297 -10q75 0 275 10v-72q-3 -1 -21.5 -4.5t-27.5 -5.5q-42 -7 -67 -12.5t-44 -16t-28 -18t-14.5 -28.5t-6.5 -35.5t-2 -51.5q-6 -212 -8 -600q-1 -129 -22 -222.5t-46 -136.5t-63 -83q-158 -162 -455 -162
q-121 0 -216 21.5t-155.5 51.5t-104 81.5t-64 92.5t-32 104.5t-13 97.5t-1.5 90v618q0 117 -12 148q-10 24 -40 35.5t-116 25.5q-9 2 -27.5 5.5t-21.5 4.5zM1003 1802q55 0 93 -38t38 -91q0 -55 -38.5 -93t-92.5 -38t-92.5 38t-38.5 93q0 53 38 91t93 38zM643 1802
q55 0 93 -38t38 -91q0 -55 -38.5 -93t-92.5 -38t-92.5 38t-38.5 93q0 53 38 91t93 38z" />
    <glyph glyph-name="Yacute" unicode="&#xdd;" horiz-adv-x="1536" 
d="M2 1335v72q28 0 179.5 -5t176.5 -5q43 0 113.5 2t146.5 4.5t99 3.5v-72q-7 -3 -35 -8q-28 -7 -41 -10.5t-34 -11t-30.5 -17.5t-9.5 -22q0 -16 17 -41q22 -33 69.5 -118.5t57.5 -102.5q95 -169 127 -222q4 -12 26 -45l162 295q129 226 129 246q0 18 -23 27.5t-96 23.5
q-27 5 -28 6v72q254 -10 272 -10q10 0 260 10v-72q-125 -25 -169 -51t-97 -108q-32 -48 -320 -527q-9 -9 -28 -47v-319q0 -95 4 -127q6 -38 37 -51t149 -35q4 -1 12 -2.5t13.5 -3t7.5 -1.5v-73q-176 5 -197 6q-126 4 -174 4q-42 0 -205.5 -5t-179.5 -5v73q3 0 21.5 4t25.5 5
q39 6 59 9t43.5 11t32.5 11t20.5 18.5t13.5 24t5.5 35.5t3.5 45.5v62.5v295q-4 4 -46 71t-91 146t-59 94q-86 138 -174 276q-54 83 -97.5 112t-148.5 52zM1085 1847l15 -24q-52 -50 -147.5 -152t-155.5 -170h-88q19 52 63 183q24 66 57 163q63 -2 134 -2q73 0 122 2z" />
    <glyph glyph-name="Thorn" unicode="&#xde;" horiz-adv-x="1386" 
d="M16 -10v73q17 0 27 5h1h1l2 1q131 24 157 37q28 15 33 53q2 10 3 29q2 25 2 142q0 6 1 237t0.5 403.5t-3.5 227.5q-2 33 -5 48t-15.5 31t-38 24t-70.5 16q-59 10 -95 18v72q12 0 78.5 -3t142.5 -5t162 -2q200 0 375 10v-72q-26 -5 -98 -18q-21 -3 -34 -5.5t-27 -7.5
t-21.5 -7t-15.5 -11.5t-11.5 -14t-7.5 -20.5t-5.5 -25t-2.5 -33.5t-1.5 -40t-0.5 -50.5h342q49 0 124.5 -9.5t112.5 -25.5q58 -23 99.5 -63.5t62 -88t29 -90t8.5 -84.5q0 -151 -85.5 -261t-240.5 -161q-44 -13 -150.5 -22.5t-164.5 -9.5h-137q-1 -137 15.5 -163.5
t113.5 -41.5l125 -19v-73q-71 4 -135 6q-118 4 -260 4q-227 0 -392 -10zM678 991h-129q-2 -362 0 -592h59q161 0 211 17q191 62 191 284q0 149 -88 228q-35 31 -85.5 47t-158.5 16z" />
    <glyph glyph-name="germandbls" unicode="&#xdf;" horiz-adv-x="1173" 
d="M588 287h78q9 -217 133 -217q40 0 77 29t37 96q0 49 -15.5 87t-49.5 83q-86 109 -266 299q-60 64 -60 102q0 39 56 111q145 188 145 321q0 65 -30.5 110.5t-90.5 45.5q-18 0 -39 -5t-50.5 -28t-45.5 -61q-17 -38 -22 -114t-5 -290q0 -643 11 -866q-25 2 -91 6
q-70 4 -110 4q-71 0 -221 -10v69q87 20 112.5 39t30.5 52q8 63 8 677q-63 -2 -145 -10v68q82 35 145 69q0 93 1.5 128t12.5 78.5t37 80.5q69 101 186.5 159t250.5 58q69 0 123 -14.5t85 -36t51 -51.5t27 -56.5t7 -54.5q0 -66 -30.5 -126.5t-78.5 -102.5q-72 -62 -87 -79
t-15 -32q0 -40 96 -121q80 -67 148 -149t98 -141q32 -63 32 -142q0 -63 -22 -127t-64 -121t-114.5 -93t-163.5 -36q-97 0 -221 45q31 129 49 267z" />
    <glyph glyph-name="agrave" unicode="&#xe0;" horiz-adv-x="1024" 
d="M221 621l-88 8q14 71 18.5 97.5t9.5 64.5t9 92q184 88 379 88q87 0 148 -23t91 -52t46 -83t18 -87t2 -93q0 -27 -2 -171.5t-2 -168.5t0.5 -36t2 -33t5 -32t10 -23.5t17 -18t24.5 -5.5q33 0 97 35l36 -57q-2 -2 -16.5 -13.5t-21.5 -15.5q-54 -38 -84 -57.5t-79.5 -40.5
t-88.5 -21q-122 0 -154 123q-2 -1 -10 -6.5t-13 -7.5q-97 -70 -148 -89.5t-114 -19.5q-52 0 -93.5 17t-67 44t-42.5 61.5t-23.5 67t-6.5 64.5q0 49 14.5 91t33.5 68t52.5 51t54.5 36.5t56 28.5q59 27 178 82.5t129 60.5q-1 26 -1.5 39.5t-3.5 38.5t-8.5 39t-16 32t-25 28
t-37 17t-51.5 7q-46 0 -83 -17.5t-65 -53.5t-46 -70t-40 -86zM598 539q-50 -23 -75.5 -35.5t-60.5 -32.5t-51.5 -36t-34 -39t-24 -50t-6.5 -61q0 -14 1.5 -29t8 -39.5t18 -43t34 -32.5t53.5 -14q37 0 75.5 25.5t49.5 76.5q5 19 7.5 48.5t3.5 70t1.5 67.5t0 72t-0.5 52z
M655 1081h-88q-60 68 -155.5 170t-147.5 152l14 24q49 -2 123 -2q70 0 133 2q19 -57 58 -163q44 -131 63 -183z" />
    <glyph glyph-name="aacute" unicode="&#xe1;" horiz-adv-x="1024" 
d="M221 621l-88 8q14 71 18.5 97.5t9.5 64.5t9 92q184 88 379 88q87 0 148 -23t91 -52t46 -83t18 -87t2 -93q0 -27 -2 -171.5t-2 -168.5t0.5 -36t2 -33t5 -32t10 -23.5t17 -18t24.5 -5.5q33 0 97 35l36 -57q-2 -2 -16.5 -13.5t-21.5 -15.5q-54 -38 -84 -57.5t-79.5 -40.5
t-88.5 -21q-122 0 -154 123q-2 -1 -10 -6.5t-13 -7.5q-97 -70 -148 -89.5t-114 -19.5q-52 0 -93.5 17t-67 44t-42.5 61.5t-23.5 67t-6.5 64.5q0 49 14.5 91t33.5 68t52.5 51t54.5 36.5t56 28.5q59 27 178 82.5t129 60.5q-1 26 -1.5 39.5t-3.5 38.5t-8.5 39t-16 32t-25 28
t-37 17t-51.5 7q-46 0 -83 -17.5t-65 -53.5t-46 -70t-40 -86zM598 539q-50 -23 -75.5 -35.5t-60.5 -32.5t-51.5 -36t-34 -39t-24 -50t-6.5 -61q0 -14 1.5 -29t8 -39.5t18 -43t34 -32.5t53.5 -14q37 0 75.5 25.5t49.5 76.5q5 19 7.5 48.5t3.5 70t1.5 67.5t0 72t-0.5 52z
M747 1423l15 -24q-52 -50 -147.5 -152t-155.5 -170h-88q19 52 63 183q24 66 57 163q63 -2 134 -2q73 0 122 2z" />
    <glyph glyph-name="acircumflex" unicode="&#xe2;" horiz-adv-x="1024" 
d="M221 621l-88 8q14 71 18.5 97.5t9.5 64.5t9 92q184 88 379 88q87 0 148 -23t91 -52t46 -83t18 -87t2 -93q0 -27 -2 -171.5t-2 -168.5t0.5 -36t2 -33t5 -32t10 -23.5t17 -18t24.5 -5.5q33 0 97 35l36 -57q-2 -2 -16.5 -13.5t-21.5 -15.5q-54 -38 -84 -57.5t-79.5 -40.5
t-88.5 -21q-122 0 -154 123q-2 -1 -10 -6.5t-13 -7.5q-97 -70 -148 -89.5t-114 -19.5q-52 0 -93.5 17t-67 44t-42.5 61.5t-23.5 67t-6.5 64.5q0 49 14.5 91t33.5 68t52.5 51t54.5 36.5t56 28.5q59 27 178 82.5t129 60.5q-1 26 -1.5 39.5t-3.5 38.5t-8.5 39t-16 32t-25 28
t-37 17t-51.5 7q-46 0 -83 -17.5t-65 -53.5t-46 -70t-40 -86zM598 539q-50 -23 -75.5 -35.5t-60.5 -32.5t-51.5 -36t-34 -39t-24 -50t-6.5 -61q0 -14 1.5 -29t8 -39.5t18 -43t34 -32.5t53.5 -14q37 0 75.5 25.5t49.5 76.5q5 19 7.5 48.5t3.5 70t1.5 67.5t0 72t-0.5 52z
M829 1092h-104q-18 15 -94 71.5t-105 79.5q-1 0 -4.5 2.5t-9 6t-8.5 5.5q-10 -7 -39 -30t-61 -49.5t-37 -30.5q-16 -13 -35.5 -27.5t-34.5 -27.5h-100q2 2 10 13t10 13q85 127 188 293q111 -2 226 0q58 -112 198 -319z" />
    <glyph glyph-name="atilde" unicode="&#xe3;" horiz-adv-x="1024" 
d="M221 621l-88 8q14 71 18.5 97.5t9.5 64.5t9 92q184 88 379 88q87 0 148 -23t91 -52t46 -83t18 -87t2 -93q0 -27 -2 -171.5t-2 -168.5t0.5 -36t2 -33t5 -32t10 -23.5t17 -18t24.5 -5.5q33 0 97 35l36 -57q-2 -2 -16.5 -13.5t-21.5 -15.5q-54 -38 -84 -57.5t-79.5 -40.5
t-88.5 -21q-122 0 -154 123q-2 -1 -10 -6.5t-13 -7.5q-97 -70 -148 -89.5t-114 -19.5q-52 0 -93.5 17t-67 44t-42.5 61.5t-23.5 67t-6.5 64.5q0 49 14.5 91t33.5 68t52.5 51t54.5 36.5t56 28.5q59 27 178 82.5t129 60.5q-1 26 -1.5 39.5t-3.5 38.5t-8.5 39t-16 32t-25 28
t-37 17t-51.5 7q-46 0 -83 -17.5t-65 -53.5t-46 -70t-40 -86zM598 539q-50 -23 -75.5 -35.5t-60.5 -32.5t-51.5 -36t-34 -39t-24 -50t-6.5 -61q0 -14 1.5 -29t8 -39.5t18 -43t34 -32.5t53.5 -14q37 0 75.5 25.5t49.5 76.5q5 19 7.5 48.5t3.5 70t1.5 67.5t0 72t-0.5 52z
M774 1378h88q-56 -262 -198 -262q-50 0 -158 43q-131 51 -166 51q-23 0 -42 -18t-27.5 -34.5t-18.5 -41.5h-88q15 66 36 115.5t41.5 76.5t44 44t40.5 21.5t34 4.5q31 0 66.5 -10.5t120.5 -44.5q110 -43 145 -43q33 0 49.5 23t32.5 75z" />
    <glyph glyph-name="adieresis" unicode="&#xe4;" horiz-adv-x="1024" 
d="M221 621l-88 8q14 71 18.5 97.5t9.5 64.5t9 92q184 88 379 88q87 0 148 -23t91 -52t46 -83t18 -87t2 -93q0 -27 -2 -171.5t-2 -168.5t0.5 -36t2 -33t5 -32t10 -23.5t17 -18t24.5 -5.5q33 0 97 35l36 -57q-2 -2 -16.5 -13.5t-21.5 -15.5q-54 -38 -84 -57.5t-79.5 -40.5
t-88.5 -21q-122 0 -154 123q-2 -1 -10 -6.5t-13 -7.5q-97 -70 -148 -89.5t-114 -19.5q-52 0 -93.5 17t-67 44t-42.5 61.5t-23.5 67t-6.5 64.5q0 49 14.5 91t33.5 68t52.5 51t54.5 36.5t56 28.5q59 27 178 82.5t129 60.5q-1 26 -1.5 39.5t-3.5 38.5t-8.5 39t-16 32t-25 28
t-37 17t-51.5 7q-46 0 -83 -17.5t-65 -53.5t-46 -70t-40 -86zM598 539q-50 -23 -75.5 -35.5t-60.5 -32.5t-51.5 -36t-34 -39t-24 -50t-6.5 -61q0 -14 1.5 -29t8 -39.5t18 -43t34 -32.5t53.5 -14q37 0 75.5 25.5t49.5 76.5q5 19 7.5 48.5t3.5 70t1.5 67.5t0 72t-0.5 52z
M694 1378q55 0 93 -38t38 -91q0 -55 -38.5 -93t-92.5 -38t-92.5 38t-38.5 93q0 53 38 91t93 38zM334 1378q55 0 93 -38t38 -91q0 -55 -38.5 -93t-92.5 -38t-92.5 38t-38.5 93q0 53 38 91t93 38z" />
    <glyph glyph-name="aring" unicode="&#xe5;" horiz-adv-x="1024" 
d="M221 621l-88 8q14 71 18.5 97.5t9.5 64.5t9 92q184 88 379 88q87 0 148 -23t91 -52t46 -83t18 -87t2 -93q0 -27 -2 -171.5t-2 -168.5t0.5 -36t2 -33t5 -32t10 -23.5t17 -18t24.5 -5.5q33 0 97 35l36 -57q-2 -2 -16.5 -13.5t-21.5 -15.5q-54 -38 -84 -57.5t-79.5 -40.5
t-88.5 -21q-122 0 -154 123q-2 -1 -10 -6.5t-13 -7.5q-97 -70 -148 -89.5t-114 -19.5q-52 0 -93.5 17t-67 44t-42.5 61.5t-23.5 67t-6.5 64.5q0 49 14.5 91t33.5 68t52.5 51t54.5 36.5t56 28.5q59 27 178 82.5t129 60.5q-1 26 -1.5 39.5t-3.5 38.5t-8.5 39t-16 32t-25 28
t-37 17t-51.5 7q-46 0 -83 -17.5t-65 -53.5t-46 -70t-40 -86zM598 539q-50 -23 -75.5 -35.5t-60.5 -32.5t-51.5 -36t-34 -39t-24 -50t-6.5 -61q0 -14 1.5 -29t8 -39.5t18 -43t34 -32.5t53.5 -14q37 0 75.5 25.5t49.5 76.5q5 19 7.5 48.5t3.5 70t1.5 67.5t0 72t-0.5 52z
M514 1479q88 0 151.5 -63.5t63.5 -153.5q0 -88 -62.5 -151.5t-152.5 -63.5q-89 0 -153 63t-64 152q0 91 64 154t153 63zM514 1364q-43 0 -73.5 -29.5t-30.5 -72.5q0 -42 30 -72.5t74 -30.5q43 0 72.5 30.5t29.5 72.5t-30 72t-72 30z" />
    <glyph glyph-name="ae" unicode="&#xe6;" horiz-adv-x="1449" 
d="M207 623l-90 8q21 97 39 254q197 86 379 86q56 0 98.5 -10.5t70 -30.5t39.5 -32.5t27 -33.5q108 115 283 115q53 0 97.5 -9t76.5 -23t58 -37t42.5 -44t29 -51t19 -51t10.5 -52t5 -46t2 -39q-50 -32 -90 -74q-66 4 -170 4q-208 0 -308 -4q14 -393 256 -393q57 0 115 19.5
t85 36t67 44.5l53 -76q-155 -122 -245.5 -170.5t-188.5 -48.5q-63 0 -116 17.5t-91.5 50.5t-58 55t-42.5 55q-98 -93 -168 -130.5t-167 -37.5q-50 0 -91 11t-67.5 28t-46.5 41.5t-30.5 47t-16.5 48.5t-7.5 42t-1.5 32q0 51 16 94t38.5 72.5t61.5 57t71.5 44.5t81.5 39
l194 86l62 29q7 199 -148 199q-50 0 -90 -21t-68 -60t-43.5 -69t-31.5 -73zM829 653q213 0 301 6q-4 213 -135 213q-40 0 -70.5 -16.5t-46.5 -37.5t-27.5 -56t-15 -56t-6.5 -53zM621 223q-15 40 -22.5 70t-13.5 97.5t1 152.5l-72 -34.5t-60.5 -32.5t-54 -38t-37 -41.5
t-27 -53t-7.5 -62.5q0 -23 4.5 -45t17 -47.5t39.5 -41.5t66 -16q40 0 75 16.5t51.5 32.5t39.5 43z" />
    <glyph glyph-name="ccedilla" unicode="&#xe7;" horiz-adv-x="917" 
d="M842 659l-8 -43l-91 7q-2 25 -3.5 38t-6.5 43.5t-12.5 49t-21 44t-31.5 40.5t-45.5 25.5t-61.5 10.5q-64 0 -109.5 -34.5t-68 -90t-32 -109t-9.5 -108.5q0 -173 76.5 -270.5t193.5 -97.5q43 0 89 13t74 26.5t69 36.5l47 -76q-65 -52 -102.5 -79.5t-97.5 -62t-111 -47.5
q-32 -39 -66 -75q123 -16 123 -123q0 -46 -22 -82.5t-61 -59t-83.5 -38t-99 -22.5t-98 -9.5t-89.5 -1.5v78q22 2 41.5 4.5t56 10.5t61.5 18.5t45 29.5t20 43q0 17 -13 31t-33 14q-7 0 -43 -6l-16 45q72 54 156 133q-95 5 -170 44.5t-122.5 103.5t-72 144t-24.5 171
q0 111 35 210t99 175t163.5 121t220.5 45q145 0 303 -74q-28 -125 -29 -133q-10 -37 -20 -113z" />
    <glyph glyph-name="egrave" unicode="&#xe8;" horiz-adv-x="960" 
d="M858 260l53 -76q-114 -96 -225 -159q-59 -34 -100 -47t-111 -13q-80 0 -145.5 22.5t-106.5 56.5t-72 82.5t-46 91.5t-24 92.5t-11 77.5t-2 54q0 110 34.5 207.5t96.5 171t156 116t206 42.5q67 0 121 -14t89 -35.5t61 -53t40 -62t22.5 -66.5t11.5 -62.5t5 -54.5v-4
q-56 -36 -94 -74q-57 2 -213 2q-174 0 -266 -2q-1 -57 5.5 -110t25 -105.5t47 -91t75 -62.5t105.5 -24q54 0 107 17.5t81 34t74 48.5zM342 655q121 -4 301 7q-1 29 -2.5 45.5t-6.5 45.5t-14.5 46.5t-24 36t-39 27.5t-56.5 9q-142 0 -158 -217zM622 1081h-88
q-60 68 -155.5 170t-147.5 152l14 24q49 -2 123 -2q70 0 133 2q19 -57 58 -163q44 -131 63 -183z" />
    <glyph glyph-name="eacute" unicode="&#xe9;" horiz-adv-x="960" 
d="M858 260l53 -76q-114 -96 -225 -159q-59 -34 -100 -47t-111 -13q-80 0 -145.5 22.5t-106.5 56.5t-72 82.5t-46 91.5t-24 92.5t-11 77.5t-2 54q0 110 34.5 207.5t96.5 171t156 116t206 42.5q67 0 121 -14t89 -35.5t61 -53t40 -62t22.5 -66.5t11.5 -62.5t5 -54.5v-4
q-56 -36 -94 -74q-57 2 -213 2q-174 0 -266 -2q-1 -57 5.5 -110t25 -105.5t47 -91t75 -62.5t105.5 -24q54 0 107 17.5t81 34t74 48.5zM342 655q121 -4 301 7q-1 29 -2.5 45.5t-6.5 45.5t-14.5 46.5t-24 36t-39 27.5t-56.5 9q-142 0 -158 -217zM776 1423l15 -24
q-52 -50 -147.5 -152t-155.5 -170h-88q19 52 63 183q24 66 57 163q63 -2 134 -2q73 0 122 2z" />
    <glyph glyph-name="ecircumflex" unicode="&#xea;" horiz-adv-x="960" 
d="M858 260l53 -76q-114 -96 -225 -159q-59 -34 -100 -47t-111 -13q-80 0 -145.5 22.5t-106.5 56.5t-72 82.5t-46 91.5t-24 92.5t-11 77.5t-2 54q0 110 34.5 207.5t96.5 171t156 116t206 42.5q67 0 121 -14t89 -35.5t61 -53t40 -62t22.5 -66.5t11.5 -62.5t5 -54.5v-4
q-56 -36 -94 -74q-57 2 -213 2q-174 0 -266 -2q-1 -57 5.5 -110t25 -105.5t47 -91t75 -62.5t105.5 -24q54 0 107 17.5t81 34t74 48.5zM342 655q121 -4 301 7q-1 29 -2.5 45.5t-6.5 45.5t-14.5 46.5t-24 36t-39 27.5t-56.5 9q-142 0 -158 -217zM858 1092h-104
q-18 15 -94 71.5t-105 79.5q-1 0 -4.5 2.5t-9 6t-8.5 5.5q-10 -7 -39 -30t-61 -49.5t-37 -30.5q-16 -13 -35.5 -27.5t-34.5 -27.5h-100q2 2 10 13t10 13q85 127 188 293q111 -2 226 0q58 -112 198 -319z" />
    <glyph glyph-name="edieresis" unicode="&#xeb;" horiz-adv-x="960" 
d="M858 260l53 -76q-114 -96 -225 -159q-59 -34 -100 -47t-111 -13q-80 0 -145.5 22.5t-106.5 56.5t-72 82.5t-46 91.5t-24 92.5t-11 77.5t-2 54q0 110 34.5 207.5t96.5 171t156 116t206 42.5q67 0 121 -14t89 -35.5t61 -53t40 -62t22.5 -66.5t11.5 -62.5t5 -54.5v-4
q-56 -36 -94 -74q-57 2 -213 2q-174 0 -266 -2q-1 -57 5.5 -110t25 -105.5t47 -91t75 -62.5t105.5 -24q54 0 107 17.5t81 34t74 48.5zM342 655q121 -4 301 7q-1 29 -2.5 45.5t-6.5 45.5t-14.5 46.5t-24 36t-39 27.5t-56.5 9q-142 0 -158 -217zM723 1378q55 0 93 -38t38 -91
q0 -55 -38.5 -93t-92.5 -38t-92.5 38t-38.5 93q0 53 38 91t93 38zM363 1378q55 0 93 -38t38 -91q0 -55 -38.5 -93t-92.5 -38t-92.5 38t-38.5 93q0 53 38 91t93 38z" />
    <glyph glyph-name="igrave" unicode="&#xec;" horiz-adv-x="641" 
d="M39 774v72q232 41 391 139l51 -29q-13 -118 -16 -192.5t-8 -374.5q-2 -144 1.5 -204t16.5 -76q12 -12 37.5 -21.5t95.5 -28.5v-69q-72 4 -104 6q-82 4 -150 4q-86 0 -321 -10v69q2 0 6.5 1.5t10.5 3t9 2.5q82 19 102 33.5t23 60.5q9 190 9 383q0 162 -10 199.5t-56 37.5
q-34 0 -88 -6zM463 1081h-88q-60 68 -155.5 170t-147.5 152l14 24q49 -2 123 -2q70 0 133 2q19 -57 58 -163q44 -131 63 -183z" />
    <glyph glyph-name="iacute" unicode="&#xed;" horiz-adv-x="641" 
d="M39 774v72q232 41 391 139l51 -29q-13 -118 -16 -192.5t-8 -374.5q-2 -144 1.5 -204t16.5 -76q12 -12 37.5 -21.5t95.5 -28.5v-69q-72 4 -104 6q-82 4 -150 4q-86 0 -321 -10v69q2 0 6.5 1.5t10.5 3t9 2.5q82 19 102 33.5t23 60.5q9 190 9 383q0 162 -10 199.5t-56 37.5
q-34 0 -88 -6zM555 1423l15 -24q-52 -50 -147.5 -152t-155.5 -170h-88q19 52 63 183q24 66 57 163q63 -2 134 -2q73 0 122 2z" />
    <glyph glyph-name="icircumflex" unicode="&#xee;" horiz-adv-x="641" 
d="M39 774v72q232 41 391 139l51 -29q-13 -118 -16 -192.5t-8 -374.5q-2 -144 1.5 -204t16.5 -76q12 -12 37.5 -21.5t95.5 -28.5v-69q-72 4 -104 6q-82 4 -150 4q-86 0 -321 -10v69q2 0 6.5 1.5t10.5 3t9 2.5q82 19 102 33.5t23 60.5q9 190 9 383q0 162 -10 199.5t-56 37.5
q-34 0 -88 -6zM637 1092h-104q-18 15 -94 71.5t-105 79.5q-1 0 -4.5 2.5t-9 6t-8.5 5.5q-10 -7 -39 -30t-61 -49.5t-37 -30.5q-16 -13 -35.5 -27.5t-34.5 -27.5h-100q2 2 10 13t10 13q85 127 188 293q111 -2 226 0q58 -112 198 -319z" />
    <glyph glyph-name="idieresis" unicode="&#xef;" horiz-adv-x="641" 
d="M39 774v72q232 41 391 139l51 -29q-13 -118 -16 -192.5t-8 -374.5q-2 -144 1.5 -204t16.5 -76q12 -12 37.5 -21.5t95.5 -28.5v-69q-72 4 -104 6q-82 4 -150 4q-86 0 -321 -10v69q2 0 6.5 1.5t10.5 3t9 2.5q82 19 102 33.5t23 60.5q9 190 9 383q0 162 -10 199.5t-56 37.5
q-34 0 -88 -6zM502 1378q55 0 93 -38t38 -91q0 -55 -38.5 -93t-92.5 -38t-92.5 38t-38.5 93q0 53 38 91t93 38zM142 1378q55 0 93 -38t38 -91q0 -55 -38.5 -93t-92.5 -38t-92.5 38t-38.5 93q0 53 38 91t93 38z" />
    <glyph glyph-name="eth" unicode="&#xf0;" horiz-adv-x="1130" 
d="M297 1053l-45 90l188 102q-61 61 -143 123l51 90q121 -64 230 -141l260 141l49 -90l-219 -123q51 -39 98.5 -83t103 -113t95.5 -143.5t67 -173t27 -202.5q0 -103 -29 -216t-100 -195q-130 -154 -375 -154q-218 0 -350.5 125t-132.5 365q0 210 118 353.5t306 143.5
q70 0 166 -30q-40 84 -69.5 133t-80.5 110zM373 530q0 -469 209 -469q52 0 87.5 28.5t54.5 82t26.5 116.5t7.5 146q0 143 -33 260q-46 162 -172 162q-180 0 -180 -326z" />
    <glyph glyph-name="ntilde" unicode="&#xf1;" horiz-adv-x="1150" 
d="M14 764v74q146 30 231 62t163 75l53 -31q-16 -85 -21 -162l4 -4q50 58 74.5 84t62.5 56.5t74.5 41.5t83.5 11q24 0 49.5 -4.5t59.5 -16t64.5 -38t48.5 -64.5q15 -29 21.5 -76t7.5 -90t1 -160q0 -358 4 -389q3 -27 22.5 -39.5t84.5 -25.5q28 -5 37 -9v-69q-41 2 -127 6
t-131 4q-70 0 -275 -10v69q55 12 77.5 23t31.5 31q12 31 12 362q0 67 -0.5 97t-4 74t-11 62t-21 38.5t-34.5 27t-52 6.5q-94 0 -147 -102q-17 -31 -22 -97t-5 -214q0 -213 10 -250q5 -15 20.5 -25.5t59.5 -23.5q5 -1 17 -5t14 -4v-69q-47 3 -111 6q-82 4 -143 4
q-38 0 -283 -10v69q116 30 127 43q27 29 27 338q0 256 -4 283q-11 51 -62 51q-35 0 -88 -10zM838 1378h88q-56 -262 -198 -262q-50 0 -158 43q-131 51 -166 51q-23 0 -42 -18t-27.5 -34.5t-18.5 -41.5h-88q15 66 36 115.5t41.5 76.5t44 44t40.5 21.5t34 4.5q31 0 66.5 -10.5
t120.5 -44.5q110 -43 145 -43q33 0 49.5 23t32.5 75z" />
    <glyph glyph-name="ograve" unicode="&#xf2;" horiz-adv-x="1130" 
d="M74 485q0 74 17.5 143.5t57 134t97 112t143 76t189.5 28.5q223 0 351 -124t128 -349q0 -76 -14 -147.5t-49.5 -144.5t-90 -127t-144 -88t-202.5 -34q-247 0 -367 141q-116 138 -116 379zM373 539q0 -54 3 -103.5t11 -106.5t23 -102.5t37 -84t56 -60t77 -21.5
q55 0 92.5 30.5t55.5 86.5t25 113.5t7 132.5q0 461 -205 461q-182 0 -182 -346zM708 1081h-88q-60 68 -155.5 170t-147.5 152l14 24q49 -2 123 -2q70 0 133 2q19 -57 58 -163q44 -131 63 -183z" />
    <glyph glyph-name="oacute" unicode="&#xf3;" horiz-adv-x="1130" 
d="M74 485q0 74 17.5 143.5t57 134t97 112t143 76t189.5 28.5q223 0 351 -124t128 -349q0 -76 -14 -147.5t-49.5 -144.5t-90 -127t-144 -88t-202.5 -34q-247 0 -367 141q-116 138 -116 379zM373 539q0 -54 3 -103.5t11 -106.5t23 -102.5t37 -84t56 -60t77 -21.5
q55 0 92.5 30.5t55.5 86.5t25 113.5t7 132.5q0 461 -205 461q-182 0 -182 -346zM800 1423l15 -24q-52 -50 -147.5 -152t-155.5 -170h-88q19 52 63 183q24 66 57 163q63 -2 134 -2q73 0 122 2z" />
    <glyph glyph-name="ocircumflex" unicode="&#xf4;" horiz-adv-x="1130" 
d="M74 485q0 74 17.5 143.5t57 134t97 112t143 76t189.5 28.5q223 0 351 -124t128 -349q0 -76 -14 -147.5t-49.5 -144.5t-90 -127t-144 -88t-202.5 -34q-247 0 -367 141q-116 138 -116 379zM373 539q0 -54 3 -103.5t11 -106.5t23 -102.5t37 -84t56 -60t77 -21.5
q55 0 92.5 30.5t55.5 86.5t25 113.5t7 132.5q0 461 -205 461q-182 0 -182 -346zM882 1092h-104q-18 15 -94 71.5t-105 79.5q-1 0 -4.5 2.5t-9 6t-8.5 5.5q-10 -7 -39 -30t-61 -49.5t-37 -30.5q-16 -13 -35.5 -27.5t-34.5 -27.5h-100q2 2 10 13t10 13q85 127 188 293
q111 -2 226 0q58 -112 198 -319z" />
    <glyph glyph-name="otilde" unicode="&#xf5;" horiz-adv-x="1130" 
d="M74 485q0 74 17.5 143.5t57 134t97 112t143 76t189.5 28.5q223 0 351 -124t128 -349q0 -76 -14 -147.5t-49.5 -144.5t-90 -127t-144 -88t-202.5 -34q-247 0 -367 141q-116 138 -116 379zM373 539q0 -54 3 -103.5t11 -106.5t23 -102.5t37 -84t56 -60t77 -21.5
q55 0 92.5 30.5t55.5 86.5t25 113.5t7 132.5q0 461 -205 461q-182 0 -182 -346zM827 1378h88q-56 -262 -198 -262q-50 0 -158 43q-131 51 -166 51q-23 0 -42 -18t-27.5 -34.5t-18.5 -41.5h-88q15 66 36 115.5t41.5 76.5t44 44t40.5 21.5t34 4.5q31 0 66.5 -10.5t120.5 -44.5
q110 -43 145 -43q33 0 49.5 23t32.5 75z" />
    <glyph glyph-name="odieresis" unicode="&#xf6;" horiz-adv-x="1130" 
d="M74 485q0 74 17.5 143.5t57 134t97 112t143 76t189.5 28.5q223 0 351 -124t128 -349q0 -76 -14 -147.5t-49.5 -144.5t-90 -127t-144 -88t-202.5 -34q-247 0 -367 141q-116 138 -116 379zM373 539q0 -54 3 -103.5t11 -106.5t23 -102.5t37 -84t56 -60t77 -21.5
q55 0 92.5 30.5t55.5 86.5t25 113.5t7 132.5q0 461 -205 461q-182 0 -182 -346zM747 1378q55 0 93 -38t38 -91q0 -55 -38.5 -93t-92.5 -38t-92.5 38t-38.5 93q0 53 38 91t93 38zM387 1378q55 0 93 -38t38 -91q0 -55 -38.5 -93t-92.5 -38t-92.5 38t-38.5 93q0 53 38 91t93 38
z" />
    <glyph glyph-name="divide" unicode="&#xf7;" 
d="M795 1106q0 -47 -34 -80t-81 -33q-46 0 -79.5 33t-33.5 80t33.5 80t79.5 33q47 0 81 -33t34 -80zM795 279q0 -47 -34 -80t-81 -33q-46 0 -79.5 33t-33.5 80t33.5 79.5t79.5 32.5q48 0 81.5 -32.5t33.5 -79.5zM131 780h1104v-176h-1104v176z" />
    <glyph glyph-name="oslash" unicode="&#xf8;" horiz-adv-x="1130" 
d="M268 37l-104 -117l-86 74l104 121q-108 142 -108 352q0 164 65.5 281t177 174t256.5 57q77 0 139.5 -13.5t91.5 -27t64 -35.5l99 113l86 -76l-99 -113q21 -27 31.5 -44t31 -58t30.5 -96t10 -123q0 -49 -6 -97.5t-21.5 -103.5t-40 -102.5t-64.5 -92t-91 -76t-123 -50.5
t-158 -19q-174 0 -285 72zM750 592l-334 -385q10 -28 18.5 -45t27.5 -44.5t49 -42t69 -14.5q56 0 93.5 31t55.5 88t24.5 114t6.5 132q0 78 -10 166zM385 348l336 387q-7 19 -12 32t-19.5 37.5t-30.5 40t-43.5 28t-60.5 12.5q-182 0 -182 -340q0 -80 12 -197z" />
    <glyph glyph-name="ugrave" unicode="&#xf9;" horiz-adv-x="1130" 
d="M1130 143v-73q-153 -20 -236 -43t-163 -58l-47 31q11 65 16 143q-111 -103 -164 -135.5t-126 -32.5q-125 0 -193 70q-41 46 -50 106t-9 234q0 245 -2 308t-11 89q-7 28 -38.5 40t-108.5 18v67q105 7 192 21t115 21.5t86 23.5l47 -29q-22 -143 -22 -459q0 -63 1 -101
t5.5 -80t13 -65.5t23 -44t36 -28.5t52.5 -8q72 0 117 51q32 34 39 89.5t10 276.5q2 107 -2 159t-11 65.5t-24 19.5q-30 12 -119 21v67q170 16 245.5 29.5t149.5 36.5l47 -29q-10 -59 -14.5 -103t-8 -163t-3.5 -320q0 -154 10.5 -185.5t63.5 -31.5zM708 1081h-88
q-60 68 -155.5 170t-147.5 152l14 24q49 -2 123 -2q70 0 133 2q19 -57 58 -163q44 -131 63 -183z" />
    <glyph glyph-name="uacute" unicode="&#xfa;" horiz-adv-x="1130" 
d="M1130 143v-73q-153 -20 -236 -43t-163 -58l-47 31q11 65 16 143q-111 -103 -164 -135.5t-126 -32.5q-125 0 -193 70q-41 46 -50 106t-9 234q0 245 -2 308t-11 89q-7 28 -38.5 40t-108.5 18v67q105 7 192 21t115 21.5t86 23.5l47 -29q-22 -143 -22 -459q0 -63 1 -101
t5.5 -80t13 -65.5t23 -44t36 -28.5t52.5 -8q72 0 117 51q32 34 39 89.5t10 276.5q2 107 -2 159t-11 65.5t-24 19.5q-30 12 -119 21v67q170 16 245.5 29.5t149.5 36.5l47 -29q-10 -59 -14.5 -103t-8 -163t-3.5 -320q0 -154 10.5 -185.5t63.5 -31.5zM800 1423l15 -24
q-52 -50 -147.5 -152t-155.5 -170h-88q19 52 63 183q24 66 57 163q63 -2 134 -2q73 0 122 2z" />
    <glyph glyph-name="ucircumflex" unicode="&#xfb;" horiz-adv-x="1130" 
d="M1130 143v-73q-153 -20 -236 -43t-163 -58l-47 31q11 65 16 143q-111 -103 -164 -135.5t-126 -32.5q-125 0 -193 70q-41 46 -50 106t-9 234q0 245 -2 308t-11 89q-7 28 -38.5 40t-108.5 18v67q105 7 192 21t115 21.5t86 23.5l47 -29q-22 -143 -22 -459q0 -63 1 -101
t5.5 -80t13 -65.5t23 -44t36 -28.5t52.5 -8q72 0 117 51q32 34 39 89.5t10 276.5q2 107 -2 159t-11 65.5t-24 19.5q-30 12 -119 21v67q170 16 245.5 29.5t149.5 36.5l47 -29q-10 -59 -14.5 -103t-8 -163t-3.5 -320q0 -154 10.5 -185.5t63.5 -31.5zM882 1092h-104
q-18 15 -94 71.5t-105 79.5q-1 0 -4.5 2.5t-9 6t-8.5 5.5q-10 -7 -39 -30t-61 -49.5t-37 -30.5q-16 -13 -35.5 -27.5t-34.5 -27.5h-100q2 2 10 13t10 13q85 127 188 293q111 -2 226 0q58 -112 198 -319z" />
    <glyph glyph-name="udieresis" unicode="&#xfc;" horiz-adv-x="1130" 
d="M1130 143v-73q-153 -20 -236 -43t-163 -58l-47 31q11 65 16 143q-111 -103 -164 -135.5t-126 -32.5q-125 0 -193 70q-41 46 -50 106t-9 234q0 245 -2 308t-11 89q-7 28 -38.5 40t-108.5 18v67q105 7 192 21t115 21.5t86 23.5l47 -29q-22 -143 -22 -459q0 -63 1 -101
t5.5 -80t13 -65.5t23 -44t36 -28.5t52.5 -8q72 0 117 51q32 34 39 89.5t10 276.5q2 107 -2 159t-11 65.5t-24 19.5q-30 12 -119 21v67q170 16 245.5 29.5t149.5 36.5l47 -29q-10 -59 -14.5 -103t-8 -163t-3.5 -320q0 -154 10.5 -185.5t63.5 -31.5zM747 1378q55 0 93 -38
t38 -91q0 -55 -38.5 -93t-92.5 -38t-92.5 38t-38.5 93q0 53 38 91t93 38zM387 1378q55 0 93 -38t38 -91q0 -55 -38.5 -93t-92.5 -38t-92.5 38t-38.5 93q0 53 38 91t93 38z" />
    <glyph glyph-name="yacute" unicode="&#xfd;" horiz-adv-x="1024" 
d="M2 874v70q165 -10 281 -10q97 0 272 10v-70q-8 -4 -25 -4q-54 -9 -72 -20t-18 -31q0 -13 23 -65l149 -375l119 352q19 55 19 86q0 23 -18 34t-62 23v70q112 -10 186 -10q99 0 164 10v-70q-5 -2 -20 -7t-19 -6.5t-15.5 -6t-15 -6.5t-12 -6t-12 -7.5t-9.5 -8.5t-10 -10.5
t-8 -12.5q-10 -17 -35 -79.5t-48 -123t-53.5 -143t-37.5 -101.5q-134 -359 -176.5 -462t-87.5 -175q-43 -69 -113 -109t-141 -40q-36 0 -90 12q-21 76 -36 114.5t-48 104.5l57 37q29 -27 47.5 -41t48.5 -26.5t62 -12.5q34 0 62.5 10.5t51 33t38.5 43.5t32.5 58.5t25 59.5
t23.5 64l-88 200q-30 66 -59 138q-18 45 -87 199.5t-77 168.5q-17 37 -30 58t-35.5 36.5t-40 23t-62.5 23.5zM747 1423l15 -24q-52 -50 -147.5 -152t-155.5 -170h-88q19 52 63 183q24 66 57 163q63 -2 134 -2q73 0 122 2z" />
    <glyph glyph-name="thorn" unicode="&#xfe;" horiz-adv-x="1110" 
d="M406 1458l51 -31q-23 -205 -31 -647h4q0 3 8 11q42 46 60 64.5t50.5 47t55.5 39.5t56.5 20t72.5 9q144 0 227.5 -121.5t83.5 -308.5q0 -130 -43.5 -239.5t-113 -179.5t-153 -108.5t-167.5 -38.5q-77 0 -143 35q0 -70 1 -131t2 -95t1 -38q2 -35 9 -48.5t34.5 -26.5
t97.5 -31l35 -11v-69q-57 4 -155 8q-49 2 -156 2q-95 0 -295 -10v69q12 6 27 6q78 21 105 41.5t28 63.5q7 93 7.5 680t-3.5 737q0 25 -1 38t-6.5 30t-18.5 24.5t-34 7.5q-54 0 -90 -8v72q30 10 43 10q125 29 198 56.5t153 70.5zM424 496v-353q27 -20 40 -29t45 -21.5
t64 -12.5q193 0 193 348q0 165 -49 255.5t-131 90.5q-33 0 -59 -12.5t-42.5 -28t-28.5 -46t-17.5 -49t-9.5 -55t-4 -47t-1 -40.5z" />
    <glyph glyph-name="ydieresis" unicode="&#xff;" horiz-adv-x="1024" 
d="M2 874v70q165 -10 281 -10q97 0 272 10v-70q-8 -4 -25 -4q-54 -9 -72 -20t-18 -31q0 -13 23 -65l149 -375l119 352q19 55 19 86q0 23 -18 34t-62 23v70q112 -10 186 -10q99 0 164 10v-70q-5 -2 -20 -7t-19 -6.5t-15.5 -6t-15 -6.5t-12 -6t-12 -7.5t-9.5 -8.5t-10 -10.5
t-8 -12.5q-10 -17 -35 -79.5t-48 -123t-53.5 -143t-37.5 -101.5q-134 -359 -176.5 -462t-87.5 -175q-43 -69 -113 -109t-141 -40q-36 0 -90 12q-21 76 -36 114.5t-48 104.5l57 37q29 -27 47.5 -41t48.5 -26.5t62 -12.5q34 0 62.5 10.5t51 33t38.5 43.5t32.5 58.5t25 59.5
t23.5 64l-88 200q-30 66 -59 138q-18 45 -87 199.5t-77 168.5q-17 37 -30 58t-35.5 36.5t-40 23t-62.5 23.5zM694 1378q55 0 93 -38t38 -91q0 -55 -38.5 -93t-92.5 -38t-92.5 38t-38.5 93q0 53 38 91t93 38zM334 1378q55 0 93 -38t38 -91q0 -55 -38.5 -93t-92.5 -38
t-92.5 38t-38.5 93q0 53 38 91t93 38z" />
    <glyph glyph-name="dotlessi" unicode="&#x131;" horiz-adv-x="641" 
d="M39 774v72q232 41 391 139l51 -29q-13 -118 -16 -192.5t-8 -374.5q-2 -144 1.5 -204t16.5 -76q12 -12 37.5 -21.5t95.5 -28.5v-69q-72 4 -104 6q-82 4 -150 4q-86 0 -321 -10v69q2 0 6.5 1.5t10.5 3t9 2.5q82 19 102 33.5t23 60.5q9 190 9 383q0 162 -10 199.5t-56 37.5
q-34 0 -88 -6z" />
    <glyph glyph-name="Lslash" unicode="&#x141;" 
d="M16 1335v72q235 -10 402 -10q104 0 387 10v-72l-47 -8q-30 -3 -92 -14t-78 -17q-13 -4 -21 -13t-11.5 -23.5t-4 -24.5t-0.5 -29l-2 -305l266 225v-157l-266 -226v-624h362q45 0 68 1.5t52 12t45.5 24t45.5 49t54 76t69 113.5h90q-70 -190 -131 -405q-114 3 -407 8
q-125 2 -299 2q-217 0 -482 -10v73q14 0 41 9q127 24 150 36q25 14 29 50q1 8 2 20q2 51 2 256v49l-228 -192v160l228 192q0 481 -2 557q-3 68 -28.5 86t-137.5 39q-29 3 -56 10z" />
    <glyph glyph-name="lslash" unicode="&#x142;" horiz-adv-x="618" 
d="M23 1249v72q133 31 213.5 58t181.5 79l49 -35q-21 -185 -25 -346l-2 -153l150 127v-158l-152 -129q-3 -48 -1.5 -327.5t9.5 -307.5q6 -22 36.5 -37.5t103.5 -32.5v-69q-42 3 -115 6q-94 4 -168 4q-135 0 -287 -10v69q75 17 103 29.5t37 32.5q17 36 20 302v36v82
l-168 -144v158l168 143q1 92 1 174.5t-0.5 137t-1 94t-1 60.5t-0.5 22q-1 15 -3 24t-8.5 21.5t-22 19t-38.5 6.5q-27 0 -79 -8z" />
    <glyph glyph-name="OE" unicode="&#x152;" horiz-adv-x="2240" 
d="M2109 1044h-81l-13 35q-12 40 -21.5 68.5t-21 51.5l-18.5 37t-21 24t-22.5 15t-28.5 7.5t-32.5 3t-41.5 0.5h-378q-5 -77 -5 -96q-2 -78 -2 -402h172q127 0 161 22.5t61 139.5q1 6 3 15t3.5 15.5t1.5 8.5h84q-11 -151 -11 -276q0 -73 11 -246h-84q0 3 -3.5 18.5
t-4.5 22.5q-5 29 -8 46t-9.5 36t-9 28.5t-12.5 21t-14.5 16t-21 10t-25.5 6.5t-34 2.5t-40.5 1.5h-51.5h-168v-559h392q37 0 52.5 0.5t40 8.5t36 18.5t36.5 40.5t47 63t62 96q25 35 27 41h90q-76 -212 -131 -395q-83 4 -344 8q-115 2 -238 2q-212 0 -317 -6l-293 -4
q-85 0 -149.5 5t-146 21t-155.5 52t-137 92q-101 91 -156 235t-55 307q0 116 30 220.5t93 194t154 154t220.5 101.5t284.5 37q7 0 128 -4t139 -4q136 -4 245 -4q234 0 709 10q0 -173 22 -363zM1118 979q0 225 -10 250q-17 40 -76.5 55.5t-124.5 15.5q-118 0 -208 -38
t-142.5 -96t-85.5 -139t-44 -156t-11 -158q0 -338 192 -508q122 -107 350 -107q112 0 134 39.5t24 207.5v1q2 88 2 633z" />
    <glyph glyph-name="oe" unicode="&#x153;" horiz-adv-x="1622" 
d="M1513 260l56 -76q-184 -139 -266 -179t-173 -40q-47 0 -87 9t-64.5 20t-49 31.5t-34.5 32t-27 32.5q-20 -21 -31.5 -32t-41.5 -31.5t-59.5 -31.5t-79 -20.5t-107.5 -9.5q-253 0 -373 158q-102 137 -102 346q0 240 135.5 375t365.5 135q72 0 126 -12t90.5 -37t55 -44
t42.5 -52q21 24 31.5 35t42.5 36t62 38t80.5 24.5t108.5 11.5q54 0 99.5 -9.5t78.5 -23t59.5 -37t43.5 -44t29.5 -51t19 -51t10.5 -51.5t5 -45t2 -38q-47 -31 -88 -74q-86 4 -265 4q-152 0 -209 -4q0 -32 0.5 -53.5t5.5 -66.5t13.5 -76.5t27 -71.5t44 -65t66 -42.5
t91.5 -17.5t101.5 15.5t82 33t82.5 49.5zM371 528q0 -29 1 -57t5.5 -77.5t12.5 -90.5t24 -87.5t37.5 -78.5t55 -53t75.5 -21q39 0 69.5 16t48.5 46t30 62.5t17.5 78t7 78.5t1.5 76q0 459 -201 459q-184 0 -184 -351zM1298 664q-1 31 -4 55t-12.5 54.5t-23.5 50.5t-40 34
t-61 14q-138 0 -162 -215q186 0 303 7z" />
    <glyph glyph-name="Scaron" unicode="&#x160;" horiz-adv-x="1130" 
d="M983 1001h-98l-9 48t-11 48t-14.5 49.5t-19.5 45.5t-27 44t-34.5 35t-44 29.5t-55 17.5t-68.5 7q-97 0 -158 -50t-61 -140q0 -37 9.5 -65t38.5 -62.5t89 -71.5t154 -80q66 -29 110.5 -53t99 -64t86.5 -83t54.5 -106.5t22.5 -139.5q0 -28 -4 -58t-18 -76.5t-37.5 -87.5
t-67.5 -84t-102 -74t-147 -51t-198 -20q-88 0 -167.5 11t-120.5 21.5t-97 28.5q18 206 16 414h99q9 -46 14.5 -71t18.5 -68.5t26 -68.5t36 -57t50.5 -49t67.5 -29.5t88 -12.5q112 0 173.5 65.5t61.5 157.5q0 45 -15 83t-37.5 65.5t-64.5 56t-80 48t-100 48.5
q-199 94 -277.5 186.5t-78.5 223.5q0 61 16.5 119t56 114.5t98.5 98.5t151 68t206 26q178 0 369 -66q-6 -167 -6 -217q0 -75 6 -154zM250 1835h104q18 -15 94 -71.5t105 -79.5q1 0 4.5 -3t9 -6.5t8.5 -5.5q10 7 39 30.5t60.5 49.5t37.5 31q16 13 35.5 27.5t34.5 27.5h100
q-2 -2 -10 -13.5t-10 -13.5q-93 -139 -188 -292q-111 2 -226 0q-58 112 -198 319z" />
    <glyph glyph-name="scaron" unicode="&#x161;" horiz-adv-x="831" 
d="M84 319h90q48 -253 227 -253q62 0 96.5 33t34.5 77q0 25 -11 47.5t-25 39t-48 40t-57.5 38t-75.5 44.5q-125 72 -181 140.5t-56 160.5q0 123 99 208t284 85q135 0 274 -59q-10 -39 -13.5 -71t-14.5 -179l-89 2q-19 102 -63 159.5t-125 57.5q-50 0 -83.5 -27t-33.5 -76
q0 -26 9 -45.5t53.5 -56t130.5 -84.5q94 -53 146 -94t82 -94.5t30 -122.5q0 -16 -1.5 -32.5t-10 -51t-23 -63.5t-45.5 -63t-72.5 -58t-107.5 -40t-148 -16q-24 0 -47.5 1.5t-41.5 3t-40 5t-34.5 5.5t-34 7t-29.5 7t-30.5 8t-28.5 8l2 47q9 114 12 262zM101 1411h104
q18 -15 94 -71.5t105 -79.5q1 0 4.5 -3t9 -6.5t8.5 -5.5q10 7 39 30.5t60.5 49.5t37.5 31q16 13 35.5 27.5t34.5 27.5h100q-2 -2 -10 -13.5t-10 -13.5q-93 -139 -188 -292q-111 2 -226 0q-58 112 -198 319z" />
    <glyph glyph-name="Ydieresis" unicode="&#x178;" horiz-adv-x="1536" 
d="M2 1335v72q28 0 179.5 -5t176.5 -5q43 0 113.5 2t146.5 4.5t99 3.5v-72q-7 -3 -35 -8q-28 -7 -41 -10.5t-34 -11t-30.5 -17.5t-9.5 -22q0 -16 17 -41q22 -33 69.5 -118.5t57.5 -102.5q95 -169 127 -222q4 -12 26 -45l162 295q129 226 129 246q0 18 -23 27.5t-96 23.5
q-27 5 -28 6v72q254 -10 272 -10q10 0 260 10v-72q-125 -25 -169 -51t-97 -108q-32 -48 -320 -527q-9 -9 -28 -47v-319q0 -95 4 -127q6 -38 37 -51t149 -35q4 -1 12 -2.5t13.5 -3t7.5 -1.5v-73q-176 5 -197 6q-126 4 -174 4q-42 0 -205.5 -5t-179.5 -5v73q3 0 21.5 4t25.5 5
q39 6 59 9t43.5 11t32.5 11t20.5 18.5t13.5 24t5.5 35.5t3.5 45.5v62.5v295q-4 4 -46 71t-91 146t-59 94q-86 138 -174 276q-54 83 -97.5 112t-148.5 52zM960 1802q55 0 93 -38t38 -91q0 -55 -38.5 -93t-92.5 -38t-92.5 38t-38.5 93q0 53 38 91t93 38zM600 1802q55 0 93 -38
t38 -91q0 -55 -38.5 -93t-92.5 -38t-92.5 38t-38.5 93q0 53 38 91t93 38z" />
    <glyph glyph-name="Zcaron" unicode="&#x17d;" horiz-adv-x="1323" 
d="M209 1010h-82q20 178 29 397q272 -10 536 -10q131 0 561 10v-84q-141 -191 -610 -879q-174 -256 -215 -325h442q53 0 80 1t61.5 9.5t51.5 24.5q74 68 127 241h90q-21 -102 -41 -192q-22 -113 -27 -172q-6 -12 -6 -41q-42 2 -282 6q-238 4 -267 4h-36q-138 0 -578 -10v80
q17 26 51 74.5t76 109.5q64 93 182 264q281 403 455 672q6 7 27 41t26 43h-405q-30 0 -43.5 -0.5t-36 -2.5t-32.5 -7t-26 -14.5t-24.5 -23.5t-20.5 -34.5t-21.5 -48t-19.5 -64.5q-11 -40 -22 -69zM357 1835h104q18 -15 94 -71.5t105 -79.5q1 0 4.5 -3t9 -6.5t8.5 -5.5
q10 7 39 30.5t60.5 49.5t37.5 31q16 13 35.5 27.5t34.5 27.5h100q-2 -2 -10 -13.5t-10 -13.5q-93 -139 -188 -292q-111 2 -226 0q-58 112 -198 319z" />
    <glyph glyph-name="zcaron" unicode="&#x17e;" horiz-adv-x="980" 
d="M209 631h-84q13 105 16 315q200 -10 389 -10q195 0 385 10v-82q-2 -2 -206 -303q-9 -15 -18.5 -29t-18 -25.5t-10.5 -14.5l-256 -379q191 2 235.5 3.5t71.5 8.5q39 11 54.5 50t37.5 149h92q-12 -129 -12 -334q-62 3 -168 6q-136 4 -240 4q-206 0 -414 -10v76q3 4 10 14.5
t17.5 25t15.5 21.5q16 22 420 618l49 72q-169 -2 -209 -3.5t-65 -8.5q-29 -10 -49 -45t-43 -129zM175 1411h104q18 -15 94 -71.5t105 -79.5q1 0 4.5 -3t9 -6.5t8.5 -5.5q10 7 39 30.5t60.5 49.5t37.5 31q16 13 35.5 27.5t34.5 27.5h100q-2 -2 -10 -13.5t-10 -13.5
q-93 -139 -188 -292q-111 2 -226 0q-58 112 -198 319z" />
    <glyph glyph-name="florin" unicode="&#x192;" horiz-adv-x="1044" 
d="M971 1188l-84 10v30t-1.5 31.5t-4.5 34t-9.5 29t-15.5 26.5t-23.5 16t-33.5 7q-55 0 -84 -59q-20 -43 -36.5 -175t-23.5 -239h86q80 0 146 12l10 -24q-28 -45 -53 -105q-98 13 -201 11q-8 -100 -40 -396.5t-42 -359.5q-34 -220 -137.5 -343.5t-237.5 -123.5
q-100 0 -182 61q52 85 90 164h33q12 -41 41 -79t68 -38q21 0 36.5 9t24 21.5t14 36.5t7.5 41t4 50l4 55q11 120 20 330q1 20 23 291q1 5 2 17.5t2.5 32.5t3.5 36q4 64 7 100.5t5.5 58t3.5 36.5q-61 0 -143 -7l18 78q83 23 135 47q0 6 5 31q17 163 32.5 226.5t67.5 131.5
q56 74 140.5 116t176.5 42q125 0 219 -59q-34 -76 -48.5 -117t-24.5 -94z" />
    <glyph glyph-name="circumflex" unicode="&#x2c6;" horiz-adv-x="681" 
d="M657 1092h-104q-18 15 -94 71.5t-105 79.5q-1 0 -4.5 2.5t-9 6t-8.5 5.5q-10 -7 -39 -30t-61 -49.5t-37 -30.5q-16 -13 -35.5 -27.5t-34.5 -27.5h-100q2 2 10 13t10 13q85 127 188 293q111 -2 226 0q58 -112 198 -319z" />
    <glyph glyph-name="caron" unicode="&#x2c7;" horiz-adv-x="681" 
d="M25 1411h104q18 -15 94 -71.5t105 -79.5q1 0 4.5 -3t9 -6.5t8.5 -5.5q10 7 39 30.5t60.5 49.5t37.5 31q16 13 35.5 27.5t34.5 27.5h100q-2 -2 -10 -13.5t-10 -13.5q-93 -139 -188 -292q-111 2 -226 0q-58 112 -198 319z" />
    <glyph glyph-name="breve" unicode="&#x2d8;" horiz-adv-x="681" 
d="M37 1391h92q4 -17 8.5 -27.5t19.5 -30.5t35.5 -32t60 -21.5t91.5 -9.5q56 0 96.5 11t63.5 33t32.5 37t20.5 40h90q-3 -32 -6.5 -50.5t-13.5 -50.5t-31 -61t-53 -55q-76 -62 -197 -62q-281 0 -309 279z" />
    <glyph glyph-name="dotaccent" unicode="&#x2d9;" horiz-adv-x="681" 
d="M342 1378q55 0 93 -38t38 -91q0 -55 -38.5 -93t-92.5 -38t-92.5 38t-38.5 93q0 53 38 91t93 38z" />
    <glyph glyph-name="ring" unicode="&#x2da;" horiz-adv-x="681" 
d="M342 1479q88 0 151.5 -63.5t63.5 -153.5q0 -88 -62.5 -151.5t-152.5 -63.5q-89 0 -153 63t-64 152q0 91 64 154t153 63zM342 1364q-43 0 -73.5 -29.5t-30.5 -72.5q0 -42 30 -72.5t74 -30.5q43 0 72.5 30.5t29.5 72.5t-30 72t-72 30z" />
    <glyph glyph-name="ogonek" unicode="&#x2db;" horiz-adv-x="681" 
d="M289 14h123q-93 -81 -93 -166q0 -38 26.5 -69t84.5 -31q53 0 156 41l37 -70q-77 -52 -141 -78t-142 -26q-58 0 -100 17.5t-62 44.5t-28.5 52t-8.5 48q0 123 148 237z" />
    <glyph glyph-name="tilde" unicode="&#x2dc;" horiz-adv-x="681" 
d="M602 1378h88q-56 -262 -198 -262q-50 0 -158 43q-131 51 -166 51q-23 0 -42 -18t-27.5 -34.5t-18.5 -41.5h-88q15 66 36 115.5t41.5 76.5t44 44t40.5 21.5t34 4.5q31 0 66.5 -10.5t120.5 -44.5q110 -43 145 -43q33 0 49.5 23t32.5 75z" />
    <glyph glyph-name="hungarumlaut" unicode="&#x2dd;" horiz-adv-x="681" 
d="M162 1077h-92q85 239 118 350q6 0 49.5 -2t65.5 -2q24 0 71.5 2t49.5 2l10 -28q-114 -127 -246 -289zM492 1077h-93q79 222 117 350q8 0 51.5 -2t65.5 -2q24 0 70.5 2t50.5 2l10 -28q-114 -127 -246 -289q-19 -19 -26 -33z" />
    <glyph glyph-name="Delta" unicode="&#x394;" horiz-adv-x="1075" 
d="M1034 0h-989l393 1458h213zM727 102l-260 977l-274 -977h534z" />
    <glyph glyph-name="Delta" unicode="&#x2206;" horiz-adv-x="1075" 
d="M1034 0h-989l393 1458h213zM727 102l-260 977l-274 -977h534z" />
    <glyph glyph-name="Omega" unicode="&#x3a9;" horiz-adv-x="1284" 
d="M1204 0h-493v338q77 59 113 203t36 299q0 268 -59 400t-162 132q-59 0 -103.5 -40t-71.5 -112t-40.5 -167t-13.5 -211q0 -189 44.5 -332.5t123.5 -181.5v-328h-498v375h72q0 -31 0.5 -45t4 -42t11.5 -42t22 -30.5t38 -24t57 -7.5h180v68q-56 24 -106.5 56.5t-100.5 84
t-86 114t-58 148.5t-22 185q0 173 62.5 311.5t188.5 222.5t296 84q101 0 191 -34.5t155.5 -94t113 -137t71.5 -166.5t24 -180q0 -197 -103 -361.5t-268 -222.5v-78h176q38 0 64.5 12.5t39.5 29t20.5 46t8.5 50t1 53.5h71v-375z" />
    <glyph glyph-name="pi" unicode="&#x3c0;" horiz-adv-x="954" 
d="M911 231q-48 -256 -159 -256q-59 0 -97.5 19.5t-50.5 46.5q-39 70 -39 254v463h-166v-312q0 -300 -61 -403q-41 -68 -158 -68q-28 0 -53 23.5t-25 62.5q0 65 60 93q48 21 61 96.5t13 241.5v266h-33q-43 0 -65 -27t-32 -96l-65 18q3 150 57 242t138 92h641v-229h-148v-350
q0 -150 16 -205q15 -60 48 -60q24 0 38 30.5t31 94.5z" />
    <glyph glyph-name="endash" unicode="&#x2013;" horiz-adv-x="1024" 
d="M-12 578h1048v-132h-1048v132z" />
    <glyph glyph-name="emdash" unicode="&#x2014;" horiz-adv-x="2048" 
d="M-12 578h2072v-132h-2072v132z" />
    <glyph glyph-name="quoteleft" unicode="&#x2018;" horiz-adv-x="704" 
d="M508 930l43 -53q-3 -5 -11.5 -16t-9.5 -13q-6 -6 -38.5 -46t-38.5 -46q-35 -43 -66 -90q-7 -14 -16 -23q-100 28 -152.5 102t-52.5 162q0 130 85 267t228 264l72 -74l-37 -47q-85 -112 -110 -172t-25 -109q0 -33 11 -57.5t27 -35t29 -15t23 -4.5q27 0 39 6z" />
    <glyph glyph-name="quoteright" unicode="&#x2019;" horiz-adv-x="704" 
d="M197 1151l-43 53q3 5 11 16t9 13q6 6 39 46t39 46q29 36 65 90q6 12 17 23q100 -28 152.5 -102t52.5 -162q0 -130 -85.5 -267t-228.5 -264l-71 74l36 47q85 113 110.5 172t25.5 108q0 33 -11 57.5t-27 35.5t-29 15.5t-23 4.5q-27 0 -39 -6z" />
    <glyph glyph-name="quotesinglbase" unicode="&#x201a;" horiz-adv-x="704" 
d="M195 43l-43 53q3 5 11 16t9 13q6 6 39 46t39 46q29 36 65 90q6 12 17 23q100 -28 152.5 -102t52.5 -162q0 -130 -85.5 -267t-228.5 -264l-71 74l36 47q85 113 110.5 172.5t25.5 108.5q0 33 -11 57.5t-27.5 35t-29.5 15t-23 4.5q-26 0 -38 -6z" />
    <glyph glyph-name="quotedblleft" unicode="&#x201c;" horiz-adv-x="1236" 
d="M510 930l43 -53q-3 -5 -11.5 -16t-9.5 -13q-6 -6 -38.5 -46t-38.5 -46q-35 -43 -66 -90q-7 -14 -16 -23q-100 28 -152.5 102t-52.5 162q0 130 85 267t228 264l72 -74l-37 -47q-85 -112 -110 -172t-25 -109q0 -33 11 -57.5t27 -35t29 -15t23 -4.5q27 0 39 6zM1042 930
l43 -53q-3 -5 -11 -16t-9 -13q-6 -6 -39 -46t-39 -46q-29 -36 -65 -90q-6 -12 -17 -23q-100 28 -152.5 102t-52.5 162q0 130 85.5 267t228.5 264l71 -74l-36 -47q-85 -113 -110.5 -172.5t-25.5 -108.5q0 -33 11 -57.5t27.5 -35t29.5 -15t23 -4.5q26 0 38 6z" />
    <glyph glyph-name="quotedblright" unicode="&#x201d;" horiz-adv-x="1236" 
d="M727 1151l-43 53q3 5 11.5 16t9.5 13q6 6 38.5 46t38.5 46q35 43 66 90q7 14 16 23q100 -28 152.5 -102t52.5 -162q0 -130 -85 -267t-228 -264l-72 74l37 47q85 112 110 171.5t25 108.5q0 33 -11 57.5t-27 35.5t-29 15.5t-23 4.5q-27 0 -39 -6zM195 1151l-43 53
q3 5 11 16t9 13q6 6 39 46t39 46q29 36 65 90q6 12 17 23q100 -28 152.5 -102t52.5 -162q0 -130 -85.5 -267t-228.5 -264l-71 74l36 47q85 113 110.5 172t25.5 108q0 33 -11 57.5t-27.5 35.5t-29.5 15.5t-23 4.5q-26 0 -38 -6z" />
    <glyph glyph-name="quotedblbase" unicode="&#x201e;" horiz-adv-x="1236" 
d="M727 43l-43 53q3 5 11.5 16t9.5 13q6 6 38.5 46t38.5 46q35 43 66 90q7 14 16 23q100 -28 152.5 -102t52.5 -162q0 -130 -85 -267t-228 -264l-72 74l37 47q85 112 110 172t25 109q0 33 -11 57.5t-27 35t-29 15t-23 4.5q-27 0 -39 -6zM195 43l-43 53q3 5 11 16t9 13
q6 6 39 46t39 46q29 36 65 90q6 12 17 23q100 -28 152.5 -102t52.5 -162q0 -130 -85.5 -267t-228.5 -264l-71 74l36 47q85 113 110.5 172.5t25.5 108.5q0 33 -11 57.5t-27.5 35t-29.5 15t-23 4.5q-26 0 -38 -6z" />
    <glyph glyph-name="dagger" unicode="&#x2020;" horiz-adv-x="980" 
d="M315 1458h361q-75 -223 -129 -457q168 43 379 111v-324q-116 41 -379 113q0 -8 3 -46.5t3 -45.5q34 -436 51.5 -613t71.5 -626h-361q14 155 39 371q40 368 53.5 514t32.5 446q-239 -66 -379 -113v324q66 -23 200.5 -62t178.5 -49q-35 155 -61 242q-37 115 -51 174z" />
    <glyph glyph-name="daggerdbl" unicode="&#x2021;" horiz-adv-x="917" 
d="M274 1458h367q-53 -140 -76 -212t-57 -199q168 50 297 98l45 16v-325q-154 57 -342 112q0 -3 4 -19.5t4 -19.5q51 -195 96 -336l17 -59q0 -2 -11.5 -40t-25.5 -83t-17 -57q-5 -19 -10 -37t-17 -63.5t-28 -104.5l-12 -53q163 47 342 114v-325q-183 70 -342 115
q36 -132 59 -203l60 -168q3 -6 14 -39h-367q108 295 136 410q-164 -49 -293 -97q-4 -1 -15 -5t-22.5 -8t-13.5 -5v325q76 -30 182.5 -65t161.5 -49q-38 150 -54 200q-2 6 -15.5 51t-25 84t-14.5 50q-7 18 -16 53q12 29 18 61q73 230 107 373q-76 -19 -189 -59
q-18 -5 -110 -39l-45 -14v325l38 -12q161 -59 306 -102q-33 132 -136 411z" />
    <glyph glyph-name="bullet" unicode="&#x2022;" horiz-adv-x="724" 
d="M647 676q0 -118 -83.5 -201.5t-201.5 -83.5q-119 0 -202.5 83.5t-83.5 201.5q0 119 84 203t202 84t201.5 -84t83.5 -203z" />
    <glyph glyph-name="ellipsis" unicode="&#x2026;" horiz-adv-x="2048" 
d="M1022 326q75 0 127.5 -53.5t52.5 -127.5t-52.5 -127t-127.5 -53t-127.5 53t-52.5 127t52.5 127.5t127.5 53.5zM1704 326q75 0 127.5 -53.5t52.5 -127.5t-52.5 -127t-127.5 -53t-127.5 53t-52.5 127t52.5 127.5t127.5 53.5zM340 326q75 0 127.5 -53.5t52.5 -127.5
t-52.5 -127t-127.5 -53t-127.5 53t-52.5 127t52.5 127.5t127.5 53.5z" />
    <glyph glyph-name="perthousand" unicode="&#x2030;" horiz-adv-x="2240" 
d="M262 1018q0 -61 3.5 -106.5t14 -90t32 -68.5t53.5 -24q58 0 80 83.5t22 256.5q0 31 -0.5 51t-3 58t-9.5 64t-17.5 53t-29 41t-42.5 14q-35 0 -56.5 -26t-34 -100.5t-12.5 -205.5zM66 1012q0 66 9.5 124.5t32.5 113.5t58 94.5t89.5 63.5t123.5 24t121 -23.5t82.5 -60
t49.5 -88.5t25.5 -101t6.5 -106q0 -117 -31.5 -205t-103.5 -142.5t-179 -54.5q-284 0 -284 361zM1079 1432h148l-805 -1512h-150zM838 305q0 75 17.5 142.5t54 125.5t100 92.5t147.5 34.5q68 0 120 -24.5t82 -61.5t48.5 -88.5t24.5 -98t6 -97.5q0 -80 -16 -150t-50.5 -130.5
t-98 -96t-149.5 -35.5q-286 0 -286 387zM1036 301q0 -95 7.5 -157.5t22.5 -92.5t31.5 -40.5t39.5 -10.5q47 0 65 37q37 76 37 305q0 143 -22.5 209.5t-79.5 66.5q-101 0 -101 -317zM1577 305q0 75 17.5 142.5t54 125.5t100 92.5t147.5 34.5q68 0 120 -24.5t81.5 -61.5
t47.5 -88.5t24 -98t6 -97.5q0 -64 -9 -120.5t-31.5 -111t-57.5 -93.5t-90 -63t-125 -24q-285 0 -285 387zM1776 301q0 -96 7 -158t22 -92t31 -40.5t40 -10.5q21 0 39.5 11t26.5 26q34 75 34 305q0 143 -22.5 209.5t-77.5 66.5q-100 0 -100 -317z" />
    <glyph glyph-name="guilsinglleft" unicode="&#x2039;" horiz-adv-x="555" 
d="M399 834h103l-178 -373l178 -373h-103q-21 27 -26 29q-15 18 -73.5 83t-76.5 83q-57 65 -135 143q-29 29 -33 35q84 84 185 194q4 4 34 37.5t57 63.5t34 39q24 24 34 39z" />
    <glyph glyph-name="guilsinglright" unicode="&#x203a;" horiz-adv-x="555" 
d="M156 88h-103l178 373l-178 373h103q21 -27 26 -29q15 -18 73.5 -83t76.5 -83q57 -65 135 -143q29 -29 33 -35q-73 -72 -185 -195q-5 -5 -34.5 -37.5t-56.5 -62.5t-34 -39q-24 -24 -34 -39z" />
    <glyph glyph-name="fraction" unicode="&#x2044;" horiz-adv-x="235" 
d="M444 1432h150l-805 -1512h-149z" />
    <glyph glyph-name="fraction" unicode="&#x2215;" horiz-adv-x="235" 
d="M444 1432h150l-805 -1512h-149z" />
    <glyph glyph-name="Euro" unicode="&#x20ac;" horiz-adv-x="1044" 
d="M96 541h-96l12 110h78v15q0 32 2 77h-92l12 111h92q40 275 180 425.5t355 150.5q70 0 129 -15t152 -57q-5 -143 -5 -144q0 -104 9 -237h-103q-19 182 -58.5 258t-117.5 76q-208 0 -246 -457h451l-12 -111h-443q0 -26 2 -92h428l-12 -110h-405q56 -396 288 -396
q46 0 86 14.5t101 53.5l53 -88q-104 -86 -191.5 -123t-183.5 -37q-195 0 -317 150.5t-148 425.5z" />
    <glyph glyph-name="litre" unicode="&#x2113;" horiz-adv-x="509" 
d="M594 268q-26 -153 -85.5 -223t-162.5 -70q-101 0 -172 62q-42 39 -63 105t-21 128v92q-6 -14 -35.5 -51t-36.5 -49l-47 72q4 5 35 41t52 62.5t32 45.5v473q0 89 18 174t53.5 160.5t98 121.5t143.5 46q179 0 179 -203q0 -220 -113 -469q-59 -119 -92 -161v-342
q0 -88 13 -125t40 -37q25 0 43 40t35 132zM496 1241q0 121 -54 121q-65 0 -65 -258v-313q2 6 12 28t20 47t17 45q30 72 50 170.5t20 159.5z" />
    <glyph glyph-name="trademark" unicode="&#x2122;" horiz-adv-x="2048" 
d="M-2 1397h776v-226h-35q-2 49 -18.5 84.5t-36.5 52.5t-50.5 26.5t-47 10.5t-41.5 1h-37v-588q0 -29 0.5 -42t3.5 -32.5t9 -27.5t17 -17t29 -11.5t43 -2.5v-35h-454v35q28 2 40 3t27 6.5t19 12.5t9.5 23.5t6 36.5t0.5 55v584h-33q-61 0 -101.5 -16t-59.5 -46t-25.5 -54
t-9.5 -59h-31v226zM885 1397h366l232 -496l229 496h346v-37q-29 0 -48 -5.5t-29.5 -13.5t-15.5 -27.5t-6 -36.5t-1 -52v-471q0 -38 1.5 -55t10.5 -36.5t30 -27.5t58 -10v-35h-461v35q51 1 73 9.5t32 34.5t10 85v506h-4l-315 -670h-25l-313 670h-4v-504q0 -30 0.5 -42.5
t3.5 -32t10 -26.5t19.5 -15.5t32 -11t48.5 -3.5v-35h-280v35q73 3 90.5 25t17.5 110v467q0 81 -17.5 108.5t-90.5 24.5v37z" />
    <glyph glyph-name="_270" unicode="&#x2126;" horiz-adv-x="1409" 
d="M1325 0h-528v332q69 39 115 128.5t63.5 183.5t17.5 192q0 269 -78 402.5t-210 133.5q-150 0 -226 -145.5t-76 -386.5q0 -190 59.5 -335.5t162.5 -182.5v-322h-541v369h70q0 -25 0.5 -38.5t3 -37t8 -36.5t16 -30t25.5 -25.5t38.5 -15t53.5 -6.5h215v68q-82 28 -153.5 75.5
t-132.5 118.5t-96.5 173t-35.5 223q0 178 72.5 318t212 221t324.5 81q142 0 259.5 -52.5t193 -139t116.5 -196t41 -226.5q0 -199 -112.5 -363.5t-295.5 -222.5v-78h205q41 0 69 12.5t42.5 28.5t22 45.5t8.5 49t1 53.5h70v-369z" />
    <glyph glyph-name="estimated" unicode="&#x212e;" horiz-adv-x="1148" 
d="M1067 498h-770v-365q107 -110 274 -110q112 0 214 59.5t165 175.5l51 -27q-92 -130 -192.5 -193t-237.5 -63q-223 0 -355 148t-132 375q0 146 57 263.5t167.5 187t256.5 69.5q227 0 357.5 -143.5t144.5 -376.5zM842 547v305q-113 121 -279 121q-154 0 -266 -115v-311h545
z" />
    <glyph glyph-name="partialdiff" unicode="&#x2202;" horiz-adv-x="962" 
d="M911 1004q0 -113 -32.5 -275.5t-75.5 -269.5q-107 -268 -208.5 -377t-236.5 -109q-149 0 -231 108.5t-82 297.5q0 153 55.5 283t162 211t241.5 81q55 0 100.5 -17t74 -44.5t46 -56t27.5 -58.5h2q6 55 6 160q0 48 -7.5 98t-26 101t-46 90.5t-70.5 64.5t-96 25
q-147 0 -258 -131l-37 45q31 51 63.5 91.5t79 80t108 61t132.5 21.5q70 0 124 -23.5t88.5 -65t56.5 -103t31 -132t9 -157.5zM739 670q-40 180 -166 180q-70 0 -130.5 -71.5t-96 -195t-35.5 -268.5q0 -111 42.5 -171t103.5 -60q52 0 99 53.5t82 141.5t60 187t41 204z" />
    <glyph glyph-name="product" unicode="&#x220f;" horiz-adv-x="1267" 
d="M1243 -268h-520v110h25q26 0 43.5 14t25 40.5t10 52.5t2.5 63v1278h-393v-1278q0 -38 2 -63t9.5 -52.5t23.5 -41t41 -13.5h27v-110h-514v110h24q26 0 43.5 13.5t24.5 41t9.5 52.5t2.5 63v1182q0 73 -14 101t-64 28h-26v111h1218v-111h-24q-53 0 -67.5 -28t-14.5 -101
v-1182q0 -38 2.5 -64t10 -52.5t24.5 -40t43 -13.5h26v-110z" />
    <glyph glyph-name="summation" unicode="&#x2211;" horiz-adv-x="1007" 
d="M965 123l-25 -391h-897l-2 80l391 723l-377 819v80h858l17 -326h-66q-7 89 -20 130.5t-37 56t-74 14.5h-373l304 -629l-398 -709h492q78 0 102.5 29.5t36.5 130.5z" />
    <glyph glyph-name="minus" unicode="&#x2212;" 
d="M131 788h1104v-184h-1104v184z" />
    <glyph glyph-name="radical" unicode="&#x221a;" horiz-adv-x="813" 
d="M858 1493q-37 -253 -111.5 -759t-111.5 -759h-244q-32 100 -95.5 302.5t-94.5 302.5q-62 -46 -95 -66q-15 21 -45.5 64.5t-46.5 64.5q50 36 152.5 109.5t152.5 109.5q31 -101 95.5 -303.5t95.5 -304.5q92 618 180 1239h168z" />
    <glyph glyph-name="infinity" unicode="&#x221e;" horiz-adv-x="1136" 
d="M815 322q-84 0 -135 35t-98 110h-4q-102 -145 -259 -145q-103 0 -171 70.5t-68 176.5q0 110 65 182t170 72q151 0 230 -145h4q48 72 109.5 108.5t150.5 36.5q101 0 170.5 -69.5t69.5 -178.5q0 -107 -67 -180t-167 -73zM821 731q-23 0 -42.5 -4.5t-36.5 -17t-28.5 -22
t-26 -31.5t-20.5 -32.5t-20.5 -38.5t-19.5 -36q64 -137 188 -137q68 0 107 48.5t39 114.5q0 67 -36 111.5t-104 44.5zM319 731q-65 0 -109 -42t-44 -116q0 -71 38.5 -116t108.5 -45q21 0 40.5 7.5t33.5 16t31 29t24.5 30t23 38t18 33.5t16.5 34q-67 131 -181 131z" />
    <glyph glyph-name="integral" unicode="&#x222b;" horiz-adv-x="452" 
d="M444 1415q0 -88 -59 -88q-41 0 -63 31q-17 22 -48 22q-28 0 -28 -37q-1 -34 8.5 -79.5t25.5 -107t23 -101.5q18 -76 33.5 -232t15.5 -260q0 -371 -24 -516q-3 -17 -9 -59t-9 -62t-8.5 -54.5t-10 -55.5t-10.5 -46t-13 -44q-26 -76 -58.5 -117t-88.5 -41q-45 0 -81 32
t-36 83q0 37 19.5 63.5t56.5 26.5q18 0 29.5 -8.5t25.5 -30.5q10 -15 37 -15q9 0 14.5 3.5t10.5 18.5t6 44q1 22 -11 73t-32 125t-29 119q-33 198 -33 455q0 201 17 406q8 97 24 214.5t29 174.5q22 85 64 131.5t87 46.5q61 0 93 -33.5t32 -81.5z" />
    <glyph glyph-name="approxequal" unicode="&#x2248;" 
d="M1350 1012q-144 -346 -396 -346q-78 0 -147.5 16t-188.5 61q-149 54 -217 54q-95 0 -156 -35.5t-110 -140.5l-119 53q70 172 163.5 259t234.5 87q54 0 115 -12t94 -22.5t92 -31.5q105 -40 155 -53.5t105 -13.5q91 0 150.5 42t107.5 136zM1350 653q-144 -346 -396 -346
q-76 0 -144 16t-192 62q-152 55 -217 55q-96 0 -156.5 -36t-109.5 -144l-119 57q70 171 163.5 258t234.5 87q120 0 301 -64q107 -41 156.5 -54.5t103.5 -13.5q91 0 150.5 42.5t107.5 136.5z" />
    <glyph glyph-name="notequal" unicode="&#x2260;" horiz-adv-x="1368" 
d="M1260 408h-635l-211 -318h-207l211 318h-312v184h431l98 139h-529v184h646l202 302h207l-203 -302h302v-184h-416l-101 -139h517v-184z" />
    <glyph glyph-name="lessequal" unicode="&#x2264;" 
d="M1260 0h-1154v184h1154v-184zM1260 309l-1154 387v201l1154 391v-192l-887 -297l887 -297v-193z" />
    <glyph glyph-name="greaterequal" unicode="&#x2265;" 
d="M1260 0h-1154v184h1154v-184zM1260 696l-1154 -391v193l887 297l-887 297v192l1154 -387v-201z" />
    <glyph glyph-name="lozenge" unicode="&#x25ca;" horiz-adv-x="1110" 
d="M969 717q-237 -434 -389 -717h-125q-65 119 -194 357.5t-193 357.5q64 120 193 359.5t194 359.5h125q152 -284 389 -717zM774 717q-42 81 -128 241.5t-128 241.5q-43 -81 -129 -241.5t-129 -241.5q217 -408 256 -484q43 81 129 242t129 242z" />
    <glyph glyph-name="uni00AD" horiz-adv-x="724" 
d="M82 350l-25 29q39 106 62 207q88 -6 217 -6q209 0 309 6l23 -31q-42 -104 -66 -205q-163 6 -332 6q-112 0 -188 -6z" />
    <glyph glyph-name="uni03A9" horiz-adv-x="1284" 
d="M1204 0h-493v338q77 59 113 203t36 299q0 268 -59 400t-162 132q-59 0 -103.5 -40t-71.5 -112t-40.5 -167t-13.5 -211q0 -189 44.5 -332.5t123.5 -181.5v-328h-498v375h72q0 -31 0.5 -45t4 -42t11.5 -42t22 -30.5t38 -24t57 -7.5h180v68q-56 24 -106.5 56.5t-100.5 84
t-86 114t-58 148.5t-22 185q0 173 62.5 311.5t188.5 222.5t296 84q101 0 191 -34.5t155.5 -94t113 -137t71.5 -166.5t24 -180q0 -197 -103 -361.5t-268 -222.5v-78h176q38 0 64.5 12.5t39.5 29t20.5 46t8.5 50t1 53.5h71v-375z" />
    <glyph glyph-name="uni03BC" horiz-adv-x="1130" 
d="M127 936h258v-614q0 -113 25.5 -163t85.5 -50q40 0 72 19t67.5 56.5t46.5 46.5v705h262v-627q0 -13 -0.5 -34t-0.5 -32.5t0.5 -28.5t2 -26.5t4 -21.5t6.5 -18.5t10 -13t15 -9t20 -2.5q62 0 76 143h43q-2 -81 -28.5 -141t-58 -88t-73 -44.5t-62 -19t-36.5 -2.5
q-152 0 -198 158q-20 -23 -35.5 -38.5t-45.5 -40.5t-58.5 -40t-69 -27t-82.5 -12q-75 0 -144 58q0 -66 27 -168l29 -103q8 -27 8 -67q0 -57 -31 -94t-88 -37q-30 0 -51.5 11.5t-31.5 25t-16 33.5t-6.5 29t-0.5 19q0 31 6 62t32 131q12 47 17.5 98t6 84.5t-1 102t-1.5 104.5
v676z" />
    </font>
</defs>
</svg>
